<svg id="content" xmlns="http://www.w3.org/2000/svg" viewBox="0 0 1002 300.87"><defs><style>.cls-1,.cls-2,.cls-3,.cls-4,.cls-5,.cls-6{fill:none;stroke:#688a94;stroke-miterlimit:10;stroke-width:2px;}.cls-1{stroke-dasharray:6 7;}.cls-3{stroke-dasharray:5.92 6.91;}.cls-4{stroke-dasharray:5.83 6.8;}.cls-5{stroke-dasharray:5.79 6.75;}.cls-6{stroke-dasharray:6.03 7.04;}.cls-7{fill:#fff;}.cls-8{fill:#6cc2dd;}.cls-11,.cls-9{fill:#688a94;}.cls-10{fill:#4a6c82;}.cls-11{opacity:0.7;}</style></defs><title>dashed-line</title><line class="cls-1" x1="342.64" y1="120.26" x2="342.64" y2="281.2"/><line class="cls-2" x1="342.64" y1="281.2" x2="345.64" y2="281.2"/><line class="cls-3" x1="352.54" y1="281.2" x2="567.18" y2="281.2"/><line class="cls-2" x1="570.63" y1="281.2" x2="573.63" y2="281.2"/><path class="cls-2" d="M323.52,3708.13a9.26,9.26,0,0,1,4.79-2.17h2.52l9.8,0-1.71,9.86-0.35,2A9.34,9.34,0,1,1,323.52,3708.13Z" transform="translate(2 -3424.67)"/><path class="cls-2" d="M659.1,3428.93a9.26,9.26,0,0,1,2.17,4.79v2.53l0,9.8-9.86-1.71-2-.35A9.34,9.34,0,1,1,659.1,3428.93Z" transform="translate(2 -3424.67)"/><line class="cls-2" x1="250.64" y1="21.26" x2="253.64" y2="21.26"/><path class="cls-4" d="M258.44,3445.93h72.2a10,10,0,0,1,10,10v85.6" transform="translate(2 -3424.67)"/><line class="cls-2" x1="342.64" y1="120.26" x2="342.64" y2="123.26"/><line class="cls-2" x1="663.14" y1="191.2" x2="663.14" y2="194.2"/><path class="cls-5" d="M661.14,3625.63v70.25a10,10,0,0,1-10,10H577.52" transform="translate(2 -3424.67)"/><line class="cls-2" x1="576.14" y1="281.2" x2="573.14" y2="281.2"/><line class="cls-2" x1="663.14" y1="191.2" x2="663.14" y2="188.2"/><line class="cls-6" x1="663.14" y1="181.16" x2="663.14" y2="27.78"/><line class="cls-2" x1="663.14" y1="24.26" x2="663.14" y2="21.26"/><line class="cls-1" x1="663.14" y1="21.26" x2="1002" y2="21.26"/><line class="cls-1" y1="21.26" x2="259.64" y2="21.26"/><rect class="cls-7" x="134.19" y="17.4" width="24.69" height="4.53"/><path class="cls-8" d="M171.05,3445.13a9,9,0,0,0-1.71-.55,4.75,4.75,0,0,0-.64-0.05h-3.33a2.54,2.54,0,0,1-2.54-2.54c0-.81.71-0.87,1.57-0.79a12.34,12.34,0,0,0-3.47-.68H152l-5.49-3.61h-5l2,3.61H126.19l-3-2.8-1.52-1.44-2.41-2.28h-4.69l0.21,0.65,1.95,4.33,0.21,0.47-2.24,2.2h2.58l0.54-.26,0.2,0.44,1.18,2.62,2.21,5a97.48,97.48,0,0,0,10.56.3h6.8l-8,6.48h6.82l14.05-6.48h13.31c1.94,0,.14,0,4.06-0.22,4.39-.1,4.56-1.41,4.56-1.41C173.65,3447.49,174,3446.4,171.05,3445.13Zm-33.87.68h-3.53l0.49-3.09h3.53Zm5.85,0H139.5l0.49-3.09h3.53Zm5.85,0h-3.53l0.49-3.09h3.53Zm5.85,0H151.2l0.49-3.09h3.53Z" transform="translate(2 -3424.67)"/><path class="cls-9" d="M128.13,3446.12a3.83,3.83,0,0,0-.5,2.05,5.61,5.61,0,0,0,0,.65,3.33,3.33,0,0,0,.45,1.41c-4-.07-7-0.7-8.16-1.41a1.84,1.84,0,0,1-.37-0.28,0.55,0.55,0,0,1-.18-0.37v0C119.47,3447.22,123,3446.21,128.13,3446.12Z" transform="translate(2 -3424.67)"/><path class="cls-10" d="M127.45,3448.82a4.8,4.8,0,0,1,0-.65,2.91,2.91,0,0,1,.55-1.95,0.35,0.35,0,0,1,.21-0.11h0a0.41,0.41,0,0,1,.24.17,3.12,3.12,0,0,1,.49,1.88,4.81,4.81,0,0,1,0,.65,2.53,2.53,0,0,1-.44,1.23,0.42,0.42,0,0,1-.24.17h0a0.34,0.34,0,0,1-.21-0.11A2.35,2.35,0,0,1,127.45,3448.82Z" transform="translate(2 -3424.67)"/><polyline class="cls-9" points="145.48 15.83 143.46 12.23 148.49 12.23 153.98 15.85"/><path class="cls-7" d="M163.87,3440.56c-1.35-.13-2.45,0-2.45,1.22a4,4,0,0,0,4,3.93h5.1a8.79,8.79,0,0,1,1.09.1A10.43,10.43,0,0,0,163.87,3440.56Z" transform="translate(2 -3424.67)"/><polygon class="cls-8" points="909.05 24.28 910.63 14.35 944.74 21.24 909.05 24.28"/><polygon class="cls-9" points="944.23 21.21 909.05 24.28 915.53 21.32 944.23 21.21"/><polygon class="cls-7" points="944.74 21.24 915.53 21.32 920.63 29.81 944.74 21.24"/><polygon class="cls-7" points="910.63 14.35 905.23 7.26 944.74 21.24 910.63 14.35"/><g id="rocket"><path class="cls-11" d="M659,3667.82a1,1,0,0,0-2.09,0c0,0.58,1,7,1,7S659,3668.4,659,3667.82Z" transform="translate(2 -3424.67)"/><path class="cls-11" d="M662.17,3674.18a1,1,0,1,0-2.09,0c0,0.58,1,7,1,7S662.17,3674.75,662.17,3674.18Z" transform="translate(2 -3424.67)"/><path class="cls-11" d="M665.5,3668.85a1,1,0,1,0-2.09,0c0,0.58,1,7,1,7S665.5,3669.43,665.5,3668.85Z" transform="translate(2 -3424.67)"/><path class="cls-10" d="M661.16,3662.46a14.5,14.5,0,0,1,13.51,9.23,14.5,14.5,0,1,0-27,0A14.5,14.5,0,0,1,661.16,3662.46Z" transform="translate(2 -3424.67)"/><path class="cls-10" d="M664.87,3652.39v10.56a14.53,14.53,0,0,1,9.8,8.74A14.5,14.5,0,0,0,664.87,3652.39Z" transform="translate(2 -3424.67)"/><path class="cls-8" d="M661.16,3664.34a16.92,16.92,0,0,1,5.12.79,41.1,41.1,0,0,0,3.84-17.94c0-10.85-3.64-20.25-9-24.87-5.32,4.61-9,14-9,24.87a41.08,41.08,0,0,0,3.84,17.94A16.9,16.9,0,0,1,661.16,3664.34Z" transform="translate(2 -3424.67)"/><path class="cls-7" d="M667,3632.29c-2-.12-4-0.18-5.88-0.18s-3.89.06-5.88,0.18a24.05,24.05,0,0,1,5.88-9.29A24.08,24.08,0,0,1,667,3632.29Z" transform="translate(2 -3424.67)"/><path class="cls-8" d="M661.16,3623.69a23.48,23.48,0,0,1,5.13,8.05c-1.74-.09-3.46-0.13-5.13-0.13s-3.39,0-5.13.13a23.44,23.44,0,0,1,5.13-8.05m0-1.36a24.71,24.71,0,0,0-6.61,10.5c2.15-.14,4.35-0.22,6.61-0.22s4.46,0.08,6.61.22a24.74,24.74,0,0,0-6.61-10.5h0Z" transform="translate(2 -3424.67)"/><path class="cls-10" d="M661.16,3651c-1.14,1.92-1.92,5.83-1.92,10.35s0.78,8.42,1.92,10.34c1.14-1.92,1.92-5.83,1.92-10.34S662.3,3653,661.16,3651Z" transform="translate(2 -3424.67)"/><path class="cls-10" d="M661.16,3647.2a5,5,0,1,1,5-5,5,5,0,0,1-5,5h0Z" transform="translate(2 -3424.67)"/><path class="cls-7" d="M661.16,3638.67a3.5,3.5,0,1,0,3.5,3.49,3.5,3.5,0,0,0-3.5-3.49h0Z" transform="translate(2 -3424.67)"/></g></svg>