<svg id="Layer_2" data-name="Layer 2" xmlns="http://www.w3.org/2000/svg" viewBox="0 0 22 22"><defs><style>.cls-1{fill:#fff;}</style></defs><title>pinter-white</title><path class="cls-1" d="M425.79,4222.26H411.12a3.67,3.67,0,0,0-3.67,3.67v14.67a3.67,3.67,0,0,0,3.67,3.67h14.67a3.67,3.67,0,0,0,3.67-3.67v-14.67A3.67,3.67,0,0,0,425.79,4222.26Zm-6.27,14.7a4.48,4.48,0,0,1-2.2-1c-0.43,2.26-1,4.43-2.52,5.56-0.48-3.41.71-6,1.26-8.7-0.94-1.58.11-4.77,2.1-4,2.44,1-2.12,5.89.94,6.5s4.5-5.54,2.52-7.55c-2.86-2.9-8.33-.07-7.66,4.09,0.16,1,1.21,1.32.42,2.73-1.83-.41-2.38-1.85-2.31-3.78a6.16,6.16,0,0,1,5.56-5.66c3.45-.38,6.68,1.26,7.13,4.51C425.27,4233.28,423.21,4237.24,419.52,4237Z" transform="translate(-407.45 -4222.26)"/></svg>