<svg id="content" xmlns="http://www.w3.org/2000/svg" viewBox="0 0 257.45 170"><defs><style>.cls-1{fill:#6cc2dd;}.cls-2{fill:#8ca5af;}.cls-3{fill:#fff;}.cls-4{fill:#c7d3dd;}.cls-5{fill:#c1e5f8;}.cls-6{fill:#bdcfd9;fill-rule:evenodd;}</style></defs><title>price-bg</title><polygon class="cls-1" points="257.28 39.43 253.02 47 257.45 55.71 253.02 63.94 257.28 71.43 234.89 71.43 234.89 39.43 257.28 39.43"/><polygon class="cls-1" points="0.17 39.43 4.42 47 0 55.71 4.42 63.94 0.17 71.43 22.55 71.43 22.55 39.43 0.17 39.43"/><rect class="cls-2" x="13.83" y="2" width="230" height="168"/><rect class="cls-3" x="13.83" width="230" height="168"/><rect class="cls-3" x="19.83" y="5.5" width="218" height="157"/><path class="cls-4" d="M288.64,3489v156h-217V3489h217m1-1h-219v158h219V3488h0Z" transform="translate(-51.31 -3483)"/><rect class="cls-5" x="36.69" y="24.2" width="14" height="32.87"/><rect class="cls-5" x="206.69" y="24.2" width="14" height="32.87"/><rect class="cls-1" x="45.05" y="14.93" width="167.18" height="33"/><polygon class="cls-6" points="36.69 80 48.69 92.08 36.69 104.16 36.69 80"/><polygon class="cls-6" points="220.69 80 208.69 92.08 220.69 104.16 220.69 80"/></svg>