<svg id="content" xmlns="http://www.w3.org/2000/svg" viewBox="0 0 207.68 239.29"><defs><style>.cls-1{fill:#fff;}.cls-2,.cls-3,.cls-4,.cls-5,.cls-6,.cls-7,.cls-8{fill:none;stroke:#224056;stroke-miterlimit:10;stroke-width:2px;}.cls-3{stroke-dasharray:1.99 4.98;}.cls-4{stroke-dasharray:1.99 4.98;}.cls-5{stroke-dasharray:1.99 4.98;}.cls-6{stroke-dasharray:1.99 4.98;}.cls-7{stroke-dasharray:1.99 4.98;}.cls-8{stroke-dasharray:1.99 4.98;}.cls-9{fill:#ed9935;}.cls-10{fill:#6cc2dd;}</style></defs><title>scope-website</title><polygon class="cls-1" points="206.68 60.81 206.21 179.29 103.36 238.14 1 178.49 1.46 59.99 104.31 1.16 206.68 60.81"/><polyline class="cls-2" points="205.82 60.3 206.68 60.81 206.68 61.81"/><line class="cls-3" x1="206.66" y1="66.79" x2="206.23" y2="175.8"/><polyline class="cls-2" points="206.22 178.29 206.21 179.29 205.34 179.79"/><line class="cls-4" x1="201.02" y1="182.26" x2="106.39" y2="236.4"/><polyline class="cls-2" points="104.23 237.64 103.36 238.14 102.49 237.63"/><line class="cls-5" x1="98.19" y1="235.13" x2="4.02" y2="180.24"/><polyline class="cls-2" points="1.87 178.99 1 178.49 1.01 177.49"/><line class="cls-6" x1="1.03" y1="172.51" x2="1.45" y2="63.48"/><polyline class="cls-2" points="1.46 60.99 1.46 59.99 2.33 59.5"/><line class="cls-7" x1="6.65" y1="57.02" x2="101.28" y2="2.89"/><polyline class="cls-2" points="103.44 1.65 104.31 1.16 105.17 1.66"/><line class="cls-8" x1="109.47" y1="4.16" x2="203.67" y2="59.05"/><rect class="cls-1" x="104.62" y="143.37" width="78.74" height="52.97"/><path class="cls-9" d="M572.9,1967H503.46a6.94,6.94,0,0,0-6.94,6.94v45.26a7,7,0,0,0,6.94,6.94h22.37l-4.25,9.36a3.13,3.13,0,0,0,2.85,4.41h27.5a3.12,3.12,0,0,0,3.12-3.12,3.07,3.07,0,0,0-.35-1.44l-4.17-9.21H572.9a7,7,0,0,0,6.94-6.94V1974A6.94,6.94,0,0,0,572.9,1967Zm2.58,54.09a0.69,0.69,0,0,1-.69.69H501.57a0.69,0.69,0,0,1-.69-0.69v-49a0.69,0.69,0,0,1,.69-0.69h73.22a0.69,0.69,0,0,1,.69.69v49h0Z" transform="translate(-394.27 -1826.75)"/><path class="cls-10" d="M511.7,1995.73a6.29,6.29,0,0,0,5.13-1.79l17.06,6.13a6.29,6.29,0,0,0,12.54.33,5.09,5.09,0,0,0,0-.73l14.4-10.5a6.44,6.44,0,0,0,2.39.78,6.3,6.3,0,1,0-5.55-7,6.23,6.23,0,0,0,.45,3.14L545,1995.7a6.29,6.29,0,0,0-10,.45l-16.33-5.87s0-.07,0-0.11A6.3,6.3,0,1,0,511.7,1995.73Zm50-12.28a2.23,2.23,0,1,1,2,2.47A2.22,2.22,0,0,1,561.74,1983.45Zm-23.79,16a2.24,2.24,0,1,1,2,2.48A2.25,2.25,0,0,1,537.95,1999.45Zm-27.77-10.22a2.23,2.23,0,1,1,2,2.46A2.24,2.24,0,0,1,510.18,1989.22Z" transform="translate(-394.27 -1826.75)"/><path class="cls-10" d="M564,1993.38a7.43,7.43,0,0,1-.94-0.06,8.55,8.55,0,0,1-1.92-.45l-12.67,9.24a8.32,8.32,0,0,1-8.25,7.26,8.8,8.8,0,0,1-.94,0,8.3,8.3,0,0,1-7.18-6.4l-14.83-5.32a8.27,8.27,0,0,1-4.83,1.55h0a7.94,7.94,0,0,1-.94-0.05,8.3,8.3,0,0,1-5.36-2.84v20.5h64.15V1990.5A8.29,8.29,0,0,1,564,1993.38Z" transform="translate(-394.27 -1826.75)"/><path class="cls-10" d="M474,1980.88h-15.8a2.73,2.73,0,0,0-2.73,2.73v32.08a2.73,2.73,0,0,0,2.73,2.73H474a2.73,2.73,0,0,0,2.73-2.73v-32.08A2.73,2.73,0,0,0,474,1980.88Zm-11.8,1.66H470a0.79,0.79,0,0,1,0,1.32h-7.8A0.79,0.79,0,0,1,462.24,1982.54Zm3.9,33.19a1.74,1.74,0,1,1,1.74-1.75A1.75,1.75,0,0,1,466.14,2015.72Zm8.58-6H457.55v-24.25h17.17v24.25h0Z" transform="translate(-394.27 -1826.75)"/><path class="cls-9" d="M461.45,1991.76a4.69,4.69,0,0,1,3.32-1.37v4.69Zm4.55-.16v6.63l-4.69-4.69A6.63,6.63,0,1,0,466,1991.6Z" transform="translate(-394.27 -1826.75)"/></svg>