<svg id="content" xmlns="http://www.w3.org/2000/svg" viewBox="0 0 207.68 239.29"><defs><style>.cls-1{fill:#fff;}.cls-2,.cls-3,.cls-4,.cls-5,.cls-6,.cls-7,.cls-8{fill:none;stroke:#224056;stroke-miterlimit:10;stroke-width:2px;}.cls-3{stroke-dasharray:1.99 4.98;}.cls-4{stroke-dasharray:1.99 4.98;}.cls-5{stroke-dasharray:1.99 4.98;}.cls-6{stroke-dasharray:1.99 4.98;}.cls-7{stroke-dasharray:1.99 4.98;}.cls-8{stroke-dasharray:1.99 4.98;}.cls-9{fill:#ed9935;}.cls-10{fill:#6cc2dd;}</style></defs><title>scope-report</title><polygon class="cls-1" points="206.68 60.81 206.21 179.29 103.36 238.14 1 178.49 1.46 59.99 104.31 1.16 206.68 60.81"/><polyline class="cls-2" points="205.82 60.3 206.68 60.81 206.68 61.81"/><line class="cls-3" x1="206.66" y1="66.79" x2="206.23" y2="175.8"/><polyline class="cls-2" points="206.22 178.29 206.21 179.29 205.34 179.79"/><line class="cls-4" x1="201.02" y1="182.26" x2="106.39" y2="236.4"/><polyline class="cls-2" points="104.23 237.64 103.36 238.14 102.49 237.63"/><line class="cls-5" x1="98.19" y1="235.13" x2="4.02" y2="180.24"/><polyline class="cls-2" points="1.87 178.99 1 178.49 1.01 177.49"/><line class="cls-6" x1="1.03" y1="172.51" x2="1.45" y2="63.48"/><polyline class="cls-2" points="1.46 60.99 1.46 59.99 2.33 59.5"/><line class="cls-7" x1="6.65" y1="57.02" x2="101.28" y2="2.89"/><polyline class="cls-2" points="103.44 1.65 104.31 1.16 105.17 1.66"/><line class="cls-8" x1="109.47" y1="4.16" x2="203.67" y2="59.05"/><rect class="cls-1" x="96" y="143.1" width="83.19" height="55.02"/><path class="cls-9" d="M633.67,2256.44h90v-61.85h-90v61.85Zm5.08-56.77H718.6v51.68H638.75v-51.68Z" transform="translate(-540.28 -2054.1)"/><path class="cls-10" d="M672.28,2208.21l-3.24,10a7.11,7.11,0,0,1,3.58,11.07l8.36,6.45A17.67,17.67,0,0,0,672.28,2208.21Z" transform="translate(-540.28 -2054.1)"/><path class="cls-9" d="M664.3,2233.53a7.12,7.12,0,0,1,0-14.24,7.43,7.43,0,0,1,2.11.32l3.25-10a17.49,17.49,0,0,0-5.36-.84,17.68,17.68,0,1,0,14.06,28.38l-8.36-6.44A7.12,7.12,0,0,1,664.3,2233.53Z" transform="translate(-540.28 -2054.1)"/><rect class="cls-9" x="151.6" y="152.51" width="20.13" height="3.7"/><rect class="cls-9" x="151.47" y="158.64" width="20.14" height="3.7"/><rect class="cls-9" x="151.66" y="165.3" width="20.13" height="3.7"/><path class="cls-10" d="M693.4,2244.18a0.78,0.78,0,0,0,.78.77h1.36a0.78,0.78,0,0,0,.77-0.77v-4.63l-2.35,2.37-0.56-.57v2.83Z" transform="translate(-540.28 -2054.1)"/><path class="cls-10" d="M698.28,2244.21a0.75,0.75,0,0,0,.74.75h1.43a0.75,0.75,0,0,0,.75-0.75v-5.63l-1.94-1.94-1,1v6.61Z" transform="translate(-540.28 -2054.1)"/><path class="cls-10" d="M705.34,2245a0.74,0.74,0,0,0,.74-0.75v-7.57l-3,2.93v4.64a0.74,0.74,0,0,0,.74.75h1.48Z" transform="translate(-540.28 -2054.1)"/><path class="cls-10" d="M708,2234.7v9.51a0.75,0.75,0,0,0,.75.75h1.47a0.75,0.75,0,0,0,.75-0.75v-8.73l-1.88-1.86Z" transform="translate(-540.28 -2054.1)"/><path class="cls-10" d="M698.5,2235.81a1,1,0,0,1,1.47,0l1.75,1.75a1.31,1.31,0,0,0,1.85,0l5.5-5.49L710,2233a0.47,0.47,0,0,0,.8-0.33l0.05-3.12a0.85,0.85,0,0,0-.84-0.86h-3.16a0.49,0.49,0,0,0-.44.3,0.48,0.48,0,0,0,.11.52l0.77,0.76-3.87,3.88a1.05,1.05,0,0,1-.74.31,1.07,1.07,0,0,1-.74-0.31l-1.94-2a1.06,1.06,0,0,0-1.48,0l-5.6,5.61a1.11,1.11,0,0,0,0,1.55l0.31,0.32a1,1,0,0,0,1.47,0Z" transform="translate(-540.28 -2054.1)"/><path class="cls-10" d="M617.48,2220.4H607s0.61-2.49.72-3.65a7.34,7.34,0,0,0-.09-2.37,10.44,10.44,0,0,0-1.06-2.83,1.48,1.48,0,0,0-1.31-.79h-2a1.48,1.48,0,0,0-1.48,1.48c0,1.37,0,3.19,0,3.25a36.37,36.37,0,0,1-2.76,4.82,16.6,16.6,0,0,1-1.55,2,1.46,1.46,0,0,0-.39,1v12.9a1.46,1.46,0,0,0,.41,1,3,3,0,0,0,2.26.89c3.67,0,9.61,0,13.83,0a1.47,1.47,0,0,0,1.28-.73l3.73-6.38a3,3,0,0,0,.39-1.45l0-7.65A1.48,1.48,0,0,0,617.48,2220.4Z" transform="translate(-540.28 -2054.1)"/><path class="cls-10" d="M593.75,2222.51h-1.32A1.48,1.48,0,0,0,591,2224v12.66a1.48,1.48,0,0,0,1.48,1.47h1.32a1.47,1.47,0,0,0,1.48-1.47V2224A1.47,1.47,0,0,0,593.75,2222.51Z" transform="translate(-540.28 -2054.1)"/></svg>