<svg id="content" xmlns="http://www.w3.org/2000/svg" viewBox="0 0 122 122.18"><defs><style>.cls-1{fill:none;stroke:#4a6c82;stroke-linecap:round;stroke-linejoin:round;}.cls-2{fill:#6cc2dd;}.cls-3,.cls-5{fill:#fff;}.cls-4{fill:#4a6c82;}.cls-5{stroke:#fff;stroke-miterlimit:10;}</style></defs><title>socials-globe</title><path class="cls-1" d="M705.66,1280.42c0,24.55-19.36,44.43-43.24,44.43s-43.24-19.88-43.24-44.43S638.54,1236,662.41,1236,705.66,1255.88,705.66,1280.42Z" transform="translate(-602.09 -1220.61)"/><path class="cls-1" d="M705.66,1280.42c0,24.55-19.36,44.43-43.24,44.43s-43.24-19.88-43.24-44.43S638.54,1236,662.41,1236,705.66,1255.88,705.66,1280.42Z" transform="translate(-602.09 -1220.61)"/><path class="cls-1" d="M680.87,1280.42c0,24.55-8.26,44.43-18.45,44.43S644,1305,644,1280.42s8.27-44.43,18.46-44.43S680.87,1255.88,680.87,1280.42Z" transform="translate(-602.09 -1220.61)"/><path class="cls-1" d="M662.41,1261.46c23.88,0,43.24,8.47,43.24,19s-19.36,19-43.24,19-43.24-8.49-43.24-19S638.54,1261.46,662.41,1261.46Z" transform="translate(-602.09 -1220.61)"/><line class="cls-1" x1="17.09" y1="59.81" x2="103.57" y2="59.81"/><line class="cls-1" x1="60.32" y1="104.23" x2="60.32" y2="15.38"/><line class="cls-1" x1="91.11" y1="91.43" x2="29.55" y2="28.2"/><line class="cls-1" x1="29.55" y1="91.43" x2="91.11" y2="28.2"/><path class="cls-2" d="M629.11,1280.53A13.51,13.51,0,1,1,615.6,1267,13.52,13.52,0,0,1,629.11,1280.53Z" transform="translate(-602.09 -1220.61)"/><path class="cls-2" d="M675.93,1234.12a13.51,13.51,0,1,1-13.52-13.52A13.52,13.52,0,0,1,675.93,1234.12Z" transform="translate(-602.09 -1220.61)"/><path class="cls-3" d="M666.63,1234.74l0.39-3.16H664v-2a1.29,1.29,0,0,1,1.53-1.52h1.63v-2.82a20.82,20.82,0,0,0-2.38-.13c-2.36,0-4,1.47-4,4.18v2.32h-2.67v3.16h2.67v8.11H664v-8.11h2.66Z" transform="translate(-602.09 -1220.61)"/><path class="cls-2" d="M724.09,1280.42a13.51,13.51,0,1,1-13.51-13.51A13.51,13.51,0,0,1,724.09,1280.42Z" transform="translate(-602.09 -1220.61)"/><path class="cls-3" d="M704.9,1272.14h11.87a2.08,2.08,0,0,1,2,2.09v12.15a2.08,2.08,0,0,1-2,2.1H704.9a2.08,2.08,0,0,1-2.05-2.1v-12.15A2.08,2.08,0,0,1,704.9,1272.14Zm9.58,1.81a0.73,0.73,0,0,0-.72.73v1.77a0.73,0.73,0,0,0,.72.73h1.8a0.73,0.73,0,0,0,.73-0.73v-1.77a0.73,0.73,0,0,0-.73-0.73h-1.8ZM717,1279h-1.41a4.93,4.93,0,0,1-4.76,6.33,5,5,0,0,1-5-4.92,5,5,0,0,1,.21-1.4h-1.46V1286a0.63,0.63,0,0,0,.63.64h11.11A0.65,0.65,0,0,0,717,1286V1279Zm-6.17-2a3.18,3.18,0,1,0,3.21,3.18A3.19,3.19,0,0,0,710.85,1277.09Z" transform="translate(-602.09 -1220.61)"/><path class="cls-2" d="M676.2,1329.27a13.51,13.51,0,1,1-13.51-13.51A13.52,13.52,0,0,1,676.2,1329.27Z" transform="translate(-602.09 -1220.61)"/><path class="cls-3" d="M662.67,1320a9.12,9.12,0,0,0-9,9.22,9.24,9.24,0,0,0,5.39,8.45,8.27,8.27,0,0,1,.16-2.12l1.16-5a3.6,3.6,0,0,1-.29-1.46c0-1.36.77-2.39,1.73-2.39a1.23,1.23,0,0,1,1.22,1.39,21,21,0,0,1-.8,3.27,1.42,1.42,0,0,0,1.42,1.77c1.7,0,2.85-2.24,2.85-4.9a3.41,3.41,0,0,0-3.75-3.54,4.32,4.32,0,0,0-4.43,4.42,2.66,2.66,0,0,0,.59,1.81,0.47,0.47,0,0,1,.12.52c0,0.16-.14.58-0.18,0.74a0.31,0.31,0,0,1-.45.23,3.57,3.57,0,0,1-1.85-3.52c0-2.62,2.17-5.76,6.44-5.76a5.43,5.43,0,0,1,5.71,5.28c0,3.62-2,6.31-4.86,6.31a2.57,2.57,0,0,1-2.2-1.14s-0.52,2.12-.63,2.53a8.13,8.13,0,0,1-.91,2,8.73,8.73,0,0,0,2.55.38A9.23,9.23,0,0,0,662.67,1320Z" transform="translate(-602.09 -1220.61)"/><path class="cls-3" d="M628.52,1260.77a13.05,13.05,0,1,1,13.05-13.05A13.07,13.07,0,0,1,628.52,1260.77Z" transform="translate(-602.09 -1220.61)"/><path class="cls-4" d="M628.52,1235.67a12.05,12.05,0,1,1-12.05,12.05,12.07,12.07,0,0,1,12.05-12.05m0-2a14.05,14.05,0,1,0,14.05,14.05,14.05,14.05,0,0,0-14.05-14.05h0Z" transform="translate(-602.09 -1220.61)"/><path class="cls-2" d="M626.06,1248.53a0.65,0.65,0,0,0-.54-0.29h-1.29a1.11,1.11,0,0,0-1.11,1.1v5.51h10.81v-5.51h0a1.1,1.1,0,0,0-1.1-1.1H631.6a0.65,0.65,0,0,0-.55.29l-2.41,2.56" transform="translate(-602.09 -1220.61)"/><path class="cls-2" d="M628.52,1247.53A3.55,3.55,0,1,0,625,1244,3.56,3.56,0,0,0,628.52,1247.53Z" transform="translate(-602.09 -1220.61)"/><path class="cls-3" d="M696,1260.77a13.05,13.05,0,1,1,13.05-13.05A13.07,13.07,0,0,1,696,1260.77Z" transform="translate(-602.09 -1220.61)"/><path class="cls-4" d="M696,1235.67a12.05,12.05,0,1,1-12.05,12.05A12.07,12.07,0,0,1,696,1235.67m0-2a14.05,14.05,0,1,0,14.05,14.05A14.05,14.05,0,0,0,696,1233.67h0Z" transform="translate(-602.09 -1220.61)"/><path class="cls-2" d="M693.54,1248.53a0.66,0.66,0,0,0-.55-0.29H691.7a1.1,1.1,0,0,0-1.1,1.1v5.51h10.81v-5.51h0a1.11,1.11,0,0,0-1.11-1.1h-1.23a0.63,0.63,0,0,0-.54.29l-2.41,2.56" transform="translate(-602.09 -1220.61)"/><path class="cls-2" d="M696,1247.53a3.55,3.55,0,1,0-3.56-3.56A3.56,3.56,0,0,0,696,1247.53Z" transform="translate(-602.09 -1220.61)"/><path class="cls-3" d="M628.52,1325.09A13.05,13.05,0,1,1,641.58,1312,13.07,13.07,0,0,1,628.52,1325.09Z" transform="translate(-602.09 -1220.61)"/><path class="cls-4" d="M628.52,1300A12.05,12.05,0,1,1,616.47,1312,12.07,12.07,0,0,1,628.52,1300m0-2A14.05,14.05,0,1,0,642.58,1312,14.05,14.05,0,0,0,628.52,1298h0Z" transform="translate(-602.09 -1220.61)"/><path class="cls-2" d="M626.06,1312.84a0.67,0.67,0,0,0-.54-0.28h-1.29a1.1,1.1,0,0,0-1.11,1.1v5.51h10.81v-5.51h0a1.1,1.1,0,0,0-1.1-1.1H631.6a0.67,0.67,0,0,0-.55.28l-2.41,2.57" transform="translate(-602.09 -1220.61)"/><path class="cls-2" d="M628.52,1311.85a3.56,3.56,0,1,0-3.56-3.56A3.56,3.56,0,0,0,628.52,1311.85Z" transform="translate(-602.09 -1220.61)"/><path class="cls-3" d="M696,1325.09A13.05,13.05,0,1,1,709.05,1312,13.07,13.07,0,0,1,696,1325.09Z" transform="translate(-602.09 -1220.61)"/><path class="cls-4" d="M696,1300A12.05,12.05,0,1,1,683.95,1312,12.07,12.07,0,0,1,696,1300m0-2A14.05,14.05,0,1,0,710.05,1312,14.05,14.05,0,0,0,696,1298h0Z" transform="translate(-602.09 -1220.61)"/><path class="cls-2" d="M693.54,1312.84a0.67,0.67,0,0,0-.55-0.28H691.7a1.1,1.1,0,0,0-1.1,1.1v5.51h10.81v-5.51h0a1.11,1.11,0,0,0-1.11-1.1h-1.23a0.64,0.64,0,0,0-.54.28l-2.41,2.57" transform="translate(-602.09 -1220.61)"/><path class="cls-2" d="M696,1311.85a3.56,3.56,0,1,0-3.56-3.56A3.56,3.56,0,0,0,696,1311.85Z" transform="translate(-602.09 -1220.61)"/><g id="Shape_17" data-name="Shape 17"><path class="cls-5" d="M624.25,1276.31a1.41,1.41,0,0,0-.38-1v0h0a1.48,1.48,0,0,0-1.05-.44H608.41a1.47,1.47,0,0,0-1.05.44v0a1.42,1.42,0,0,0-.38,1v8.46a1.41,1.41,0,0,0,.39,1v0h0a1.47,1.47,0,0,0,1,.44H622.8a1.48,1.48,0,0,0,1-.44h0v0a1.4,1.4,0,0,0,.39-1v-8.46h0Zm-5.66,3.78,5-4.13a0.74,0.74,0,0,1,.08.35v8.46a0.69,0.69,0,0,1-.07.31Zm4.21-4.62a0.93,0.93,0,0,1,.35.07l-7.55,6.26-7.54-6.26a0.92,0.92,0,0,1,.35-0.07H622.8Zm-15.18,9.62a0.83,0.83,0,0,1-.06-0.31v-8.46a0.84,0.84,0,0,1,.07-0.35l5,4.13Zm0.79,0.53a0.8,0.8,0,0,1-.38-0.09l5-5,2.34,1.93a0.31,0.31,0,0,0,.19.07,0.31,0.31,0,0,0,.2-0.07l2.34-1.93,5,5a0.81,0.81,0,0,1-.38.09H608.41Z" transform="translate(-602.09 -1220.61)"/></g></svg>