<svg id="Layer_1" data-name="Layer 1" xmlns="http://www.w3.org/2000/svg" viewBox="0 0 22 22"><defs><style>.cls-1{fill:#a0b9cc;}</style></defs><title>tw-darkblue</title><path class="cls-1" d="M234.31,3193.34H219.64A3.81,3.81,0,0,0,216,3197v14.67a3.8,3.8,0,0,0,3.67,3.66h14.67a3.79,3.79,0,0,0,3.66-3.66V3197A3.8,3.8,0,0,0,234.31,3193.34Zm-1.06,8c-0.12,5.06-3.3,8.58-8.14,8.8a8.09,8.09,0,0,1-4.74-1.32,5.85,5.85,0,0,0,4.29-1.22,3,3,0,0,1-2.75-2.09,4.7,4.7,0,0,0,1.21,0,3,3,0,0,1-2.31-3,2.23,2.23,0,0,0,1.21.33,3.24,3.24,0,0,1-.88-4,8.69,8.69,0,0,0,6,3.08c-0.77-3.08,3.41-4.73,5.06-2.64a7.63,7.63,0,0,0,1.88-.66,3.1,3.1,0,0,1-1.21,1.64,6.17,6.17,0,0,0,1.54-.44A2.91,2.91,0,0,1,233.25,3201.37Z" transform="translate(-215.97 -3193.34)"/></svg>