<svg id="Layer_2" data-name="Layer 2" xmlns="http://www.w3.org/2000/svg" viewBox="0 0 22 22"><defs><style>.cls-1{fill:#fff;}</style></defs><title>tw-white</title><g id="post-twitter"><path class="cls-1" d="M357.79,4222.26H343.12a3.81,3.81,0,0,0-3.67,3.67v14.67a3.8,3.8,0,0,0,3.67,3.66h14.67a3.79,3.79,0,0,0,3.66-3.66v-14.67A3.8,3.8,0,0,0,357.79,4222.26Zm-1.06,8c-0.12,5.06-3.3,8.58-8.14,8.8a8.09,8.09,0,0,1-4.74-1.32,5.85,5.85,0,0,0,4.29-1.22,3,3,0,0,1-2.75-2.08,4.74,4.74,0,0,0,1.21,0,3,3,0,0,1-2.31-3,2.23,2.23,0,0,0,1.21.33,3.24,3.24,0,0,1-.88-4,8.69,8.69,0,0,0,6,3.08c-0.77-3.08,3.41-4.73,5.06-2.64a7.65,7.65,0,0,0,1.88-.66,3.09,3.09,0,0,1-1.21,1.64,6.22,6.22,0,0,0,1.54-.44A2.92,2.92,0,0,1,356.73,4230.29Z" transform="translate(-339.45 -4222.26)"/></g><path id="Facebook_alt_" data-name="Facebook (alt)" class="cls-1" d="M350.45,4232.28" transform="translate(-339.45 -4222.26)"/><path class="cls-1" d="M357.79,4222.26H343.12a3.81,3.81,0,0,0-3.67,3.67v14.67a3.8,3.8,0,0,0,3.67,3.66h14.67a3.79,3.79,0,0,0,3.66-3.66v-14.67A3.8,3.8,0,0,0,357.79,4222.26Zm-1.06,8c-0.12,5.06-3.3,8.58-8.14,8.8a8.09,8.09,0,0,1-4.74-1.32,5.85,5.85,0,0,0,4.29-1.22,3,3,0,0,1-2.75-2.08,4.74,4.74,0,0,0,1.21,0,3,3,0,0,1-2.31-3,2.23,2.23,0,0,0,1.21.33,3.24,3.24,0,0,1-.88-4,8.69,8.69,0,0,0,6,3.08c-0.77-3.08,3.41-4.73,5.06-2.64a7.65,7.65,0,0,0,1.88-.66,3.09,3.09,0,0,1-1.21,1.64,6.22,6.22,0,0,0,1.54-.44A2.92,2.92,0,0,1,356.73,4230.29Z" transform="translate(-339.45 -4222.26)"/></svg>