<svg id="Layer_2" data-name="Layer 2" xmlns="http://www.w3.org/2000/svg" viewBox="0 0 661.84 721.87"><defs><style>.cls-1{fill:none;}.cls-1,.cls-5{stroke:#738993;}.cls-1,.cls-2,.cls-5{stroke-miterlimit:10;}.cls-1,.cls-2{stroke-width:3px;}.cls-2,.cls-5,.cls-7{fill:#fff;}.cls-2{stroke:#304256;}.cls-3{fill:#8bc1db;}.cls-4{fill:#304256;}.cls-5{stroke-width:2px;}.cls-6{fill:#d9983f;}</style></defs><title>check-border-tab</title><line class="cls-1" x1="14.85" y1="1.5" x2="14.85" y2="716.5"/><line class="cls-1" x1="642.84" y1="2.32" x2="642.84" y2="343.21"/><polygon class="cls-2" points="660.3 343.52 642.8 353.58 625.34 343.46 625.37 323.28 642.87 313.21 660.34 323.34 660.3 343.52"/><polygon class="cls-3" points="654.81 340.34 642.81 347.24 630.84 340.3 630.86 326.45 642.86 319.56 654.84 326.5 654.81 340.34"/><circle class="cls-4" cx="642.84" cy="333.4" r="5.25"/><line class="cls-1" x1="568.94" y1="1.5" x2="644.29" y2="1.5"/><line class="cls-1" x1="233.46" y1="1.5" x2="14.34" y2="1.5"/><rect class="cls-5" x="3.65" y="76.76" width="22" height="22"/><path class="cls-6" d="M69.25,818.33a4,4,0,0,1-3.1-1.42l-7.5-9a3.47,3.47,0,0,1-.79-2.71,3.6,3.6,0,0,1,1.55-2.48,4.09,4.09,0,0,1,2.33-.72,4,4,0,0,1,3.11,1.42l4.08,4.91,11.66-17a4,4,0,0,1,3.31-1.69,4.14,4.14,0,0,1,2,.53,3.7,3.7,0,0,1,1.8,2.36,3.44,3.44,0,0,1-.53,2.75L72.56,816.63a4,4,0,0,1-3.13,1.69H69.25Z" transform="translate(-56.83 -721.88)"/><path class="cls-7" d="M83.91,790.56a3.13,3.13,0,0,1,1.54.4,2.53,2.53,0,0,1,.93,3.67L71.73,816.07a3,3,0,0,1-2.35,1.25H69.25a3,3,0,0,1-2.33-1.06l-7.5-9a2.52,2.52,0,0,1,.56-3.74,3.11,3.11,0,0,1,1.76-.54A3,3,0,0,1,64.09,804L69,810l12.4-18.14a3,3,0,0,1,2.49-1.25m0-2h0a5,5,0,0,0-4.14,2.12l-10.91,16-3.23-3.89A5,5,0,0,0,61.75,801a5.08,5.08,0,0,0-2.89.89,4.66,4.66,0,0,0-2,3.18,4.46,4.46,0,0,0,1,3.49l7.5,9a5,5,0,0,0,3.87,1.78h0.21a5,5,0,0,0,3.92-2.13L88,795.76a4.43,4.43,0,0,0,.68-3.53,4.7,4.7,0,0,0-2.28-3,5.14,5.14,0,0,0-2.53-.66h0Z" transform="translate(-56.83 -721.88)"/><rect class="cls-5" x="3.65" y="218.81" width="22" height="22"/><path class="cls-6" d="M69.25,960.38a4,4,0,0,1-3.1-1.42l-7.5-9a3.47,3.47,0,0,1-.79-2.71,3.6,3.6,0,0,1,1.55-2.48,4.09,4.09,0,0,1,2.33-.72,4,4,0,0,1,3.11,1.42l4.08,4.91,11.66-17a4,4,0,0,1,3.31-1.69,4.14,4.14,0,0,1,2,.53,3.7,3.7,0,0,1,1.8,2.36,3.44,3.44,0,0,1-.53,2.75L72.56,958.69a4,4,0,0,1-3.13,1.69H69.25Z" transform="translate(-56.83 -721.88)"/><path class="cls-7" d="M83.91,932.62a3.13,3.13,0,0,1,1.54.4,2.53,2.53,0,0,1,.93,3.67L71.73,958.12a3,3,0,0,1-2.35,1.25H69.25a3,3,0,0,1-2.33-1.06l-7.5-9a2.52,2.52,0,0,1,.56-3.74,3.1,3.1,0,0,1,1.76-.54,3,3,0,0,1,2.34,1.06L69,952l12.4-18.14a3,3,0,0,1,2.49-1.25m0-2h0a5,5,0,0,0-4.14,2.12l-10.91,16-3.23-3.89A5,5,0,0,0,61.75,943a5.08,5.08,0,0,0-2.89.89,4.66,4.66,0,0,0-2,3.18,4.46,4.46,0,0,0,1,3.49l7.5,9a5,5,0,0,0,3.87,1.78h0.21a5,5,0,0,0,3.92-2.13L88,937.82a4.43,4.43,0,0,0,.68-3.53,4.7,4.7,0,0,0-2.28-3,5.14,5.14,0,0,0-2.53-.66h0Z" transform="translate(-56.83 -721.88)"/><rect class="cls-5" x="3.65" y="378.74" width="22" height="22"/><path class="cls-6" d="M69.25,1120.3a4,4,0,0,1-3.1-1.42l-7.5-9a3.47,3.47,0,0,1-.79-2.71,3.6,3.6,0,0,1,1.55-2.48,4.09,4.09,0,0,1,2.33-.72,4,4,0,0,1,3.11,1.42l4.08,4.91,11.66-17a4,4,0,0,1,3.31-1.69,4.14,4.14,0,0,1,2,.53,3.7,3.7,0,0,1,1.8,2.36,3.44,3.44,0,0,1-.53,2.75l-14.65,21.43a4,4,0,0,1-3.13,1.69H69.25Z" transform="translate(-56.83 -721.88)"/><path class="cls-7" d="M83.91,1092.54a3.13,3.13,0,0,1,1.54.4,2.53,2.53,0,0,1,.93,3.67L71.73,1118a3,3,0,0,1-2.35,1.25H69.25a3,3,0,0,1-2.33-1.06l-7.5-9a2.52,2.52,0,0,1,.56-3.74,3.11,3.11,0,0,1,1.76-.54,3,3,0,0,1,2.34,1.06l4.93,5.93,12.4-18.14a3,3,0,0,1,2.49-1.25m0-2h0a5,5,0,0,0-4.14,2.12l-10.91,16-3.23-3.89a5,5,0,0,0-3.88-1.78,5.08,5.08,0,0,0-2.89.89,4.66,4.66,0,0,0-2,3.18,4.46,4.46,0,0,0,1,3.48l7.5,9a5,5,0,0,0,3.87,1.78h0.21a5,5,0,0,0,3.92-2.13L88,1097.74a4.43,4.43,0,0,0,.68-3.53,4.7,4.7,0,0,0-2.28-3,5.14,5.14,0,0,0-2.53-.66h0Z" transform="translate(-56.83 -721.88)"/><rect class="cls-5" x="3.65" y="698.87" width="22" height="22"/><path class="cls-6" d="M69.25,1440.43a4,4,0,0,1-3.1-1.42l-7.5-9a3.47,3.47,0,0,1-.79-2.71,3.6,3.6,0,0,1,1.55-2.48,4.09,4.09,0,0,1,2.33-.72,4,4,0,0,1,3.11,1.42l4.08,4.91,11.66-17a4,4,0,0,1,3.31-1.69,4.14,4.14,0,0,1,2,.53,3.7,3.7,0,0,1,1.8,2.36,3.44,3.44,0,0,1-.53,2.75l-14.65,21.43a4,4,0,0,1-3.13,1.69H69.25Z" transform="translate(-56.83 -721.88)"/><path class="cls-7" d="M83.91,1412.67a3.13,3.13,0,0,1,1.54.4,2.53,2.53,0,0,1,.93,3.67l-14.65,21.43a3,3,0,0,1-2.35,1.25H69.25a3,3,0,0,1-2.33-1.06l-7.5-9a2.52,2.52,0,0,1,.56-3.74,3.11,3.11,0,0,1,1.76-.54,3,3,0,0,1,2.34,1.06l4.93,5.93,12.4-18.14a3,3,0,0,1,2.49-1.25m0-2h0a5,5,0,0,0-4.14,2.12l-10.91,16-3.23-3.89a5,5,0,0,0-3.88-1.78,5.08,5.08,0,0,0-2.89.89,4.66,4.66,0,0,0-2,3.18,4.46,4.46,0,0,0,1,3.48l7.5,9a5,5,0,0,0,3.87,1.78h0.21a5,5,0,0,0,3.92-2.13L88,1417.87a4.43,4.43,0,0,0,.68-3.53,4.7,4.7,0,0,0-2.28-3,5.14,5.14,0,0,0-2.53-.66h0Z" transform="translate(-56.83 -721.88)"/><rect class="cls-5" x="3.65" y="519.53" width="22" height="22"/><path class="cls-6" d="M69.25,1261.1a4,4,0,0,1-3.1-1.42l-7.5-9a3.47,3.47,0,0,1-.79-2.71,3.6,3.6,0,0,1,1.55-2.48,4.09,4.09,0,0,1,2.33-.72,4,4,0,0,1,3.11,1.42l4.08,4.91,11.66-17a4,4,0,0,1,3.31-1.69,4.14,4.14,0,0,1,2,.53,3.7,3.7,0,0,1,1.8,2.36,3.44,3.44,0,0,1-.53,2.75l-14.65,21.43a4,4,0,0,1-3.13,1.69H69.25Z" transform="translate(-56.83 -721.88)"/><path class="cls-7" d="M83.91,1233.34a3.13,3.13,0,0,1,1.54.4,2.53,2.53,0,0,1,.93,3.67l-14.65,21.43a3,3,0,0,1-2.35,1.25H69.25a3,3,0,0,1-2.33-1.06l-7.5-9a2.52,2.52,0,0,1,.56-3.74,3.11,3.11,0,0,1,1.76-.54,3,3,0,0,1,2.34,1.06l4.93,5.93,12.4-18.14a3,3,0,0,1,2.49-1.25m0-2h0a5,5,0,0,0-4.14,2.12l-10.91,16-3.23-3.89a5,5,0,0,0-3.88-1.78,5.08,5.08,0,0,0-2.89.89,4.66,4.66,0,0,0-2,3.18,4.46,4.46,0,0,0,1,3.48l7.5,9a5,5,0,0,0,3.87,1.78h0.21a5,5,0,0,0,3.92-2.13L88,1238.54a4.43,4.43,0,0,0,.68-3.53,4.7,4.7,0,0,0-2.28-3,5.14,5.14,0,0,0-2.53-.66h0Z" transform="translate(-56.83 -721.88)"/></svg>