<svg id="Layer_5" data-name="Layer 5" xmlns="http://www.w3.org/2000/svg" viewBox="0 0 31.44 38.48"><defs><style>.cls-1{fill:#6cc2dd;stroke:#4a6c82;stroke-miterlimit:10;}</style></defs><title>arrow-down</title><path class="cls-1" d="M662.26,1197.08l14.67-22.3a0.55,0.55,0,0,0-.46-0.85h-5.9v-11.19a2.9,2.9,0,0,0-2.9-2.9H655.93a2.9,2.9,0,0,0-2.9,2.9v11.19h-5.9a0.55,0.55,0,0,0-.46.85l14.67,22.3A0.55,0.55,0,0,0,662.26,1197.08ZM648.15,1175h5.44a0.55,0.55,0,0,0,.55-0.55v-11.73a1.8,1.8,0,0,1,1.79-1.8h11.74a1.8,1.8,0,0,1,1.8,1.8v11.73a0.55,0.55,0,0,0,.55.55h5.43l-13.65,20.75Z" transform="translate(-646.08 -1159.35)"/></svg>