<svg id="Layer_2" data-name="Layer 2" xmlns="http://www.w3.org/2000/svg" viewBox="0 0 32 33.07"><defs><style>.cls-1,.cls-3{fill:#fff;}.cls-1{stroke:#738993;stroke-miterlimit:10;stroke-width:2px;}.cls-2{fill:#d9983f;}</style></defs><title>checked</title><rect class="cls-1" x="3.65" y="10.07" width="22" height="22"/><path class="cls-2" d="M69.25,818.33a4,4,0,0,1-3.1-1.42l-7.5-9a3.47,3.47,0,0,1-.79-2.71,3.6,3.6,0,0,1,1.55-2.48,4.09,4.09,0,0,1,2.33-.72,4,4,0,0,1,3.11,1.42l4.08,4.91,11.66-17a4,4,0,0,1,3.31-1.69,4.14,4.14,0,0,1,2,.53,3.7,3.7,0,0,1,1.8,2.36,3.44,3.44,0,0,1-.53,2.75L72.56,816.63a4,4,0,0,1-3.13,1.69H69.25Z" transform="translate(-56.83 -788.56)"/><path class="cls-3" d="M83.91,790.56a3.13,3.13,0,0,1,1.54.4,2.53,2.53,0,0,1,.93,3.67L71.73,816.07a3,3,0,0,1-2.35,1.25H69.25a3,3,0,0,1-2.33-1.06l-7.5-9a2.52,2.52,0,0,1,.56-3.74,3.11,3.11,0,0,1,1.76-.54A3,3,0,0,1,64.09,804L69,810l12.4-18.14a3,3,0,0,1,2.49-1.25m0-2h0a5,5,0,0,0-4.14,2.12l-10.91,16-3.23-3.89A5,5,0,0,0,61.75,801a5.08,5.08,0,0,0-2.89.89,4.66,4.66,0,0,0-2,3.18,4.46,4.46,0,0,0,1,3.49l7.5,9a5,5,0,0,0,3.87,1.78h0.21a5,5,0,0,0,3.92-2.13L88,795.76a4.43,4.43,0,0,0,.68-3.53,4.7,4.7,0,0,0-2.28-3,5.14,5.14,0,0,0-2.53-.66h0Z" transform="translate(-56.83 -788.56)"/></svg>