<svg id="Layer_1" data-name="Layer 1" xmlns="http://www.w3.org/2000/svg" viewBox="0 0 22 22"><defs><style>.cls-1{fill:#a0b9cc;}</style></defs><title>fb-darkblue</title><path id="Facebook_alt_" data-name="Facebook (alt)" class="cls-1" d="M104.5,3197.25a3.8,3.8,0,0,0-3.67-3.67H86.17a3.8,3.8,0,0,0-3.66,3.67v14.67a3.8,3.8,0,0,0,3.67,3.67H93.5v-8.31H90.81v-3.67H93.5v-1.43c0-2.46,1.85-4.68,4.13-4.68h3v3.67h-3a0.9,0.9,0,0,0-.7,1v1.46h3.67v3.67H96.92v8.31h3.91a3.8,3.8,0,0,0,3.67-3.67v-14.67Z" transform="translate(-82.5 -3193.58)"/></svg>