<svg id="bottom" xmlns="http://www.w3.org/2000/svg" viewBox="0 0 22 22"><defs><style>.cls-1{fill:#325268;}</style></defs><title>fb</title><path id="Facebook_alt_" data-name="Facebook (alt)" class="cls-1" d="M599.34,4257.79a3.8,3.8,0,0,0-3.67-3.67H581a3.8,3.8,0,0,0-3.66,3.67v14.67a3.8,3.8,0,0,0,3.67,3.67h7.33v-8.31h-2.69v-3.67h2.69v-1.43c0-2.46,1.85-4.68,4.13-4.68h3v3.67h-3a0.9,0.9,0,0,0-.7,1v1.46h3.67v3.67h-3.67v8.31h3.91a3.8,3.8,0,0,0,3.67-3.67v-14.67Z" transform="translate(-577.33 -4254.12)"/></svg>