<svg id="content" xmlns="http://www.w3.org/2000/svg" xmlns:xlink="http://www.w3.org/1999/xlink" viewBox="0 0 72.82 206.83"><defs><style>.cls-1,.cls-3,.cls-4,.cls-5,.cls-8{fill:none;}.cls-2{fill:#bdcfd9;}.cls-12,.cls-3,.cls-8{stroke:#4a6c82;}.cls-11,.cls-12,.cls-3,.cls-4,.cls-5,.cls-8{stroke-miterlimit:10;}.cls-4{stroke:#224056;}.cls-5{stroke:#231f20;}.cls-6{clip-path:url(#clip-path);}.cls-7{clip-path:url(#clip-path-2);}.cls-8{stroke-width:2px;}.cls-9{clip-path:url(#clip-path-3);}.cls-10{fill:#4a6c82;}.cls-11,.cls-12{fill:#fff;}.cls-11{stroke:#6cc2dd;stroke-width:3px;}</style><clipPath id="clip-path" transform="translate(-625.47 -896.78)"><rect class="cls-1" x="644.39" y="967.64" width="17.84" height="20.43"/></clipPath><clipPath id="clip-path-2" transform="translate(-625.47 -896.78)"><rect class="cls-1" x="661.51" y="967.64" width="17.84" height="20.43"/></clipPath><clipPath id="clip-path-3" transform="translate(-625.47 -896.78)"><rect class="cls-1" x="625.32" y="930.23" width="71.02" height="15.85"/></clipPath></defs><title>infoman</title><path class="cls-2" d="M662.15,1002.56l-4.94-10.62,2.11-10.12a4,4,0,0,1-1.69-3.61,15.86,15.86,0,0,0,4.26.62" transform="translate(-625.47 -896.78)"/><path class="cls-2" d="M661.54,1002.56l4.94-10.62-2.11-10.12a4,4,0,0,0,1.69-3.61,15.85,15.85,0,0,1-4.26.62" transform="translate(-625.47 -896.78)"/><path class="cls-3" d="M634.62,988.07s3.25,11.88,2.52,17.92c0,0,9.45-3.15,11.85-2.43v7.75" transform="translate(-625.47 -896.78)"/><line class="cls-3" x1="36.19" y1="105.23" x2="24.66" y2="77.65"/><polyline class="cls-3" points="36.19 105.23 20.59 92.72 23.54 86.05 16.54 84.07 18.43 71.32"/><path class="cls-4" d="M658.34,978.09a4,4,0,0,0,1.69,3.84l-2.49,10.35" transform="translate(-625.47 -896.78)"/><path class="cls-5" d="M645.7,1012" transform="translate(-625.47 -896.78)"/><path class="cls-3" d="M644.53,968a87.35,87.35,0,0,0-14,4.51,5,5,0,0,0-3.52,4.33c-0.09,2.53-1.89,25.33-.63,33.53s2.71,8.65,2.71,8.65l19.87-7.84" transform="translate(-625.47 -896.78)"/><polyline class="cls-3" points="36.74 133.19 14.65 133.19 13.23 118.41"/><line class="cls-3" x1="21.32" y1="196.74" x2="18.43" y2="133.19"/><polyline class="cls-3" points="24.66 196.74 31.5 138.06 36.74 138.06"/><line class="cls-3" x1="20.92" y1="196.74" x2="25.06" y2="196.74"/><g class="cls-6"><circle class="cls-3" cx="36.77" cy="61.49" r="20.19"/></g><path class="cls-3" d="M689.13,988.07s-3.25,11.88-2.53,17.92c0,0-9.45-3.15-11.84-2.43v7.75" transform="translate(-625.47 -896.78)"/><line class="cls-3" x1="36.62" y1="105.23" x2="48.16" y2="77.65"/><polyline class="cls-3" points="36.62 105.23 52.22 92.72 49.28 86.05 56.27 84.07 54.38 71.32"/><path class="cls-4" d="M665.41,978.09a4,4,0,0,1-1.7,3.84l2.49,10.35" transform="translate(-625.47 -896.78)"/><path class="cls-5" d="M678,1012" transform="translate(-625.47 -896.78)"/><path class="cls-3" d="M679.22,968a87.29,87.29,0,0,1,14,4.51,5,5,0,0,1,3.52,4.33c0.09,2.53,1.9,25.33.63,33.53s-2.7,8.65-2.7,8.65l-19.87-7.84" transform="translate(-625.47 -896.78)"/><polyline class="cls-3" points="36.08 133.19 58.17 133.19 59.59 118.41"/><line class="cls-3" x1="51.5" y1="196.74" x2="54.38" y2="133.19"/><polyline class="cls-3" points="48.16 196.74 41.31 138.06 36.08 138.06"/><line class="cls-3" x1="51.89" y1="196.74" x2="47.76" y2="196.74"/><g class="cls-7"><circle class="cls-3" cx="36.05" cy="61.49" r="20.19"/></g><path class="cls-8" d="M683.47,945.69a22.1,22.1,0,1,1-44.19,0" transform="translate(-625.47 -896.78)"/><path class="cls-8" d="M683.47,930.72a22.1,22.1,0,0,0-44.19,0" transform="translate(-625.47 -896.78)"/><path class="cls-8" d="M636.94,936.94c-1.31,0-2.36,1.91-2.36,4.27s1,4.27,2.36,4.27" transform="translate(-625.47 -896.78)"/><path class="cls-8" d="M686,936.94c1.3,0,2.35,1.91,2.35,4.27s-1.05,4.27-2.35,4.27" transform="translate(-625.47 -896.78)"/><g class="cls-9"><ellipse class="cls-8" cx="35.94" cy="41.37" rx="22.65" ry="36.25"/></g><path class="cls-10" d="M683.39,935c0.42-6.13-3.52-19.24-8.5-21s-8.91,1.13-14.09,1.13-6.7-3.58-12.91-.91c-4.61,2-10.08,11.22-8.84,23.33-9.1-16.77,1.65-26.08,1.65-26.08s-10-4.73-3.73-14.72c3.06,5.33,10.76,5.46,24.49,2.74,14-2.77,15.5,10.36,16.75,11.2C693.74,907.76,683.39,935,683.39,935Z" transform="translate(-625.47 -896.78)"/><path class="cls-10" d="M664.27,925.59c-0.83-2.12,3.57-4,8.62-2a6.49,6.49,0,0,1,4.12,6.58s-2.7-5.69-7.08-5.26C667.41,925.14,665.51,928.75,664.27,925.59Z" transform="translate(-625.47 -896.78)"/><path class="cls-10" d="M658.16,925.57c0.62-2.19-3.93-3.59-8.77-1.18a6.5,6.5,0,0,0-3.47,6.95s2.15-5.92,6.54-5.92C655,925.42,657.22,928.83,658.16,925.57Z" transform="translate(-625.47 -896.78)"/><path class="cls-8" d="M651.63,952s9.65,14.45,20.16,0" transform="translate(-625.47 -896.78)"/><path class="cls-8" d="M645.44,941.83s0.69-6.73,7.11-6.73c6.24,0,6.79,6.73,6.79,6.73h-13.9Z" transform="translate(-625.47 -896.78)"/><path class="cls-10" d="M649.18,940.37c0,1.45,1.44,1.34,3.22,1.34s3.21,0.11,3.21-1.34A3.28,3.28,0,0,0,649.18,940.37Z" transform="translate(-625.47 -896.78)"/><path class="cls-8" d="M663.65,941.83s0.69-6.73,7.11-6.73c6.24,0,6.79,6.73,6.79,6.73h-13.9Z" transform="translate(-625.47 -896.78)"/><path class="cls-10" d="M667.39,940.37c0,1.45,1.43,1.34,3.21,1.34s3.21,0.11,3.21-1.34A3.28,3.28,0,0,0,667.39,940.37Z" transform="translate(-625.47 -896.78)"/><polygon class="cls-10" points="48.25 199.87 48.25 206.35 51.73 206.35 51.73 203.51 57.5 206.83 65.56 206.83 65.56 204.38 53.16 199.87 48.25 199.87"/><polygon class="cls-10" points="24.57 199.87 24.57 206.35 21.09 206.35 21.09 203.51 15.32 206.83 7.26 206.83 7.26 204.38 19.66 199.87 24.57 199.87"/><polygon class="cls-11" points="46.12 129.28 26.27 129.28 23.57 98.34 48.81 98.34 46.12 129.28"/><path class="cls-12" d="M648.73,1003.39h8a4.8,4.8,0,0,1,0,7.87h-8" transform="translate(-625.47 -896.78)"/><path class="cls-12" d="M675,1003.39h-8a4.79,4.79,0,0,0,0,7.87h8" transform="translate(-625.47 -896.78)"/></svg>