<svg id="Layer_1" data-name="Layer 1" xmlns="http://www.w3.org/2000/svg" viewBox="0 0 22 22"><defs><style>.cls-1{fill:#a0b9cc;}</style></defs><title>inst-darkblue</title><path class="cls-1" d="M192.65,3194.42a2.73,2.73,0,0,0-2-.83H174.31a2.84,2.84,0,0,0-2.82,2.82v16.36a2.84,2.84,0,0,0,2.82,2.82h16.36a2.83,2.83,0,0,0,2.82-2.82v-16.36A2.73,2.73,0,0,0,192.65,3194.42Zm-13.27,7.1a4.52,4.52,0,0,1,6.25,0,4.19,4.19,0,0,1,0,6.06,4.52,4.52,0,0,1-6.25,0A4.19,4.19,0,0,1,179.38,3201.51ZM191,3212.18a0.84,0.84,0,0,1-.26.62,0.85,0.85,0,0,1-.61.25H174.81a0.85,0.85,0,0,1-.87-0.87v-9.28h2a6.16,6.16,0,0,0-.29,1.88,6.29,6.29,0,0,0,2,4.69,6.7,6.7,0,0,0,4.83,1.94,6.88,6.88,0,0,0,3.44-.89,6.66,6.66,0,0,0,2.49-2.41,6.32,6.32,0,0,0,.92-3.33,6.19,6.19,0,0,0-.29-1.87H191v9.28h0Zm0-12.79a1,1,0,0,1-1,1h-2.49a1,1,0,0,1-1-1V3197a1,1,0,0,1,.29-0.7,0.94,0.94,0,0,1,.7-0.29H190a0.94,0.94,0,0,1,.7.29,1,1,0,0,1,.29.7v2.36Z" transform="translate(-171.48 -3193.58)"/></svg>