<svg id="bottom" xmlns="http://www.w3.org/2000/svg" viewBox="0 0 22 22"><defs><style>.cls-1{fill:#325268;}</style></defs><title>inst</title><path class="cls-1" d="M632.39,4287.88a2.73,2.73,0,0,0-2-.83H614a2.84,2.84,0,0,0-2.82,2.82v16.36A2.84,2.84,0,0,0,614,4309H630.4a2.83,2.83,0,0,0,2.82-2.82v-16.36A2.73,2.73,0,0,0,632.39,4287.88Zm-13.27,7.1a4.52,4.52,0,0,1,6.25,0,4.19,4.19,0,0,1,0,6.06,4.52,4.52,0,0,1-6.25,0A4.19,4.19,0,0,1,619.12,4295Zm11.61,10.66a0.84,0.84,0,0,1-.26.62,0.85,0.85,0,0,1-.61.25H614.55a0.85,0.85,0,0,1-.87-0.87v-9.28h2a6.16,6.16,0,0,0-.29,1.88,6.29,6.29,0,0,0,2,4.69,6.7,6.7,0,0,0,4.83,1.94,6.88,6.88,0,0,0,3.44-.89,6.66,6.66,0,0,0,2.49-2.41,6.32,6.32,0,0,0,.92-3.33,6.18,6.18,0,0,0-.29-1.87h1.93v9.28h0Zm0-12.79a1,1,0,0,1-1,1h-2.49a1,1,0,0,1-1-1v-2.36a1,1,0,0,1,.29-0.7,0.94,0.94,0,0,1,.7-0.29h2.49a0.94,0.94,0,0,1,.7.29,1,1,0,0,1,.29.7v2.36Z" transform="translate(-611.22 -4287.05)"/></svg>