<svg id="Layer_2" data-name="Layer 2" xmlns="http://www.w3.org/2000/svg" viewBox="0 0 22 22"><defs><style>.cls-1{fill:#fff;}</style></defs><title>insta-white</title><path class="cls-1" d="M497.54,4223.09a2.72,2.72,0,0,0-2-.83H479.19a2.84,2.84,0,0,0-2.82,2.82v16.36a2.84,2.84,0,0,0,2.82,2.82h16.35a2.83,2.83,0,0,0,2.82-2.82v-16.36A2.73,2.73,0,0,0,497.54,4223.09Zm-13.27,7.1a4.52,4.52,0,0,1,6.25,0,4.2,4.2,0,0,1,0,6.06,4.52,4.52,0,0,1-6.25,0A4.19,4.19,0,0,1,484.26,4230.19Zm11.61,10.66a0.84,0.84,0,0,1-.26.62,0.86,0.86,0,0,1-.62.25H479.69a0.85,0.85,0,0,1-.87-0.87v-9.28h2a6.16,6.16,0,0,0-.29,1.88,6.29,6.29,0,0,0,2,4.69,6.7,6.7,0,0,0,4.83,1.94,6.88,6.88,0,0,0,3.44-.89,6.65,6.65,0,0,0,2.49-2.41,6.32,6.32,0,0,0,.92-3.33,6.21,6.21,0,0,0-.29-1.87h1.93v9.28h0Zm0-12.79a1,1,0,0,1-1,1h-2.49a1,1,0,0,1-1-1v-2.36a1,1,0,0,1,.29-0.7,0.94,0.94,0,0,1,.7-0.29h2.49a0.94,0.94,0,0,1,.7.29,1,1,0,0,1,.29.7v2.36Z" transform="translate(-476.36 -4222.26)"/></svg>