<svg id="content" xmlns="http://www.w3.org/2000/svg" xmlns:xlink="http://www.w3.org/1999/xlink" viewBox="0 0 72.82 206.83"><defs><style>.cls-1,.cls-3,.cls-4,.cls-5,.cls-8{fill:none;}.cls-2{fill:#bdcfd9;}.cls-12,.cls-3,.cls-8{stroke:#4a6c82;}.cls-11,.cls-12,.cls-3,.cls-4,.cls-5,.cls-8{stroke-miterlimit:10;}.cls-4{stroke:#224056;}.cls-5{stroke:#231f20;}.cls-6{clip-path:url(#clip-path);}.cls-7{clip-path:url(#clip-path-2);}.cls-8{stroke-width:2px;}.cls-9{clip-path:url(#clip-path-3);}.cls-10{fill:#4a6c82;}.cls-11,.cls-12{fill:#fff;}.cls-11{stroke:#ed9935;stroke-width:3px;}</style><clipPath id="clip-path" transform="translate(-847.7 -896.78)"><rect class="cls-1" x="866.63" y="967.64" width="17.84" height="20.43"/></clipPath><clipPath id="clip-path-2" transform="translate(-847.7 -896.78)"><rect class="cls-1" x="883.75" y="967.64" width="17.84" height="20.43"/></clipPath><clipPath id="clip-path-3" transform="translate(-847.7 -896.78)"><rect class="cls-1" x="847.55" y="930.23" width="71.02" height="15.85"/></clipPath></defs><title>ordinary-man</title><path class="cls-2" d="M884.38,1002.56l-4.94-10.62,2.11-10.12a4,4,0,0,1-1.69-3.61,15.86,15.86,0,0,0,4.26.62" transform="translate(-847.7 -896.78)"/><path class="cls-2" d="M883.77,1002.56l4.94-10.62-2.11-10.12a4,4,0,0,0,1.69-3.61,15.85,15.85,0,0,1-4.26.62" transform="translate(-847.7 -896.78)"/><path class="cls-3" d="M856.85,988.07s3.25,11.88,2.52,17.92c0,0,9.45-3.15,11.85-2.43v7.75" transform="translate(-847.7 -896.78)"/><line class="cls-3" x1="36.19" y1="105.23" x2="24.66" y2="77.65"/><polyline class="cls-3" points="36.19 105.23 20.6 92.72 23.54 86.05 16.54 84.07 18.43 71.32"/><path class="cls-4" d="M880.57,978.09a4,4,0,0,0,1.69,3.84l-2.49,10.35" transform="translate(-847.7 -896.78)"/><path class="cls-5" d="M867.94,1012" transform="translate(-847.7 -896.78)"/><path class="cls-3" d="M866.77,968a87.32,87.32,0,0,0-14,4.51,5,5,0,0,0-3.52,4.33c-0.09,2.53-1.9,25.33-.64,33.53s2.71,8.65,2.71,8.65l19.87-7.84" transform="translate(-847.7 -896.78)"/><polyline class="cls-3" points="36.74 133.19 14.65 133.19 13.23 118.41"/><line class="cls-3" x1="21.32" y1="196.74" x2="18.44" y2="133.19"/><polyline class="cls-3" points="24.66 196.74 31.51 138.06 36.74 138.06"/><line class="cls-3" x1="20.92" y1="196.74" x2="25.06" y2="196.74"/><g class="cls-6"><circle class="cls-3" cx="36.77" cy="61.49" r="20.19"/></g><path class="cls-3" d="M911.36,988.07s-3.25,11.88-2.52,17.92c0,0-9.45-3.15-11.84-2.43v7.75" transform="translate(-847.7 -896.78)"/><line class="cls-3" x1="36.62" y1="105.23" x2="48.16" y2="77.65"/><polyline class="cls-3" points="36.62 105.23 52.22 92.72 49.28 86.05 56.27 84.07 54.38 71.32"/><path class="cls-4" d="M887.64,978.09a4,4,0,0,1-1.7,3.84l2.49,10.35" transform="translate(-847.7 -896.78)"/><path class="cls-5" d="M900.27,1012" transform="translate(-847.7 -896.78)"/><path class="cls-3" d="M901.45,968a87.32,87.32,0,0,1,14,4.51,5,5,0,0,1,3.52,4.33c0.09,2.53,1.89,25.33.63,33.53s-2.7,8.65-2.7,8.65L897,1011.13" transform="translate(-847.7 -896.78)"/><polyline class="cls-3" points="36.08 133.19 58.17 133.19 59.59 118.41"/><line class="cls-3" x1="51.5" y1="196.74" x2="54.38" y2="133.19"/><polyline class="cls-3" points="48.16 196.74 41.31 138.06 36.08 138.06"/><line class="cls-3" x1="51.9" y1="196.74" x2="47.76" y2="196.74"/><g class="cls-7"><circle class="cls-3" cx="36.05" cy="61.49" r="20.19"/></g><path class="cls-8" d="M905.7,945.69a22.1,22.1,0,1,1-44.19,0" transform="translate(-847.7 -896.78)"/><path class="cls-8" d="M905.7,930.72a22.1,22.1,0,0,0-44.19,0" transform="translate(-847.7 -896.78)"/><path class="cls-8" d="M859.18,936.94c-1.31,0-2.36,1.91-2.36,4.27s1,4.27,2.36,4.27" transform="translate(-847.7 -896.78)"/><path class="cls-8" d="M908.23,936.94c1.3,0,2.35,1.91,2.35,4.27s-1.05,4.27-2.35,4.27" transform="translate(-847.7 -896.78)"/><g class="cls-9"><ellipse class="cls-8" cx="35.94" cy="41.37" rx="22.65" ry="36.25"/></g><path class="cls-10" d="M905.62,935c0.42-6.13-3.52-19.24-8.5-21s-8.91,1.13-14.09,1.13-6.7-3.58-12.91-.91c-4.61,2-10.08,11.22-8.84,23.33-9.1-16.77,1.65-26.08,1.65-26.08s-10-4.73-3.73-14.72c3.06,5.33,10.76,5.46,24.49,2.74,14-2.77,15.5,10.36,16.75,11.2C916,907.76,905.62,935,905.62,935Z" transform="translate(-847.7 -896.78)"/><polygon class="cls-10" points="48.25 199.87 48.25 206.35 51.73 206.35 51.73 203.51 57.5 206.83 65.56 206.83 65.56 204.38 53.16 199.87 48.25 199.87"/><polygon class="cls-10" points="24.57 199.87 24.57 206.35 21.09 206.35 21.09 203.51 15.32 206.83 7.26 206.83 7.26 204.38 19.66 199.87 24.57 199.87"/><polygon class="cls-11" points="46.12 129.28 26.27 129.28 23.57 98.34 48.81 98.34 46.12 129.28"/><path class="cls-12" d="M871.1,1003.39h7.82a4.86,4.86,0,0,1,0,7.87H871.1" transform="translate(-847.7 -896.78)"/><path class="cls-12" d="M897.23,1003.39h-8a4.8,4.8,0,0,0,0,7.87h8" transform="translate(-847.7 -896.78)"/><line class="cls-8" x1="19.31" y1="38.41" x2="32.02" y2="38.41"/><line class="cls-8" x1="19.31" y1="43.99" x2="32.02" y2="43.99"/><path class="cls-10" d="M877.42,939.13c0,1.26-1.75,1.31-3.9,1.31s-3.9,0-3.9-1.31,1.74-2.28,3.9-2.28S877.42,937.86,877.42,939.13Z" transform="translate(-847.7 -896.78)"/><line class="cls-8" x1="39.49" y1="38.41" x2="52.2" y2="38.41"/><line class="cls-8" x1="39.49" y1="43.99" x2="52.2" y2="43.99"/><path class="cls-10" d="M897.6,939.13c0,1.26-1.75,1.31-3.9,1.31s-3.9,0-3.9-1.31,1.74-2.28,3.9-2.28S897.6,937.86,897.6,939.13Z" transform="translate(-847.7 -896.78)"/><path class="cls-10" d="M885.07,927.8c-1.81-1.81,1.89-5.67,7.95-5.95a7.29,7.29,0,0,1,7.19,4.91s-5.33-4.63-9.64-2.22C888.08,925.93,887.75,930.49,885.07,927.8Z" transform="translate(-847.7 -896.78)"/><path class="cls-10" d="M880.69,931c0.29,2.54-5,3.26-9.92-.28a7.29,7.29,0,0,1-2.58-8.32s1.29,6.94,6.16,7.73C877.16,930.56,880.25,927.2,880.69,931Z" transform="translate(-847.7 -896.78)"/><path class="cls-8" d="M872,956.17s7-6.15,12.88-2.87S895,955,895,955" transform="translate(-847.7 -896.78)"/><path class="cls-3" d="M878.51,959a8.92,8.92,0,0,1,9.82,0" transform="translate(-847.7 -896.78)"/></svg>