<svg id="Layer_1" data-name="Layer 1" xmlns="http://www.w3.org/2000/svg" viewBox="0 0 22 22"><defs><style>.cls-1{fill:#a0b9cc;}</style></defs><title>pinter-darkblue</title><path class="cls-1" d="M145.33,3193.34H130.66A3.67,3.67,0,0,0,127,3197v14.67a3.67,3.67,0,0,0,3.66,3.67h14.67a3.67,3.67,0,0,0,3.67-3.67V3197A3.67,3.67,0,0,0,145.33,3193.34Zm-6.27,14.7a4.47,4.47,0,0,1-2.2-1c-0.43,2.26-1,4.43-2.52,5.56-0.48-3.41.71-6,1.26-8.7-0.94-1.58.11-4.77,2.1-4,2.44,1-2.12,5.89.94,6.5s4.5-5.54,2.52-7.55c-2.86-2.9-8.33-.07-7.66,4.09,0.16,1,1.21,1.33.42,2.73-1.83-.41-2.38-1.85-2.31-3.78a6.16,6.16,0,0,1,5.56-5.66c3.45-.38,6.68,1.26,7.13,4.51C144.81,3204.36,142.75,3208.32,139.06,3208Z" transform="translate(-126.99 -3193.34)"/></svg>