<svg id="content" xmlns="http://www.w3.org/2000/svg" viewBox="0 0 207.68 239.29"><defs><style>.cls-1{fill:#fff;}.cls-11,.cls-12,.cls-14,.cls-2,.cls-3,.cls-4,.cls-5,.cls-6,.cls-7,.cls-8,.cls-9{fill:none;}.cls-2,.cls-3,.cls-4,.cls-5,.cls-6,.cls-7,.cls-8{stroke:#224056;stroke-miterlimit:10;}.cls-14,.cls-2,.cls-3,.cls-4,.cls-5,.cls-6,.cls-7,.cls-8,.cls-9{stroke-width:2px;}.cls-3{stroke-dasharray:1.99 4.98;}.cls-4{stroke-dasharray:1.99 4.98;}.cls-5{stroke-dasharray:1.99 4.98;}.cls-6{stroke-dasharray:1.99 4.98;}.cls-7{stroke-dasharray:1.99 4.98;}.cls-8{stroke-dasharray:1.99 4.98;}.cls-9{stroke:#ed9935;}.cls-11,.cls-12,.cls-14,.cls-9{stroke-linecap:round;stroke-linejoin:round;}.cls-10{fill:#ed9935;}.cls-11,.cls-14{stroke:#fff;}.cls-11{stroke-width:4px;}.cls-12{stroke:#6cc2dd;}.cls-13{fill:#6cc2dd;}.cls-15{fill:#bdcfd9;}</style></defs><title>scope-email</title><polygon class="cls-1" points="206.68 60.81 206.21 179.29 103.36 238.14 1 178.49 1.46 59.99 104.31 1.16 206.68 60.81"/><polyline class="cls-2" points="205.82 60.3 206.68 60.81 206.68 61.81"/><line class="cls-3" x1="206.66" y1="66.79" x2="206.23" y2="175.8"/><polyline class="cls-2" points="206.22 178.29 206.21 179.29 205.35 179.79"/><line class="cls-4" x1="201.02" y1="182.26" x2="106.39" y2="236.4"/><polyline class="cls-2" points="104.22 237.64 103.36 238.14 102.49 237.63"/><line class="cls-5" x1="98.19" y1="235.13" x2="4.02" y2="180.24"/><polyline class="cls-2" points="1.87 178.99 1 178.49 1.01 177.49"/><line class="cls-6" x1="1.03" y1="172.51" x2="1.45" y2="63.48"/><polyline class="cls-2" points="1.46 60.99 1.46 59.99 2.33 59.5"/><line class="cls-7" x1="6.65" y1="57.02" x2="101.28" y2="2.89"/><polyline class="cls-2" points="103.44 1.65 104.31 1.16 105.17 1.66"/><line class="cls-8" x1="109.47" y1="4.16" x2="203.67" y2="59.05"/><line class="cls-9" x1="82.64" y1="186.99" x2="103.22" y2="186.99"/><line class="cls-9" x1="93" y1="174.59" x2="103.22" y2="174.59"/><line class="cls-9" x1="72.58" y1="199.39" x2="103.22" y2="199.39"/><rect class="cls-10" x="114.29" y="160.9" width="72.44" height="39.36"/><polyline class="cls-11" points="115.7 160.98 150.64 179.97 185.58 160.98"/><line class="cls-11" x1="115.7" y1="199.31" x2="139.78" y2="176.78"/><line class="cls-11" x1="185.58" y1="199.31" x2="161.5" y2="176.78"/><line class="cls-12" x1="53.56" y1="153.82" x2="61.49" y2="153.82"/><line class="cls-12" x1="49.67" y1="160.41" x2="61.49" y2="160.41"/><rect class="cls-13" x="65.76" y="145.56" width="27.94" height="15.18"/><polyline class="cls-14" points="66.31 145.59 79.78 152.91 93.26 145.59"/><line class="cls-14" x1="66.31" y1="160.38" x2="75.6" y2="151.69"/><line class="cls-14" x1="93.26" y1="160.38" x2="83.97" y2="151.69"/><polygon class="cls-15" points="83.08 20.65 104.44 8.99 125.79 20.65 83.08 20.65"/></svg>