<svg id="content" xmlns="http://www.w3.org/2000/svg" viewBox="0 0 207.68 239.29"><defs><style>.cls-1{fill:#fff;}.cls-2,.cls-3,.cls-4,.cls-5,.cls-6,.cls-7,.cls-8{fill:none;stroke:#224056;stroke-miterlimit:10;stroke-width:2px;}.cls-3{stroke-dasharray:1.99 4.98;}.cls-4{stroke-dasharray:1.99 4.98;}.cls-5{stroke-dasharray:1.99 4.98;}.cls-6{stroke-dasharray:1.99 4.98;}.cls-7{stroke-dasharray:1.99 4.98;}.cls-8{stroke-dasharray:1.99 4.98;}.cls-9{fill:#ed9935;}.cls-10{fill:#6cc2dd;}</style></defs><title>scope-poster</title><polygon class="cls-1" points="206.68 60.81 206.21 179.29 103.36 238.14 1 178.49 1.46 59.99 104.31 1.16 206.68 60.81"/><polyline class="cls-2" points="205.82 60.3 206.68 60.81 206.68 61.81"/><line class="cls-3" x1="206.66" y1="66.79" x2="206.23" y2="175.8"/><polyline class="cls-2" points="206.22 178.29 206.21 179.29 205.34 179.79"/><line class="cls-4" x1="201.02" y1="182.26" x2="106.39" y2="236.4"/><polyline class="cls-2" points="104.23 237.64 103.36 238.14 102.49 237.63"/><line class="cls-5" x1="98.19" y1="235.13" x2="4.02" y2="180.24"/><polyline class="cls-2" points="1.87 178.99 1 178.49 1.01 177.49"/><line class="cls-6" x1="1.03" y1="172.51" x2="1.45" y2="63.48"/><polyline class="cls-2" points="1.46 60.99 1.46 59.99 2.33 59.5"/><line class="cls-7" x1="6.65" y1="57.02" x2="101.28" y2="2.89"/><polyline class="cls-2" points="103.44 1.65 104.31 1.16 105.17 1.66"/><line class="cls-8" x1="109.47" y1="4.16" x2="203.67" y2="59.05"/><rect class="cls-1" x="117.14" y="214.88" width="51.66" height="4.07"/><rect class="cls-1" x="119.56" y="139.04" width="46.82" height="79.91"/><path class="cls-9" d="M409.64,2266.89H399c-2.94,0-5.33.58-5.33,1.31s2.39,1.31,5.33,1.31h10.66c2.94,0,5.33-.59,5.33-1.31S412.59,2266.89,409.64,2266.89Z" transform="translate(-248.26 -2054.1)"/><path class="cls-9" d="M415.92,2267.11v-73.56h1.31a1.31,1.31,0,0,0,0-2.62H364.85a1.31,1.31,0,0,0,0,2.62h1.31v73.56a3.94,3.94,0,0,0-2.62,3.7v2.62a1.31,1.31,0,0,0,1.31,1.31h52.38a1.31,1.31,0,0,0,1.31-1.31v-2.62A3.94,3.94,0,0,0,415.92,2267.11Zm0,5H366.16v-1.31a1.31,1.31,0,0,1,1.31-1.31h30.12a1.31,1.31,0,1,0,0-2.62H368.78v-73.33H413.3v73.33h-2.62a1.31,1.31,0,1,0,0,2.62h3.93a1.31,1.31,0,0,1,1.31,1.31v1.31Z" transform="translate(-248.26 -2054.1)"/><path class="cls-9" d="M410.68,2223.68a14.42,14.42,0,0,0-14.41-14.41,1.31,1.31,0,0,0-1.31,1.31v6.55h0v6.55s0,0.08,0,.13a0.23,0.23,0,0,0,0,.05V2224l0,0.06,0,0.05a0.3,0.3,0,0,0,0,.06l0,0.05,0,0.06,0,0.05,0,0.06,0,0.05,0,0,0.08,0.09h0l0.09,0.08,0,0,0.06,0,0.06,0,0.05,0,0.06,0,0.06,0,0.06,0,0.06,0,0.06,0,0.06,0h13.35A1.31,1.31,0,0,0,410.68,2223.68Zm-4.06-5.65-4.34,4.34h-2.84l6-6A11.85,11.85,0,0,1,406.62,2218Zm-9-.36,4.34-4.34a12,12,0,0,1,1.7,1.14l-6,6v-2.85Zm1.69-5.39-1.69,1.69v-2A11.93,11.93,0,0,1,399.27,2212.28Zm6.71,10.09,1.69-1.69a12.52,12.52,0,0,1,.32,1.69h-2Z" transform="translate(-248.26 -2054.1)"/><path class="cls-10" d="M405.44,2228.91a1.31,1.31,0,0,0-1.31-1.31H392.35v-11.79a1.31,1.31,0,0,0-1.31-1.31A14.41,14.41,0,1,0,405.44,2228.91Zm-26.19,0a11.81,11.81,0,0,1,10.48-11.71v11.71a1.31,1.31,0,0,0,1.31,1.31h11.71A11.79,11.79,0,0,1,379.25,2228.91Z" transform="translate(-248.26 -2054.1)"/><path class="cls-9" d="M377.94,2248.56h-2.62a1.31,1.31,0,0,0,0,2.62h2.62A1.31,1.31,0,0,0,377.94,2248.56Z" transform="translate(-248.26 -2054.1)"/><path class="cls-9" d="M377.94,2253.79h-2.62a1.31,1.31,0,1,0,0,2.62h2.62A1.31,1.31,0,1,0,377.94,2253.79Z" transform="translate(-248.26 -2054.1)"/><path class="cls-9" d="M406.75,2248.56H383.18a1.31,1.31,0,1,0,0,2.62h23.57A1.31,1.31,0,0,0,406.75,2248.56Z" transform="translate(-248.26 -2054.1)"/><path class="cls-9" d="M406.75,2253.79H383.18a1.31,1.31,0,1,0,0,2.62h23.57A1.31,1.31,0,1,0,406.75,2253.79Z" transform="translate(-248.26 -2054.1)"/><path class="cls-9" d="M377.94,2259h-2.62a1.31,1.31,0,0,0,0,2.63h2.62A1.31,1.31,0,0,0,377.94,2259Z" transform="translate(-248.26 -2054.1)"/><path class="cls-9" d="M406.75,2259H383.18a1.31,1.31,0,1,0,0,2.63h23.57A1.31,1.31,0,0,0,406.75,2259Z" transform="translate(-248.26 -2054.1)"/><path class="cls-10" d="M377.94,2206.65a3.93,3.93,0,1,0-3.93-3.93A3.93,3.93,0,0,0,377.94,2206.65Zm0-5.24a1.26,1.26,0,0,1,.65.18A1.31,1.31,0,1,1,377.94,2201.41Z" transform="translate(-248.26 -2054.1)"/><path class="cls-10" d="M385.8,2204h21a1.31,1.31,0,1,0,0-2.62h-21A1.31,1.31,0,1,0,385.8,2204Z" transform="translate(-248.26 -2054.1)"/><rect class="cls-10" x="55.6" y="182.9" width="12.04" height="16.17"/><rect class="cls-10" x="88.56" y="178.75" width="12.04" height="20.33"/><rect class="cls-10" x="72.08" y="172.72" width="12.04" height="26.36"/><path class="cls-9" d="M342.94,2218.73l1.7,3.46,3.82,0.56-2.76,2.69,0.65,3.81-3.41-1.8-3.41,1.8,0.65-3.81-2.76-2.69,3.81-.56Z" transform="translate(-248.26 -2054.1)"/><path class="cls-9" d="M326.43,2212.73l1.71,3.46,3.82,0.55-2.76,2.69,0.65,3.8-3.41-1.79-3.42,1.79,0.65-3.8-2.76-2.69,3.82-.55Z" transform="translate(-248.26 -2054.1)"/><path class="cls-9" d="M309.68,2222.76l1.7,3.46,3.82,0.56-2.76,2.69,0.65,3.8-3.42-1.8-3.42,1.8,0.65-3.8-2.76-2.69,3.82-.56Z" transform="translate(-248.26 -2054.1)"/></svg>