<svg id="content" xmlns="http://www.w3.org/2000/svg" viewBox="0 0 207.68 239.29"><defs><style>.cls-1{fill:#fff;}.cls-11,.cls-2,.cls-3,.cls-4,.cls-5,.cls-6,.cls-7,.cls-8{fill:none;stroke-miterlimit:10;}.cls-2,.cls-3,.cls-4,.cls-5,.cls-6,.cls-7,.cls-8{stroke:#224056;stroke-width:2px;}.cls-3{stroke-dasharray:1.99 4.98;}.cls-4{stroke-dasharray:1.99 4.98;}.cls-5{stroke-dasharray:1.99 4.98;}.cls-6{stroke-dasharray:1.99 4.98;}.cls-7{stroke-dasharray:1.99 4.98;}.cls-8{stroke-dasharray:1.99 4.98;}.cls-9{fill:#6cc2dd;}.cls-10{fill:#ed9935;}.cls-11{stroke:#6cc2dd;}</style></defs><title>scope-socials</title><polygon class="cls-1" points="206.68 60.81 206.21 179.29 103.36 238.14 1 178.49 1.46 59.99 104.31 1.16 206.68 60.81"/><polyline class="cls-2" points="205.82 60.3 206.68 60.81 206.68 61.81"/><line class="cls-3" x1="206.66" y1="66.79" x2="206.23" y2="175.8"/><polyline class="cls-2" points="206.22 178.29 206.21 179.29 205.35 179.79"/><line class="cls-4" x1="201.02" y1="182.26" x2="106.39" y2="236.4"/><polyline class="cls-2" points="104.22 237.64 103.36 238.14 102.49 237.63"/><line class="cls-5" x1="98.19" y1="235.13" x2="4.02" y2="180.24"/><polyline class="cls-2" points="1.87 178.99 1 178.49 1.01 177.49"/><line class="cls-6" x1="1.03" y1="172.51" x2="1.45" y2="63.48"/><polyline class="cls-2" points="1.46 60.99 1.46 59.99 2.33 59.5"/><line class="cls-7" x1="6.65" y1="57.02" x2="101.28" y2="2.89"/><polyline class="cls-2" points="103.44 1.65 104.31 1.16 105.17 1.66"/><line class="cls-8" x1="109.47" y1="4.16" x2="203.67" y2="59.05"/><path id="DZone" class="cls-9" d="M729.93,2006.73a5.92,5.92,0,0,0,7-2.1l21.2,17.64a3.35,3.35,0,1,0,6.25,2.42,3.43,3.43,0,0,0,0-2.46l37.3-19.34a3.93,3.93,0,0,0,.91.57,3.15,3.15,0,0,0,2.3-5.87,3.11,3.11,0,0,0-3.23.61l-21.18-14.79a5.55,5.55,0,1,0-9.78-5.09,5.9,5.9,0,0,0-.4,1.63l-20.8.38a2.86,2.86,0,0,0-1.65-1.64,3,3,0,0,0-3.88,1.77,3.07,3.07,0,0,0,.23,2.7l-8.56,13.18a5.28,5.28,0,0,0-1.3-.73A6,6,0,0,0,729.93,2006.73Zm30.46,13.47-5.71-17.72,12.92-.14-6.18,17.75A3.92,3.92,0,0,0,760.39,2020.19Zm2.09,0.11,6.27-18,5.89-.07a3.72,3.72,0,0,0,.5,1.42l-11.72,17.23A4.25,4.25,0,0,0,762.48,2020.3Zm12.39-19.69a3.68,3.68,0,0,0-.19.61l-5.57.05,5.37-15.47a6.18,6.18,0,0,0,1.37.15l0.87,12.76A3.39,3.39,0,0,0,774.87,2000.61ZM771,1983.25a5.64,5.64,0,0,0,2.44,2.22l-5.5,15.82-13.6.16-2.77-8.58Zm-17.51,18.21-15.5.17a6.13,6.13,0,0,0-.16-2l13-6.43Zm-15.68,1.21,16-.17,5.77,18a3.37,3.37,0,0,0-1.14,1.05l-21.16-17.6c0.09-.21.18-0.41,0.26-0.62S737.76,2002.88,737.83,2002.67ZM764,2021.52l0,0,11.7-17.2a3.33,3.33,0,0,0,5.45-1.24,3.49,3.49,0,0,0,.2-0.88l19.62-.22a2.1,2.1,0,0,0,.19.32Zm37.12-22.73a3.94,3.94,0,0,0-.3.58,3,3,0,0,0-.17,1.54l-19.36.22a3.43,3.43,0,0,0-2-2.46,3.55,3.55,0,0,0-1.71-.18l-0.86-12.62a5.72,5.72,0,0,0,3.29-1.82Zm-30.84-18.06a7.35,7.35,0,0,0,.42,1.78l-19.34,9.58-2.68-8.29a3.13,3.13,0,0,0,.84-1.17,3.18,3.18,0,0,0,.21-1.55Zm-25.56,3a2.78,2.78,0,0,0,.89.57,3,3,0,0,0,2.39-.09l2.63,8.21-13,6.43a5.7,5.7,0,0,0-1.35-2.06Z" transform="translate(-686.29 -1826.75)"/><circle class="cls-1" cx="170.55" cy="197.53" r="9.93"/><path class="cls-10" d="M849.92,1979.46a2.44,2.44,0,0,0,2.6,2.16c2.16,0,2.81-.87,2.81-2.16V1979a3.42,3.42,0,0,0-1.51-1.51,9.59,9.59,0,0,0-1.08-.22c-1.52,0-2.82.87-2.82,2.17h0Zm0,0" transform="translate(-686.29 -1826.75)"/><path class="cls-10" d="M854.46,1972.32a2.55,2.55,0,0,0-2.16-2.38c-1.09,0-1.73,1.08-1.52,2.38a2.55,2.55,0,0,0,2.17,2.38,1.92,1.92,0,0,0,1.51-2.38h0Zm0,0" transform="translate(-686.29 -1826.75)"/><path class="cls-10" d="M844.72,1988.56l3.68-3.68a12,12,0,1,0-4.55-9.31,11.25,11.25,0,0,0,2.81,7.58l-3.68,3.68,1.73,1.73h0Zm13.2-16.89h2.38v-2.38h0.87v2.38h2.38v0.87h-2.38v2.38h-0.87v-2.38h-2.38v-0.87Zm-5.41,4.11a0.8,0.8,0,0,1,.22-0.65H852.3a2.92,2.92,0,0,1-3-2.81c0-1.51,1.73-2.82,3.46-2.82h3.89l-0.87.65h-1.3c0.87,0.22,1.3,1.3,1.3,2.38a3,3,0,0,1-1.08,2.16,1.31,1.31,0,0,0-.86,1.09,2.1,2.1,0,0,0,1.08,1.3,2.64,2.64,0,0,1,1.3,2.59c0,1.52-1.3,2.82-3.89,2.82-2.17,0-4.12-.87-4.12-2.38s1.73-2.81,3.9-2.81h0.65c0-.65-0.21-1.08-0.21-1.52h0Zm0,0" transform="translate(-686.29 -1826.75)"/><path class="cls-10" d="M856,2013.24a11.66,11.66,0,0,0-7.58,2.81l-3.68-3.67a10.27,10.27,0,0,1-1.51,1.51l3.68,3.68a12.14,12.14,0,1,0,9.09-4.33h0Zm-3.46,17.54h-2.38v-7.58h2.38v7.58Zm-1.08-8.66h0a1.31,1.31,0,1,1,1.51-1.3,1.43,1.43,0,0,1-1.51,1.3h0Zm10.82,8.66h-2.81v-3.89c0-1.08-.44-1.73-1.3-1.73a1.45,1.45,0,0,0-1.3.86v4.77h-2.6v-7.58h2.6v1.08a2.81,2.81,0,0,1,2.38-1.3c1.73,0,3,1.08,3,3.46v4.33Zm0,0" transform="translate(-686.29 -1826.75)"/><path class="cls-10" d="M817.88,2012.38l-3.68,3.68a12,12,0,1,0,4.55,9.31,11.67,11.67,0,0,0-2.81-7.58l3.68-3.68-1.73-1.73h0Zm-6.07,11a7.74,7.74,0,0,1-7.79,7.79,6.66,6.66,0,0,1-4.12-1.3h0.65a6.55,6.55,0,0,0,3.46-1.08,3,3,0,0,1-2.6-1.95h1.09a2.57,2.57,0,0,1-2.17-2.6,3.09,3.09,0,0,0,1.3.43,2.85,2.85,0,0,1-1.3-2.16,3.11,3.11,0,0,1,.43-1.3,6.87,6.87,0,0,0,5.62,2.81v-0.64a2.87,2.87,0,0,1,2.82-2.82,2.75,2.75,0,0,1,1.95.87,15.08,15.08,0,0,0,1.73-.65,2.92,2.92,0,0,1-1.3,1.51,3.1,3.1,0,0,0,1.51-.43,3.61,3.61,0,0,1-1.3,1.3v0.22h0Zm0,0" transform="translate(-686.29 -1826.75)"/><path class="cls-10" d="M806.62,1987.69a11.67,11.67,0,0,0,7.58-2.81l3.68,3.68a9.41,9.41,0,0,1,1.51-1.51l-3.68-3.68a12,12,0,0,0-9.31-19.7,11.92,11.92,0,0,0-11.9,12.12,12.06,12.06,0,0,0,12.12,11.91h0Zm-2.81-14.07h1.3v-1.3c0-1.73.65-2.82,2.81-2.82h1.73v2.16h-1.08c-0.87,0-.87.22-0.87,0.87v1.08h1.95l-0.22,2.17h-1.95v6.06h-2.59v-6.06h-1.3v-2.17h0.22Zm0,0" transform="translate(-686.29 -1826.75)"/><path class="cls-9" d="M842.34,2006.53a1.17,1.17,0,0,0-.87-0.65c-1.95-.65-3.68-1.08-5.63-1.73a1.21,1.21,0,0,1-.65-1.3c0-.43,0-0.65-0.43-0.65-0.22,0,0,0-.22-0.21a5.75,5.75,0,0,1-.22-1.52c0-.21.22-0.22,0.22-0.43a5.19,5.19,0,0,0,.87-2.6,0.21,0.21,0,0,0,.22-0.22,1.63,1.63,0,0,0,.22-1.08c0.22-.43.22-1.08-0.22-1.08-0.22.21-.22,0-0.22-0.43V1992a2,2,0,0,0-1.08-1.72,3.12,3.12,0,0,0-1.08-.65,0.41,0.41,0,0,1,0-.65,0.83,0.83,0,0,0,.43-0.43h-0.22a12.6,12.6,0,0,0-2.17.43,7.52,7.52,0,0,0-3,1.3,2.26,2.26,0,0,0-1.09,1.95v2.6c0,0.22,0,.43-0.22.22-0.65,0-.22.87-0.22,1.08a2.28,2.28,0,0,0,.43,1.09,0.21,0.21,0,0,0,.22.22,12.26,12.26,0,0,0,.87,2.6,0.75,0.75,0,0,1,.22.43,3.66,3.66,0,0,1-.22,1.51,0.21,0.21,0,0,1-.22.22c-0.43,0-.43.22-0.43,0.65a1.46,1.46,0,0,1-.65,1.3,51.78,51.78,0,0,1-5.41,1.73,2.32,2.32,0,0,0-1.08.65l-1.08,2.6c4.33,0,6.5,2.6,11,3.46h2.17c4.54-.64,7.79-3.46,10.83-3.46Zm0,0" transform="translate(-686.29 -1826.75)"/><line class="cls-11" x1="139.07" y1="174.55" x2="120.12" y2="174.55"/></svg>