<svg id="content" xmlns="http://www.w3.org/2000/svg" viewBox="0 0 723.34 658.45"><defs><style>.cls-1{fill:none;}.cls-1,.cls-5{stroke:#688a94;}.cls-1,.cls-2,.cls-5{stroke-miterlimit:10;}.cls-1,.cls-2{stroke-width:3px;}.cls-2,.cls-5,.cls-7{fill:#fff;}.cls-2{stroke:#224056;}.cls-3{fill:#6cc2dd;}.cls-4{fill:#224056;}.cls-5{stroke-width:2px;}.cls-6{fill:#ed9935;}</style></defs><title>why-line</title><line class="cls-1" x1="14.85" y1="1.5" x2="14.85" y2="653.08"/><line class="cls-1" x1="704.34" y1="2.32" x2="704.34" y2="343.21"/><polygon class="cls-2" points="721.8 343.52 704.3 353.58 686.84 343.46 686.87 323.28 704.37 313.21 721.84 323.34 721.8 343.52"/><polygon class="cls-3" points="716.31 340.34 704.31 347.24 692.34 340.3 692.36 326.45 704.36 319.56 716.34 326.5 716.31 340.34"/><circle class="cls-4" cx="704.34" cy="333.4" r="5.25"/><line class="cls-1" x1="630.44" y1="1.5" x2="705.79" y2="1.5"/><line class="cls-1" x1="233.46" y1="1.5" x2="14.34" y2="1.5"/><rect class="cls-5" x="3.65" y="76.76" width="22" height="22"/><path class="cls-6" d="M82.46,886a4,4,0,0,1-3.1-1.42l-7.5-9a3.47,3.47,0,0,1-.79-2.71,3.6,3.6,0,0,1,1.55-2.48,4.09,4.09,0,0,1,2.33-.72,4,4,0,0,1,3.11,1.42L82.15,876l11.66-17a4,4,0,0,1,3.31-1.69,4.13,4.13,0,0,1,2,.53,3.69,3.69,0,0,1,1.8,2.36,3.44,3.44,0,0,1-.53,2.75L85.77,884.3A4,4,0,0,1,82.63,886H82.46Z" transform="translate(-70.04 -789.55)"/><path class="cls-7" d="M97.12,858.23a3.13,3.13,0,0,1,1.54.4,2.53,2.53,0,0,1,.93,3.67L84.94,883.73A3,3,0,0,1,82.59,885H82.46a3,3,0,0,1-2.33-1.06l-7.5-9a2.52,2.52,0,0,1,.56-3.73,3.11,3.11,0,0,1,1.76-.54,3,3,0,0,1,2.34,1.06l4.93,5.93,12.4-18.14a3,3,0,0,1,2.49-1.25m0-2h0A5,5,0,0,0,93,858.35l-10.91,16-3.23-3.89A5,5,0,0,0,75,868.64a5.09,5.09,0,0,0-2.89.89,4.66,4.66,0,0,0-2,3.18,4.46,4.46,0,0,0,1,3.49l7.5,9A5,5,0,0,0,82.46,887h0.18a5,5,0,0,0,4-2.13l14.65-21.43a4.43,4.43,0,0,0,.68-3.53,4.69,4.69,0,0,0-2.28-3,5.13,5.13,0,0,0-2.53-.66h0Z" transform="translate(-70.04 -789.55)"/><rect class="cls-5" x="3.65" y="200.36" width="22" height="22"/><path class="cls-6" d="M82.46,1009.59a4,4,0,0,1-3.1-1.42l-7.5-9a3.47,3.47,0,0,1-.79-2.71A3.6,3.6,0,0,1,72.62,994a4.09,4.09,0,0,1,2.33-.72,4,4,0,0,1,3.11,1.42l4.08,4.91,11.66-17a4,4,0,0,1,3.31-1.69,4.14,4.14,0,0,1,2,.53,3.7,3.7,0,0,1,1.8,2.36,3.44,3.44,0,0,1-.53,2.75L85.77,1007.9a4,4,0,0,1-3.13,1.69H82.46Z" transform="translate(-70.04 -789.55)"/><path class="cls-7" d="M97.12,981.83a3.13,3.13,0,0,1,1.54.4,2.53,2.53,0,0,1,.93,3.67l-14.65,21.43a3,3,0,0,1-2.35,1.25H82.46a3,3,0,0,1-2.33-1.06l-7.5-9a2.52,2.52,0,0,1,.56-3.74,3.11,3.11,0,0,1,1.76-.54,3,3,0,0,1,2.34,1.06l4.93,5.93,12.4-18.14a3,3,0,0,1,2.49-1.25m0-2h0A5,5,0,0,0,93,982l-10.91,16L78.84,994A5,5,0,0,0,75,992.24a5.08,5.08,0,0,0-2.89.89,4.66,4.66,0,0,0-2,3.18,4.46,4.46,0,0,0,1,3.49l7.5,9a5,5,0,0,0,3.87,1.78h0.21a5,5,0,0,0,3.92-2.13L101.24,987a4.43,4.43,0,0,0,.68-3.53,4.7,4.7,0,0,0-2.28-3,5.13,5.13,0,0,0-2.53-.66h0Z" transform="translate(-70.04 -789.55)"/><rect class="cls-5" x="3.65" y="344.45" width="22" height="22"/><path class="cls-6" d="M82.46,1153.69a4,4,0,0,1-3.1-1.42l-7.5-9a3.47,3.47,0,0,1-.79-2.71,3.6,3.6,0,0,1,1.55-2.48,4.09,4.09,0,0,1,2.33-.72,4,4,0,0,1,3.11,1.42l4.08,4.91,11.66-17a4,4,0,0,1,3.31-1.69,4.14,4.14,0,0,1,2,.53,3.7,3.7,0,0,1,1.8,2.36,3.44,3.44,0,0,1-.53,2.75L85.77,1152a4,4,0,0,1-3.13,1.69H82.46Z" transform="translate(-70.04 -789.55)"/><path class="cls-7" d="M97.12,1125.92a3.13,3.13,0,0,1,1.54.4,2.53,2.53,0,0,1,.93,3.67l-14.65,21.43a3,3,0,0,1-2.35,1.25H82.46a3,3,0,0,1-2.33-1.06l-7.5-9a2.52,2.52,0,0,1,.56-3.74,3.11,3.11,0,0,1,1.76-.54,3,3,0,0,1,2.34,1.06l4.93,5.93,12.4-18.14a3,3,0,0,1,2.49-1.25m0-2h0A5,5,0,0,0,93,1126l-10.91,16-3.23-3.89a5,5,0,0,0-3.88-1.78,5.08,5.08,0,0,0-2.89.89,4.66,4.66,0,0,0-2,3.18,4.46,4.46,0,0,0,1,3.48l7.5,9a5,5,0,0,0,3.87,1.78h0.21a5,5,0,0,0,3.92-2.13l14.65-21.43a4.43,4.43,0,0,0,.68-3.53,4.7,4.7,0,0,0-2.28-3,5.14,5.14,0,0,0-2.53-.66h0Z" transform="translate(-70.04 -789.55)"/><rect class="cls-5" x="3.65" y="635.45" width="22" height="22"/><path class="cls-6" d="M82.46,1444.69a4,4,0,0,1-3.1-1.42l-7.5-9a3.47,3.47,0,0,1-.79-2.71,3.6,3.6,0,0,1,1.55-2.48,4.09,4.09,0,0,1,2.33-.72,4,4,0,0,1,3.11,1.42l4.08,4.91,11.66-17a4,4,0,0,1,3.31-1.69,4.14,4.14,0,0,1,2,.53,3.7,3.7,0,0,1,1.8,2.36,3.44,3.44,0,0,1-.53,2.75L85.77,1443a4,4,0,0,1-3.13,1.69H82.46Z" transform="translate(-70.04 -789.55)"/><path class="cls-7" d="M97.12,1416.92a3.13,3.13,0,0,1,1.54.4,2.53,2.53,0,0,1,.93,3.67l-14.65,21.43a3,3,0,0,1-2.35,1.25H82.46a3,3,0,0,1-2.33-1.06l-7.5-9a2.52,2.52,0,0,1,.56-3.74,3.11,3.11,0,0,1,1.76-.54,3,3,0,0,1,2.34,1.06l4.93,5.93,12.4-18.14a3,3,0,0,1,2.49-1.25m0-2h0A5,5,0,0,0,93,1417l-10.91,16-3.23-3.89a5,5,0,0,0-3.88-1.78,5.08,5.08,0,0,0-2.89.89,4.66,4.66,0,0,0-2,3.18,4.46,4.46,0,0,0,1,3.48l7.5,9a5,5,0,0,0,3.87,1.78h0.21a5,5,0,0,0,3.92-2.13l14.65-21.43a4.43,4.43,0,0,0,.68-3.53,4.7,4.7,0,0,0-2.28-3,5.14,5.14,0,0,0-2.53-.66h0Z" transform="translate(-70.04 -789.55)"/><rect class="cls-5" x="3.65" y="473.9" width="22" height="22"/><path class="cls-6" d="M82.46,1283.13a4,4,0,0,1-3.1-1.42l-7.5-9a3.47,3.47,0,0,1-.79-2.71,3.6,3.6,0,0,1,1.55-2.48,4.09,4.09,0,0,1,2.33-.72,4,4,0,0,1,3.11,1.42l4.08,4.91,11.66-17a4,4,0,0,1,3.31-1.69,4.14,4.14,0,0,1,2,.53,3.7,3.7,0,0,1,1.8,2.36,3.44,3.44,0,0,1-.53,2.75l-14.65,21.43a4,4,0,0,1-3.13,1.69H82.46Z" transform="translate(-70.04 -789.55)"/><path class="cls-7" d="M97.12,1255.37a3.13,3.13,0,0,1,1.54.4,2.53,2.53,0,0,1,.93,3.67l-14.65,21.43a3,3,0,0,1-2.35,1.25H82.46a3,3,0,0,1-2.33-1.06l-7.5-9a2.52,2.52,0,0,1,.56-3.74,3.11,3.11,0,0,1,1.76-.54,3,3,0,0,1,2.34,1.06l4.93,5.93,12.4-18.14a3,3,0,0,1,2.49-1.25m0-2h0a5,5,0,0,0-4.14,2.12l-10.91,16-3.23-3.89a5,5,0,0,0-3.88-1.78,5.08,5.08,0,0,0-2.89.89,4.66,4.66,0,0,0-2,3.18,4.46,4.46,0,0,0,1,3.48l7.5,9a5,5,0,0,0,3.87,1.78h0.21A5,5,0,0,0,86.6,1282l14.65-21.43a4.43,4.43,0,0,0,.68-3.53,4.7,4.7,0,0,0-2.28-3,5.14,5.14,0,0,0-2.53-.66h0Z" transform="translate(-70.04 -789.55)"/></svg>