<svg id="bottom" xmlns="http://www.w3.org/2000/svg" viewBox="0 0 201.47 68.2"><defs><style>.cls-1,.cls-2{fill:#224056;}.cls-2{opacity:0.1;}</style></defs><title>work-process</title><g id="Design"><polygon class="cls-1" points="94.01 63.8 87.79 65.42 87.72 65.22 93.98 62.57 94.01 63.8"/><ellipse class="cls-1" cx="87.91" cy="66.38" rx="0.85" ry="0.82"/><ellipse class="cls-1" cx="87.91" cy="66.39" rx="0.66" ry="0.64"/><ellipse class="cls-1" cx="87.91" cy="66.39" rx="0.42" ry="0.41"/><path class="cls-1" d="M498,4109.06a1.08,1.08,0,0,1,1.08.92,0.92,0.92,0,0,0,0-.13,1.09,1.09,0,0,0-2.17,0,0.92,0.92,0,0,0,0,.13A1.08,1.08,0,0,1,498,4109.06Z" transform="translate(-410.08 -4043.65)"/><polygon class="cls-1" points="94.66 63.8 100.87 65.42 100.94 65.22 94.66 62.72 94.66 63.8"/><ellipse class="cls-1" cx="100.74" cy="66.38" rx="0.84" ry="0.82"/><ellipse class="cls-1" cx="100.74" cy="66.39" rx="0.67" ry="0.64"/><ellipse class="cls-1" cx="100.74" cy="66.39" rx="0.43" ry="0.41"/><path class="cls-1" d="M510.83,4109.06a1.07,1.07,0,0,0-1.07.92,1,1,0,0,1,0-.13,1.08,1.08,0,0,1,2.16,0,1.26,1.26,0,0,1,0,.13A1.07,1.07,0,0,0,510.83,4109.06Z" transform="translate(-410.08 -4043.65)"/><rect class="cls-1" x="90.02" y="49.51" width="8.59" height="1.52"/><rect class="cls-1" x="93.96" y="51.03" width="0.59" height="12.11"/><rect class="cls-1" x="93.87" y="58.51" width="0.79" height="4.21"/><rect class="cls-1" x="93.64" y="59.71" width="1.25" height="4.21"/><path class="cls-1" d="M497.55,4091.6a3.32,3.32,0,0,0,0,.92c0,0.86,3,1.56,6.79,1.56s6.79-.7,6.79-1.56a4.78,4.78,0,0,0,0-1Z" transform="translate(-410.08 -4043.65)"/><ellipse class="cls-1" cx="94.26" cy="47.95" rx="6.79" ry="1.56"/><path class="cls-1" d="M508.28,4078h-8v3.25a46.3,46.3,0,0,1-.36,5.32h8.65c-0.19-3.18-.24-6.87-0.19-5.27C508.39,4081.32,508.36,4079.65,508.28,4078Z" transform="translate(-410.08 -4043.65)"/><path class="cls-1" d="M500.73,4087.24h7.77s5.29,6-3.85,6C504.65,4093.23,495.71,4093.65,500.73,4087.24Z" transform="translate(-410.08 -4043.65)"/><path class="cls-1" d="M501,4104.77l1.73-.1,0.23,2.47s0.17,1.92-.89,2.21c0,0-.87-0.25-0.94-2Z" transform="translate(-410.08 -4043.65)"/><path class="cls-1" d="M501.14,4107.2a5,5,0,0,0,1.83-.12s0.87,3.1-.77,3.21C502.2,4110.29,500.79,4110.24,501.14,4107.2Z" transform="translate(-410.08 -4043.65)"/><path class="cls-1" d="M502.17,4110s-0.92,0-1.09-1.65c0.08,1.93,1.11,2,1.11,2,1-.07,1.07-1.17,1-2.07C503.21,4109.07,503,4109.95,502.17,4110Z" transform="translate(-410.08 -4043.65)"/><ellipse class="cls-1" cx="501.77" cy="4107.74" rx="0.11" ry="0.1" transform="translate(-730.71 -3991.64) rotate(-4.5)"/><path class="cls-1" d="M502.52,4107.69a0.1,0.1,0,0,1-.1.11,0.11,0.11,0,0,1-.11-0.1,0.1,0.1,0,0,1,.1-0.1A0.1,0.1,0,0,1,502.52,4107.69Z" transform="translate(-410.08 -4043.65)"/><ellipse class="cls-1" cx="501.8" cy="4108.14" rx="0.11" ry="0.1" transform="translate(-668.55 -4003.75) rotate(-3.62)"/><path class="cls-1" d="M502.55,4108.1a0.1,0.1,0,0,1-.1.1,0.11,0.11,0,0,1-.11-0.09,0.1,0.1,0,0,1,.1-0.11A0.1,0.1,0,0,1,502.55,4108.1Z" transform="translate(-410.08 -4043.65)"/><path class="cls-1" d="M501.92,4108.49a0.1,0.1,0,0,1-.1.11,0.1,0.1,0,0,1-.11-0.09A0.11,0.11,0,1,1,501.92,4108.49Z" transform="translate(-410.08 -4043.65)"/><path class="cls-1" d="M502.57,4108.45a0.1,0.1,0,0,1-.1.11,0.1,0.1,0,1,1,0-.2A0.1,0.1,0,0,1,502.57,4108.45Z" transform="translate(-410.08 -4043.65)"/><path class="cls-1" d="M502,4108.84a0.1,0.1,0,0,1-.1.11,0.1,0.1,0,0,1-.11-0.1A0.11,0.11,0,0,1,502,4108.84Z" transform="translate(-410.08 -4043.65)"/><ellipse class="cls-1" cx="502.49" cy="4108.81" rx="0.11" ry="0.1" transform="translate(-671.8 -4003.1) rotate(-3.67)"/><path class="cls-1" d="M502.46,4107.69a0,0,0,0,1,0,0l-0.67,0a0,0,0,0,1,0,0h0a0,0,0,0,1,0,0l0.67,0a0,0,0,0,1,0,0h0Z" transform="translate(-410.08 -4043.65)"/><path class="cls-1" d="M502.49,4108.1a0,0,0,0,1,0,0l-0.67,0a0,0,0,0,1,0,0h0a0,0,0,0,1,0,0l0.67,0a0,0,0,0,1,0,0h0Z" transform="translate(-410.08 -4043.65)"/><path class="cls-1" d="M502.51,4108.45a0,0,0,0,1,0,0l-0.68,0a0,0,0,0,1,0,0h0a0,0,0,0,1,0,0l0.68,0a0,0,0,0,1,0,0h0Z" transform="translate(-410.08 -4043.65)"/><path class="cls-1" d="M502.53,4108.8a0,0,0,0,1,0,0l-0.68,0a0,0,0,0,1,0,0h0a0,0,0,0,1,0,0l0.68,0a0,0,0,0,1,0,0h0Z" transform="translate(-410.08 -4043.65)"/><path class="cls-1" d="M502.48,4108.12a0,0,0,0,1-.05,0l-0.69-.36a0,0,0,0,1,0-.05h0a0,0,0,0,1,.05,0l0.69,0.37a0,0,0,0,1,0,0h0Z" transform="translate(-410.08 -4043.65)"/><path class="cls-1" d="M501.74,4108.14a0,0,0,0,1,0,0l0.65-.43a0,0,0,0,1,.06,0h0a0,0,0,0,1,0,0l-0.65.43a0,0,0,0,1-.05,0h0Z" transform="translate(-410.08 -4043.65)"/><path class="cls-1" d="M502.51,4108.49a0,0,0,0,1,0,0l-0.68-.36a0,0,0,0,1,0,0h0a0,0,0,0,1,0,0l0.68,0.35a0,0,0,0,1,0,0h0Z" transform="translate(-410.08 -4043.65)"/><path class="cls-1" d="M501.78,4108.52a0,0,0,0,1,0-.05l0.62-.41a0,0,0,0,1,.05,0h0a0,0,0,0,1,0,0l-0.63.41a0,0,0,0,1,0,0h0Z" transform="translate(-410.08 -4043.65)"/><path class="cls-1" d="M502.52,4108.82a0,0,0,0,1,0,0l-0.68-.31a0,0,0,0,1,0,0h0a0,0,0,0,1,0,0l0.67,0.31a0,0,0,0,1,0,0h0Z" transform="translate(-410.08 -4043.65)"/><path class="cls-1" d="M501.79,4108.85a0,0,0,0,1,0,0l0.62-.37a0,0,0,0,1,.05,0h0a0,0,0,0,1,0,0l-0.62.37a0,0,0,0,1,0,0h0Z" transform="translate(-410.08 -4043.65)"/><path class="cls-1" d="M498.66,4088.42a2,2,0,0,1,1.16-.94,2.51,2.51,0,0,1,1.17,0c1.52,0.31,1.67,1.83,1.73,3,0.09,1.75.31,3.48,0.4,5.23,0.07,1.25.07,2.49,0.08,3.74,0,1.79.08,5.81,0,7.59l-2.54.19a43,43,0,0,1-1.11-6.25,69.93,69.93,0,0,1-1-8.21c0-.79-0.08-1.49-0.11-2.29A5.16,5.16,0,0,1,498.66,4088.42Z" transform="translate(-410.08 -4043.65)"/><path class="cls-1" d="M505.83,4103.42l1.7,0.36-0.47,2.44s-0.37,1.9-1.48,1.9c0,0-.76-0.47-0.35-2.17Z" transform="translate(-410.08 -4043.65)"/><path class="cls-1" d="M505.23,4106a5.06,5.06,0,0,0,1.8.37s0,3.22-1.64,2.89C505.39,4109.23,504,4108.81,505.23,4106Z" transform="translate(-410.08 -4043.65)"/><path class="cls-1" d="M505.44,4108.95s-0.87-.27-0.59-1.87c-0.47,1.88.53,2.18,0.53,2.18,1,0.2,1.35-.85,1.52-1.73C506.7,4108.32,506.29,4109.12,505.44,4108.95Z" transform="translate(-410.08 -4043.65)"/><path class="cls-1" d="M505.79,4106.68a0.1,0.1,0,0,1-.12.08,0.1,0.1,0,1,1,0-.2A0.1,0.1,0,0,1,505.79,4106.68Z" transform="translate(-410.08 -4043.65)"/><path class="cls-1" d="M506.42,4106.81a0.1,0.1,0,0,1-.12.08,0.1,0.1,0,0,1-.07-0.12,0.1,0.1,0,0,1,.13-0.07A0.09,0.09,0,0,1,506.42,4106.81Z" transform="translate(-410.08 -4043.65)"/><path class="cls-1" d="M505.7,4107.08a0.11,0.11,0,0,1-.13.08,0.1,0.1,0,1,1,.05-0.2A0.1,0.1,0,0,1,505.7,4107.08Z" transform="translate(-410.08 -4043.65)"/><path class="cls-1" d="M506.34,4107.21a0.11,0.11,0,0,1-.13.07,0.1,0.1,0,0,1-.09-0.11A0.11,0.11,0,0,1,506.34,4107.21Z" transform="translate(-410.08 -4043.65)"/><path class="cls-1" d="M505.63,4107.43a0.11,0.11,0,0,1-.13.07,0.09,0.09,0,0,1-.08-0.11,0.1,0.1,0,0,1,.12-0.08A0.1,0.1,0,0,1,505.63,4107.43Z" transform="translate(-410.08 -4043.65)"/><path class="cls-1" d="M506.26,4107.55a0.11,0.11,0,0,1-.12.08,0.11,0.11,0,0,1-.09-0.12,0.1,0.1,0,0,1,.12-0.07A0.1,0.1,0,0,1,506.26,4107.55Z" transform="translate(-410.08 -4043.65)"/><path class="cls-1" d="M505.55,4107.77a0.11,0.11,0,0,1-.12.08,0.12,0.12,0,0,1-.09-0.13,0.11,0.11,0,0,1,.13-0.07A0.1,0.1,0,0,1,505.55,4107.77Z" transform="translate(-410.08 -4043.65)"/><path class="cls-1" d="M506.18,4107.9a0.1,0.1,0,0,1-.12.08,0.1,0.1,0,0,1-.07-0.12,0.1,0.1,0,0,1,.12-0.08A0.1,0.1,0,0,1,506.18,4107.9Z" transform="translate(-410.08 -4043.65)"/><path class="cls-1" d="M506.36,4106.79a0,0,0,0,1,0,0l-0.67-.13a0,0,0,0,1,0,0h0a0,0,0,0,1,0,0l0.67,0.13a0,0,0,0,1,0,0h0Z" transform="translate(-410.08 -4043.65)"/><path class="cls-1" d="M506.28,4107.2a0,0,0,0,1,0,0l-0.67-.13a0,0,0,0,1,0,0h0a0,0,0,0,1,0,0l0.67,0.14a0,0,0,0,1,0,0h0Z" transform="translate(-410.08 -4043.65)"/><path class="cls-1" d="M506.21,4107.54a0,0,0,0,1,0,0l-0.65-.13s0,0,0,0h0a0,0,0,0,1,0,0l0.65,0.13a0,0,0,0,1,0,0h0Z" transform="translate(-410.08 -4043.65)"/><path class="cls-1" d="M506.12,4107.89a0,0,0,0,1,0,0l-0.67-.13a0,0,0,0,1,0,0h0a0,0,0,0,1,0,0l0.67,0.14a0,0,0,0,1,0,0h0Z" transform="translate(-410.08 -4043.65)"/><path class="cls-1" d="M506.26,4107.21a0,0,0,0,1,0,0l-0.57-.53a0,0,0,0,1,0,0h0a0,0,0,0,1,0,0l0.57,0.53a0,0,0,0,1,0,0h0Z" transform="translate(-410.08 -4043.65)"/><path class="cls-1" d="M505.55,4107a0,0,0,0,1,0,0l0.75-.24a0,0,0,0,1,0,0h0a0,0,0,0,1,0,0l-0.75.25a0,0,0,0,1,0,0h0Z" transform="translate(-410.08 -4043.65)"/><path class="cls-1" d="M506.19,4107.57a0,0,0,0,1,0,0l-0.56-.52a0,0,0,0,1,0,0h0a0.05,0.05,0,0,1,.06,0l0.54,0.52a0,0,0,0,1,0,0h0Z" transform="translate(-410.08 -4043.65)"/><path class="cls-1" d="M505.47,4107.41a0,0,0,0,1,0-.05l0.71-.23a0,0,0,0,1,0,0h0a0,0,0,0,1,0,0l-0.71.23a0,0,0,0,1-.05,0h0Z" transform="translate(-410.08 -4043.65)"/><path class="cls-1" d="M506.11,4107.9a0,0,0,0,1-.06,0l-0.55-.48s0,0,0,0h0a0,0,0,0,1,0,0l0.57,0.48a0,0,0,0,1,0,0h0Z" transform="translate(-410.08 -4043.65)"/><path class="cls-1" d="M505.4,4107.73a0,0,0,0,1,0,0l0.7-.2a0,0,0,0,1,0,0h0a0,0,0,0,1,0,0l-0.71.2a0,0,0,0,1,0,0h0Z" transform="translate(-410.08 -4043.65)"/><path class="cls-1" d="M508.94,4087.4a2,2,0,0,1,1.19-.61,2.2,2.2,0,0,1,1.06.16c1.81,0.57,1.62,2.25,1.34,3.46-0.41,1.7-1,3.33-1.37,5-0.3,1.22-.88,2.46-1.22,3.65-0.49,1.73-1.82,5.5-2.4,7.2l-2.5-.4c0.27-1.12.79-4.94,1-6.27a62.39,62.39,0,0,1,1.5-7.92c0.18-.78.37-1.5,0.56-2.27A5.79,5.79,0,0,1,508.94,4087.4Z" transform="translate(-410.08 -4043.65)"/><polygon class="cls-1" points="69.17 64.52 62.72 66.2 62.65 66.01 69.15 63.24 69.17 64.52"/><ellipse class="cls-1" cx="62.85" cy="67.2" rx="0.88" ry="0.85"/><path class="cls-1" d="M473.62,4110.86a0.69,0.69,0,1,1-.69-0.67A0.67,0.67,0,0,1,473.62,4110.86Z" transform="translate(-410.08 -4043.65)"/><ellipse class="cls-1" cx="62.85" cy="67.21" rx="0.44" ry="0.43"/><path class="cls-1" d="M472.93,4109.85a1.11,1.11,0,0,1,1.12,1,0.61,0.61,0,0,0,0-.14,1.13,1.13,0,0,0-2.26,0,1.26,1.26,0,0,0,0,.14A1.12,1.12,0,0,1,472.93,4109.85Z" transform="translate(-410.08 -4043.65)"/><polygon class="cls-1" points="69.86 64.52 76.31 66.2 76.38 66.01 69.86 63.4 69.86 64.52"/><ellipse class="cls-1" cx="76.18" cy="67.2" rx="0.88" ry="0.85"/><path class="cls-1" d="M485.57,4110.86a0.69,0.69,0,0,0,1.38,0A0.69,0.69,0,0,0,485.57,4110.86Z" transform="translate(-410.08 -4043.65)"/><ellipse class="cls-1" cx="76.18" cy="67.21" rx="0.44" ry="0.43"/><path class="cls-1" d="M486.26,4109.85a1.11,1.11,0,0,0-1.12,1,1.24,1.24,0,0,1,0-.14,1.13,1.13,0,0,1,2.25,0,1.36,1.36,0,0,1,0,.14A1.12,1.12,0,0,0,486.26,4109.85Z" transform="translate(-410.08 -4043.65)"/><rect class="cls-1" x="65.04" y="49.67" width="8.92" height="1.59"/><rect class="cls-1" x="69.14" y="51.26" width="0.61" height="12.58"/><rect class="cls-1" x="69.04" y="59.03" width="0.82" height="4.37"/><rect class="cls-1" x="68.8" y="60.27" width="1.3" height="4.38"/><path class="cls-1" d="M472.46,4091.7a3.8,3.8,0,0,0,0,1c0,0.89,3.16,1.62,7.06,1.62s7.05-.72,7.05-1.62a4.33,4.33,0,0,0,0-1.07Z" transform="translate(-410.08 -4043.65)"/><path class="cls-1" d="M486.58,4091.7c0,0.89-3.16,1.61-7.05,1.61s-7.06-.72-7.06-1.61,3.16-1.62,7.06-1.62S486.58,4090.81,486.58,4091.7Z" transform="translate(-410.08 -4043.65)"/><path class="cls-1" d="M475.83,4092.94a1.45,1.45,0,0,0-1-.79s-1.64-.64-1-1.83a4.28,4.28,0,0,1,4.91-2.34l1,0.66s1-1.45,3.4-.69c0,0,2.51,1.07,2.62,2.81a3.75,3.75,0,0,1-.28,1.05,0.89,0.89,0,0,1-.54.57,8.16,8.16,0,0,1-.9.1,2.38,2.38,0,0,0-.81.37,5,5,0,0,1-2.21.49,17.7,17.7,0,0,1-2.94-.1l-1.13-.12-0.61-.08A3,3,0,0,1,475.83,4092.94Z" transform="translate(-410.08 -4043.65)"/><path class="cls-1" d="M487.29,4083.6l-3.89-5.18,2.11-1.31,4.2,6.38S489.44,4085.9,487.29,4083.6Z" transform="translate(-410.08 -4043.65)"/><path class="cls-1" d="M476.32,4076.21a26.54,26.54,0,0,1,6.54-.08s0.5-3.77.87-9.25c0,0-4.86-1.47-8,.42A43.55,43.55,0,0,0,476.32,4076.21Z" transform="translate(-410.08 -4043.65)"/><path class="cls-1" d="M478.58,4073H481a2.89,2.89,0,0,0,.22,2.29h-2.87S479.18,4074.67,478.58,4073Z" transform="translate(-410.08 -4043.65)"/><path class="cls-1" d="M478.58,4073H481a2.93,2.93,0,0,0-.09,1.46,5.11,5.11,0,0,1-2.14-.74A3.76,3.76,0,0,0,478.58,4073Z" transform="translate(-410.08 -4043.65)"/><path class="cls-1" d="M484.43,4068.7a0.77,0.77,0,0,1-.59.74,0.74,0.74,0,0,1-.23-0.9,0.76,0.76,0,0,1,.59-0.74A0.75,0.75,0,0,1,484.43,4068.7Z" transform="translate(-410.08 -4043.65)"/><path class="cls-1" d="M484.21,4068.7a0.62,0.62,0,0,1-.56.59,0.59,0.59,0,0,1-.26-0.76,0.6,0.6,0,0,1,.55-0.59A0.6,0.6,0,0,1,484.21,4068.7Z" transform="translate(-410.08 -4043.65)"/><path class="cls-1" d="M475.37,4068.85a0.77,0.77,0,0,0,.59.74,0.74,0.74,0,0,0,.23-0.9,0.77,0.77,0,0,0-.59-0.74A0.74,0.74,0,0,0,475.37,4068.85Z" transform="translate(-410.08 -4043.65)"/><path class="cls-1" d="M475.6,4068.85a0.61,0.61,0,0,0,.55.59,0.6,0.6,0,0,0,.27-0.76,0.63,0.63,0,0,0-.56-0.6A0.6,0.6,0,0,0,475.6,4068.85Z" transform="translate(-410.08 -4043.65)"/><path class="cls-1" d="M483.92,4068.37a7.73,7.73,0,0,1-.76,2.79,6.17,6.17,0,0,1-2.77,2.39,1.28,1.28,0,0,1-.47.09h0a1.28,1.28,0,0,1-.47-0.09,6.16,6.16,0,0,1-2.77-2.39,8.61,8.61,0,0,1-.76-2.79s-1.27-6,4.16-5.74C480.06,4062.63,484.59,4062.4,483.92,4068.37Z" transform="translate(-410.08 -4043.65)"/><path class="cls-1" d="M485.61,4077.35a2.7,2.7,0,0,0-2.27-1.85c-1.16-.11-2.31-0.31-3.47-0.46-1.16.15-2.32,0.35-3.47,0.46a2.69,2.69,0,0,0-2.27,1.85,3.51,3.51,0,0,0-.16,1.06h11.79A3.52,3.52,0,0,0,485.61,4077.35Z" transform="translate(-410.08 -4043.65)"/><path class="cls-1" d="M473,4083l3.48-4.61-2.15-1.44-3.76,6.08S471,4085.45,473,4083Z" transform="translate(-410.08 -4043.65)"/><path class="cls-1" d="M476.52,4078.41h6.88s-1.78,5.33.19,8.71h-7.43S477.83,4084.57,476.52,4078.41Z" transform="translate(-410.08 -4043.65)"/><path class="cls-1" d="M479.77,4092.35c11,0.59,3.74-5.22,3.74-5.22h-7.43s-2.74.86-2.65,2.63C473.42,4089.76,473.27,4094,479.77,4092.35Z" transform="translate(-410.08 -4043.65)"/><path class="cls-1" d="M479,4108.85a2,2,0,0,0,1.13,1.75,0.33,0.33,0,0,0,.14,0c0.69-.3.69-1.22,0.64-1.85a6.29,6.29,0,0,0-.47-1.4,6.23,6.23,0,0,1-.22-1.23s0-.27,0-0.27l-1.77.39a5.11,5.11,0,0,1,.54,1.93C479,4108.38,479,4108.68,479,4108.85Z" transform="translate(-410.08 -4043.65)"/><path class="cls-1" d="M481.19,4109.11c0.35,2-.61,2.16-0.61,2.16-1.07.23-1.52-1.69-1.52-1.69a1.51,1.51,0,0,1,0-.73,2.15,2.15,0,0,0,.21.68,0.88,0.88,0,0,0,1.71-.37,4.12,4.12,0,0,0-.06-0.71A1.84,1.84,0,0,1,481.19,4109.11Z" transform="translate(-410.08 -4043.65)"/><path class="cls-1" d="M473.79,4089.69a1.63,1.63,0,0,1,.68-1,1.67,1.67,0,0,1,1-.34c1.62,0.09,2,1.62,2.29,2.86,0.39,1.78.13,2,.56,4.35,0.23,1.27,1,3.49,1.24,4.77,0.31,1.83.46,3.77,0.67,5.62l-1.77.39c-0.53-1.29-1.06-2.7-1.51-4-0.9-2.65-.56-3-1.41-6-0.22-.8-1.44-3.51-1.6-4.32A5.86,5.86,0,0,1,473.79,4089.69Z" transform="translate(-410.08 -4043.65)"/><path class="cls-1" d="M483.24,4108.7a2,2,0,0,0,1.14,1.74,0.3,0.3,0,0,0,.14,0,1.74,1.74,0,0,0,.64-1.85,7,7,0,0,0-.47-1.4,6,6,0,0,1-.22-1.22s0-.27,0-0.27l-1.77.38a5.46,5.46,0,0,1,.54,1.94C483.23,4108.23,483.21,4108.53,483.24,4108.7Z" transform="translate(-410.08 -4043.65)"/><path class="cls-1" d="M485.39,4109c0.35,2-.61,2.15-0.61,2.15-1.07.23-1.52-1.68-1.52-1.68a1.54,1.54,0,0,1,0-.73,2.09,2.09,0,0,0,.22.68,0.88,0.88,0,0,0,1.71-.37,4.13,4.13,0,0,0-.06-0.71A1.79,1.79,0,0,1,485.39,4109Z" transform="translate(-410.08 -4043.65)"/><path class="cls-1" d="M478,4089.53a1.59,1.59,0,0,1,.67-1,1.69,1.69,0,0,1,1-.34c1.61,0.09,2,1.61,2.29,2.87,0.38,1.78.13,2,.56,4.35,0.23,1.27,1,3.48,1.24,4.77,0.31,1.83.45,3.77,0.67,5.62l-1.77.39c-0.53-1.29-1.06-2.69-1.51-4-0.9-2.64-.57-3-1.41-6-0.22-.8-1.45-3.51-1.6-4.32A5.72,5.72,0,0,1,478,4089.53Z" transform="translate(-410.08 -4043.65)"/><path class="cls-1" d="M479.87,4078.41" transform="translate(-410.08 -4043.65)"/><path class="cls-1" d="M476.52,4078.24h6.88s-2.4-1-1.34-2.88a0.91,0.91,0,0,1-.26,0l-1.94,2.75-2-2.74a0.94,0.94,0,0,1-.24,0,3.35,3.35,0,0,1-1.08,2.88" transform="translate(-410.08 -4043.65)"/><path class="cls-1" d="M483.4,4078.24h-6.88s-0.71,1.19.45,3.39c0.26,3.84-.82,5.5-0.82,5.5h7.43a9.23,9.23,0,0,1-.85-5.45A3.88,3.88,0,0,0,483.4,4078.24Z" transform="translate(-410.08 -4043.65)"/><path class="cls-1" d="M482.74,4081.67a3.66,3.66,0,0,0,.66-3.44h-6.88a3.28,3.28,0,0,0,.45,3.39" transform="translate(-410.08 -4043.65)"/><path class="cls-1" d="M478.23,4092.18s-1.2-2.53-.09-3.62a2.44,2.44,0,0,1,1.52-.71,2,2,0,0,1,2.1,1.57,3.61,3.61,0,0,1,.13,1.13s-0.48-2.42-2.44-2.18C479.46,4088.37,477.41,4088.61,478.23,4092.18Z" transform="translate(-410.08 -4043.65)"/><path class="cls-1" d="M474,4092.4s-1.2-2.53-.08-3.62a2.43,2.43,0,0,1,1.52-.71,2,2,0,0,1,2.1,1.57,3.58,3.58,0,0,1,.13,1.13s-0.48-2.42-2.45-2.18C475.21,4088.59,473.15,4088.83,474,4092.4Z" transform="translate(-410.08 -4043.65)"/><path class="cls-1" d="M483.8,4069.45s-1.61,6.46,2.06,9.18c0,0-4.17.71-4.06-2.42a11.46,11.46,0,0,1,.88-4.36A5.09,5.09,0,0,0,483.8,4069.45Z" transform="translate(-410.08 -4043.65)"/><path class="cls-1" d="M482,4076.21a11.6,11.6,0,0,1,.88-4.36,3.75,3.75,0,0,0,.72-1.16,11.87,11.87,0,0,1,.21-1.24,5.1,5.1,0,0,1-1.12,2.4,11.62,11.62,0,0,0-.88,4.36c-0.07,2.21,2,2.5,3.2,2.48C483.74,4078.67,481.88,4078.3,482,4076.21Z" transform="translate(-410.08 -4043.65)"/><path class="cls-1" d="M479.25,4062.17a4.56,4.56,0,0,0-4.16,5.34s0.34,5.81-.17,7.52a5.91,5.91,0,0,1-1.78,2.93,3.29,3.29,0,0,0,3.64,0s1.22-2.21-.26-9.46c0,0-1.15-4.56,3.07-4.53A3,3,0,0,1,479.25,4062.17Z" transform="translate(-410.08 -4043.65)"/><path class="cls-1" d="M479.6,4064a3,3,0,0,1-.34-1.8,2.26,2.26,0,0,0-.31.05,3.65,3.65,0,0,0,.4,1.58c-4.23,0-3.08,4.53-3.08,4.53,1.49,7.26.27,9.46,0.27,9.46a3.39,3.39,0,0,1-3.37.17h0a3.29,3.29,0,0,0,3.64,0s1.22-2.21-.26-9.46C476.52,4068.5,475.37,4063.95,479.6,4064Z" transform="translate(-410.08 -4043.65)"/><path class="cls-1" d="M478.36,4064.13s1.24,2.52,5.61,3.75c0,0,1.43-5.7-4.71-5.7C479.25,4062.17,476.76,4062.08,478.36,4064.13Z" transform="translate(-410.08 -4043.65)"/><path class="cls-1" d="M483.5,4064.06a5.86,5.86,0,0,1,.27,3.45c-4.36-1.23-5.6-3.76-5.6-3.76s-0.28-.52-0.34-0.62a3.11,3.11,0,0,0,.49,1.06s1.29,2.45,5.66,3.68A5.61,5.61,0,0,0,483.5,4064.06Z" transform="translate(-410.08 -4043.65)"/><path class="cls-1" d="M485.55,4085.18a0.76,0.76,0,0,1-.78.74H475a0.76,0.76,0,0,1-.77-0.74l-0.64-5.81a0.76,0.76,0,0,1,.77-0.75h11a0.76,0.76,0,0,1,.78.75Z" transform="translate(-410.08 -4043.65)"/><path class="cls-1" d="M485.14,4085.22a0.71,0.71,0,0,1-.73.7h-9a0.71,0.71,0,0,1-.72-0.7l-0.64-5.34a0.72,0.72,0,0,1,.72-0.71h10.31a0.72,0.72,0,0,1,.73.71Z" transform="translate(-410.08 -4043.65)"/><polygon class="cls-1" points="42.83 63.77 36.33 65.46 36.27 65.26 42.81 62.48 42.83 63.77"/><ellipse class="cls-1" cx="36.46" cy="66.47" rx="0.88" ry="0.86"/><path class="cls-1" d="M447.24,4110.13a0.69,0.69,0,1,1-.69-0.67A0.68,0.68,0,0,1,447.24,4110.13Z" transform="translate(-410.08 -4043.65)"/><ellipse class="cls-1" cx="36.47" cy="66.48" rx="0.44" ry="0.43"/><path class="cls-1" d="M446.55,4109.11a1.12,1.12,0,0,1,1.13,1,1.2,1.2,0,0,0,0-.14,1.13,1.13,0,0,0-2.27,0,1.32,1.32,0,0,0,0,.14A1.12,1.12,0,0,1,446.55,4109.11Z" transform="translate(-410.08 -4043.65)"/><polygon class="cls-1" points="43.52 63.77 50.01 65.46 50.09 65.26 43.52 62.64 43.52 63.77"/><ellipse class="cls-1" cx="49.88" cy="66.47" rx="0.88" ry="0.86"/><path class="cls-1" d="M459.27,4110.13a0.69,0.69,0,0,0,1.39,0A0.7,0.7,0,0,0,459.27,4110.13Z" transform="translate(-410.08 -4043.65)"/><ellipse class="cls-1" cx="49.89" cy="66.48" rx="0.44" ry="0.43"/><path class="cls-1" d="M460,4109.11a1.12,1.12,0,0,0-1.12,1,1.17,1.17,0,0,1,0-.14,1.14,1.14,0,1,1,2.26.14A1.12,1.12,0,0,0,460,4109.11Z" transform="translate(-410.08 -4043.65)"/><rect class="cls-1" x="38.67" y="48.82" width="8.97" height="1.6"/><rect class="cls-1" x="42.8" y="50.42" width="0.62" height="12.67"/><rect class="cls-1" x="42.69" y="58.24" width="0.83" height="4.41"/><rect class="cls-1" x="42.45" y="59.49" width="1.31" height="4.41"/><path class="cls-1" d="M446.08,4090.84a3.78,3.78,0,0,0,0,1c0,0.9,3.18,1.62,7.1,1.62s7.11-.72,7.11-1.62a4.76,4.76,0,0,0,0-1.08Z" transform="translate(-410.08 -4043.65)"/><ellipse class="cls-1" cx="43.1" cy="47.2" rx="7.11" ry="1.63"/><path class="cls-1" d="M461.43,4083c2.27,1.36,2.9-.19,2.9-0.19l-3.3-5.29-3.39,1.44A8.92,8.92,0,0,0,461.43,4083Z" transform="translate(-410.08 -4043.65)"/><path class="cls-1" d="M451.85,4070.92h2.44a2.91,2.91,0,0,0,.22,2.31h-2.89S452.46,4072.57,451.85,4070.92Z" transform="translate(-410.08 -4043.65)"/><path class="cls-1" d="M451.85,4070.92h2.44a2.93,2.93,0,0,0-.09,1.47,5.15,5.15,0,0,1-2.16-.73A3.77,3.77,0,0,0,451.85,4070.92Z" transform="translate(-410.08 -4043.65)"/><path class="cls-1" d="M457.74,4066.77a0.78,0.78,0,0,1-.59.75,0.74,0.74,0,0,1-.23-0.91,0.77,0.77,0,0,1,.59-0.75A0.74,0.74,0,0,1,457.74,4066.77Z" transform="translate(-410.08 -4043.65)"/><path class="cls-1" d="M457.52,4066.77a0.62,0.62,0,0,1-.56.6,0.6,0.6,0,0,1-.27-0.76,0.63,0.63,0,0,1,.56-0.61A0.6,0.6,0,0,1,457.52,4066.77Z" transform="translate(-410.08 -4043.65)"/><path class="cls-1" d="M448.63,4066.91a0.77,0.77,0,0,0,.59.75,0.75,0.75,0,0,0,.23-0.91,0.78,0.78,0,0,0-.59-0.74A0.74,0.74,0,0,0,448.63,4066.91Z" transform="translate(-410.08 -4043.65)"/><path class="cls-1" d="M448.85,4066.91a0.64,0.64,0,0,0,.56.61,0.79,0.79,0,0,0-.29-1.37A0.6,0.6,0,0,0,448.85,4066.91Z" transform="translate(-410.08 -4043.65)"/><path class="cls-1" d="M457.22,4066.23a7.62,7.62,0,0,1-.77,2.81,6.2,6.2,0,0,1-2.78,2.4,1.29,1.29,0,0,1-.47.09h0a1.3,1.3,0,0,1-.47-0.09,6.17,6.17,0,0,1-2.78-2.4,8.66,8.66,0,0,1-.77-2.81s-1.28-6,4.19-5.77C453.34,4060.46,457.9,4060.22,457.22,4066.23Z" transform="translate(-410.08 -4043.65)"/><path class="cls-1" d="M459.76,4075.62a3.11,3.11,0,0,0-2.62-2.14c-1.34-.12-2.68-0.36-4-0.53-1.33.17-2.67,0.4-4,.53a3.1,3.1,0,0,0-2.61,2.14,3.92,3.92,0,0,0-.18,1.22h13.61A4.05,4.05,0,0,0,459.76,4075.62Z" transform="translate(-410.08 -4043.65)"/><path class="cls-1" d="M445.16,4082.16c-2.27,1.36-2.8,0-2.8,0l3.29-5.3,3.29,1.22A8.92,8.92,0,0,1,445.16,4082.16Z" transform="translate(-410.08 -4043.65)"/><path class="cls-1" d="M449.27,4076.84h7.94s-2.05,6.15.22,10.05h-8.58S450.77,4083.94,449.27,4076.84Z" transform="translate(-410.08 -4043.65)"/><path class="cls-1" d="M449,4085.11h8.13s7.68,8.15-4,6.27C453.07,4091.38,441.72,4094.06,449,4085.11Z" transform="translate(-410.08 -4043.65)"/><path class="cls-1" d="M451,4106.21l1.78-.36,0.6,2.53s0.46,2-.59,2.42c0,0-.94-0.15-1.27-1.94Z" transform="translate(-410.08 -4043.65)"/><path class="cls-1" d="M451.45,4108.7a5.17,5.17,0,0,0,1.88-.38s1.37,3.09-.32,3.43C453,4111.75,451.54,4111.91,451.45,4108.7Z" transform="translate(-410.08 -4043.65)"/><path class="cls-1" d="M452.94,4111.47s-1,.09-1.37-1.56c0.37,2,1.44,1.88,1.44,1.88,1-.2.93-1.36,0.71-2.28C453.88,4110.36,453.83,4111.29,452.94,4111.47Z" transform="translate(-410.08 -4043.65)"/><path class="cls-1" d="M452.3,4109.15a0.1,0.1,0,0,1-.08.12,0.11,0.11,0,0,1-.13-0.07,0.11,0.11,0,0,1,.08-0.13A0.11,0.11,0,0,1,452.3,4109.15Z" transform="translate(-410.08 -4043.65)"/><path class="cls-1" d="M453,4109a0.1,0.1,0,0,1-.08.12,0.11,0.11,0,1,1,0-.21A0.11,0.11,0,0,1,453,4109Z" transform="translate(-410.08 -4043.65)"/><ellipse class="cls-1" cx="452.28" cy="4109.59" rx="0.11" ry="0.11" transform="translate(-1173.74 -3885.61) rotate(-10.82)"/><ellipse class="cls-1" cx="452.93" cy="4109.46" rx="0.11" ry="0.1" transform="translate(-1156.28 -3890.81) rotate(-10.57)"/><path class="cls-1" d="M452.46,4109.93a0.11,0.11,0,0,1-.09.12,0.11,0.11,0,0,1-.13-0.08,0.11,0.11,0,0,1,.09-0.12A0.11,0.11,0,0,1,452.46,4109.93Z" transform="translate(-410.08 -4043.65)"/><circle class="cls-1" cx="453.01" cy="4109.82" r="0.11" transform="matrix(0.98, -0.19, 0.19, 0.98, -1196.95, -3878.26)"/><path class="cls-1" d="M452.54,4110.29a0.1,0.1,0,0,1-.08.12,0.11,0.11,0,0,1-.13-0.07,0.11,0.11,0,0,1,.08-0.13A0.11,0.11,0,0,1,452.54,4110.29Z" transform="translate(-410.08 -4043.65)"/><ellipse class="cls-1" cx="453.09" cy="4110.18" rx="0.11" ry="0.11" transform="translate(-1123.25 -3900.67) rotate(-10.09)"/><path class="cls-1" d="M452.88,4109a0,0,0,0,1,0,0l-0.69.15a0,0,0,0,1,0,0h0a0,0,0,0,1,0,0l0.69-.13a0,0,0,0,1,0,0h0Z" transform="translate(-410.08 -4043.65)"/><path class="cls-1" d="M453,4109.45a0,0,0,0,1,0,0l-0.69.14a0,0,0,0,1,0,0h0a0,0,0,0,1,0,0l0.69-.13a0,0,0,0,1,0,0h0Z" transform="translate(-410.08 -4043.65)"/><path class="cls-1" d="M453.06,4109.81a0,0,0,0,1,0,0l-0.69.14a0,0,0,0,1,0,0h0a0,0,0,0,1,0,0l0.69-.14s0,0,0,0h0Z" transform="translate(-410.08 -4043.65)"/><path class="cls-1" d="M453.13,4110.17a0,0,0,0,1,0,0l-0.69.14a0,0,0,0,1,0,0h0a0,0,0,0,1,0,0l0.69-.14a0,0,0,0,1,0,0h0Z" transform="translate(-410.08 -4043.65)"/><path class="cls-1" d="M453,4109.46a0,0,0,0,1-.05,0l-0.77-.27a0,0,0,0,1,0-.05h0a0,0,0,0,1,.05,0l0.77,0.28a0,0,0,0,1,0,0h0Z" transform="translate(-410.08 -4043.65)"/><path class="cls-1" d="M452.22,4109.6a0,0,0,0,1,0-.06l0.61-.53a0,0,0,0,1,.06,0h0a0,0,0,0,1,0,0l-0.6.54a0,0,0,0,1-.06,0h0Z" transform="translate(-410.08 -4043.65)"/><path class="cls-1" d="M453.06,4109.84a0,0,0,0,1,0,0l-0.75-.28a0,0,0,0,1,0-.05h0a0,0,0,0,1,.05,0l0.76,0.27a0,0,0,0,1,0,0h0Z" transform="translate(-410.08 -4043.65)"/><path class="cls-1" d="M452.31,4110a0,0,0,0,1,0,0l0.58-.51a0,0,0,0,1,.05,0h0a0,0,0,0,1,0,0l-0.58.51a0,0,0,0,1-.05,0h0Z" transform="translate(-410.08 -4043.65)"/><path class="cls-1" d="M453.12,4110.19a0,0,0,0,1-.05,0l-0.74-.23a0,0,0,0,1,0,0h0a0,0,0,0,1,0,0l0.75,0.23a0,0,0,0,1,0,0h0Z" transform="translate(-410.08 -4043.65)"/><path class="cls-1" d="M452.37,4110.33a0,0,0,0,1,0-.05l0.59-.47a0,0,0,0,1,0,0h0a0,0,0,0,1,0,0l-0.59.48a0,0,0,0,1-.05,0h0Z" transform="translate(-410.08 -4043.65)"/><path class="cls-1" d="M446.09,4089.59a2.06,2.06,0,0,1,1.06-1.14,2.68,2.68,0,0,1,1.21-.19c1.63,0.11,2,1.66,2.24,2.92,0.35,1.8.85,3.57,1.2,5.37,0.25,1.28.43,2.56,0.63,3.86,0.28,1.85,1,6,1.13,7.88l-2.6.54a44.81,44.81,0,0,1-2.08-6.32,71.82,71.82,0,0,1-2.26-8.37c-0.15-.82-0.31-1.53-0.45-2.35A5.34,5.34,0,0,1,446.09,4089.59Z" transform="translate(-410.08 -4043.65)"/><path class="cls-1" d="M454.55,4104.28l1.79,0.27-0.36,2.58s-0.29,2-1.43,2.06c0,0-.83-0.45-0.49-2.25Z" transform="translate(-410.08 -4043.65)"/><path class="cls-1" d="M454.05,4107a5.14,5.14,0,0,0,1.9.29s0.15,3.37-1.56,3.11C454.4,4110.37,453,4110,454.05,4107Z" transform="translate(-410.08 -4043.65)"/><path class="cls-1" d="M454.44,4110.07s-0.93-.23-0.71-1.93c-0.39,2,.66,2.25.66,2.25,1,0.16,1.36-.95,1.49-1.88C455.72,4109.36,455.34,4110.21,454.44,4110.07Z" transform="translate(-410.08 -4043.65)"/><path class="cls-1" d="M454.68,4107.69a0.11,0.11,0,0,1-.13.09,0.11,0.11,0,0,1-.1-0.12,0.11,0.11,0,0,1,.13-0.09A0.11,0.11,0,0,1,454.68,4107.69Z" transform="translate(-410.08 -4043.65)"/><circle class="cls-1" cx="455.24" cy="4107.78" r="0.11" transform="matrix(0.16, -0.99, 0.99, 0.16, -4083.11, -132.19)"/><path class="cls-1" d="M454.62,4108.11a0.11,0.11,0,0,1-.13.08,0.11,0.11,0,0,1-.1-0.12,0.11,0.11,0,0,1,.13-0.09A0.11,0.11,0,0,1,454.62,4108.11Z" transform="translate(-410.08 -4043.65)"/><path class="cls-1" d="M455.28,4108.21a0.11,0.11,0,0,1-.13.09,0.12,0.12,0,0,1-.1-0.13,0.11,0.11,0,0,1,.13-0.08A0.1,0.1,0,0,1,455.28,4108.21Z" transform="translate(-410.08 -4043.65)"/><ellipse class="cls-1" cx="454.44" cy="4108.46" rx="0.1" ry="0.11" transform="translate(-4086.14 -92.9) rotate(-81.5)"/><path class="cls-1" d="M455.22,4108.57a0.11,0.11,0,0,1-.22,0,0.11,0.11,0,0,1,.13-0.09A0.11,0.11,0,0,1,455.22,4108.57Z" transform="translate(-410.08 -4043.65)"/><path class="cls-1" d="M454.49,4108.83a0.11,0.11,0,0,1-.13.09,0.11,0.11,0,0,1-.09-0.12A0.11,0.11,0,0,1,454.49,4108.83Z" transform="translate(-410.08 -4043.65)"/><ellipse class="cls-1" cx="455.05" cy="4108.92" rx="0.1" ry="0.11" transform="translate(-4086.65 -76.32) rotate(-81.72)"/><path class="cls-1" d="M455.28,4107.78a0,0,0,0,1,0,0l-0.7-.11a0,0,0,0,1,0,0h0a0,0,0,0,1,0,0l0.7,0.11a0,0,0,0,1,0,0h0Z" transform="translate(-410.08 -4043.65)"/><path class="cls-1" d="M455.22,4108.2a0,0,0,0,1,0,0l-0.7-.11a0,0,0,0,1,0,0h0a0,0,0,0,1,0,0l0.7,0.1a0,0,0,0,1,0,0h0Z" transform="translate(-410.08 -4043.65)"/><path class="cls-1" d="M455.16,4108.57a0,0,0,0,1,0,0l-0.7-.11a0,0,0,0,1,0,0h0a0,0,0,0,1,0,0l0.7,0.11a0,0,0,0,1,0,0h0Z" transform="translate(-410.08 -4043.65)"/><path class="cls-1" d="M455.09,4108.93a0,0,0,0,1,0,0l-0.7-.12a0,0,0,0,1,0,0h0a0,0,0,0,1,0,0l0.7,0.11a0,0,0,0,1,0,0h0Z" transform="translate(-410.08 -4043.65)"/><path class="cls-1" d="M455.2,4108.21a0,0,0,0,1-.06,0l-0.62-.53a0,0,0,0,1,0,0h0a0,0,0,0,1,.06,0l0.62,0.52a0,0,0,0,1,0,.06h0Z" transform="translate(-410.08 -4043.65)"/><path class="cls-1" d="M454.45,4108.08a0,0,0,0,1,0-.05l0.76-.3a0,0,0,0,1,.05,0h0a0,0,0,0,1,0,0l-0.76.3a0,0,0,0,1-.05,0h0Z" transform="translate(-410.08 -4043.65)"/><path class="cls-1" d="M455.15,4108.6a0,0,0,0,1-.05,0l-0.6-.51a0,0,0,0,1,0-.05h0a0,0,0,0,1,.05,0l0.61,0.51a0,0,0,0,1,0,0h0Z" transform="translate(-410.08 -4043.65)"/><path class="cls-1" d="M454.39,4108.47a0,0,0,0,1,0-.05l0.73-.28a0,0,0,0,1,.05,0h0a0,0,0,0,1,0,.05l-0.73.28a0,0,0,0,1-.05,0h0Z" transform="translate(-410.08 -4043.65)"/><path class="cls-1" d="M455.08,4108.94a0,0,0,0,1-.06,0l-0.62-.47a0,0,0,0,1,0,0h0a0,0,0,0,1,.05,0l0.62,0.47a0,0,0,0,1,0,0h0Z" transform="translate(-410.08 -4043.65)"/><path class="cls-1" d="M454.32,4108.81a0,0,0,0,1,0,0l0.72-.24a0,0,0,0,1,0,0h0a0,0,0,0,1,0,0l-0.72.24a0,0,0,0,1-.05,0h0Z" transform="translate(-410.08 -4043.65)"/><path class="cls-1" d="M456.91,4087.39a2.14,2.14,0,0,1,1.21-.7,2.33,2.33,0,0,1,1.12.12c1.92,0.5,1.81,2.27,1.58,3.54-0.33,1.8-.82,3.53-1.15,5.33-0.24,1.29-.78,2.61-1.07,3.88-0.42,1.83-1.61,5.84-2.12,7.64l-2.64-.28c0.23-1.18.56-5.21,0.66-6.61a67.92,67.92,0,0,1,1.13-8.34c0.16-.82.3-1.59,0.47-2.41A5.82,5.82,0,0,1,456.91,4087.39Z" transform="translate(-410.08 -4043.65)"/><path class="cls-1" d="M456.11,4073.34c0.59,0.09.47,0,1.07,0.09a3.11,3.11,0,0,1,2.59,2.18,4.05,4.05,0,0,1,.18,1.22H446.33a3.92,3.92,0,0,1,.18-1.22,3.1,3.1,0,0,1,2.61-2.14c0.56,0,.81-0.08,1.37-0.16l2.54,5.4Z" transform="translate(-410.08 -4043.65)"/><path class="cls-1" d="M457.31,4076.64h-8.36V4080a48.76,48.76,0,0,1-.37,5.56h9c-0.19-3.32-.25-7.18-0.19-5.52C457.43,4080.08,457.39,4078.34,457.31,4076.64Z" transform="translate(-410.08 -4043.65)"/><path class="cls-1" d="M447,4074.75a21.59,21.59,0,0,0-3.53,5.74l3.55,1.12,2.48-4.1S450,4075.05,447,4074.75Z" transform="translate(-410.08 -4043.65)"/><path class="cls-1" d="M459.43,4074.91a18.26,18.26,0,0,1,3.61,5.6l-3.74,1.39-2.56-4.25S456.36,4075.23,459.43,4074.91Z" transform="translate(-410.08 -4043.65)"/><path class="cls-1" d="M453.13,4063.88s-3-2-4.06,2.14a4,4,0,0,1,3.25-5.24s5.17-.73,5.11,3.35a12,12,0,0,1-.24,2.29S456.33,4061.89,453.13,4063.88Z" transform="translate(-410.08 -4043.65)"/><path class="cls-1" d="M457.19,4067.17a4.56,4.56,0,0,1,.93-3.29l-0.69.25s0-2,1.14-2.35l-1.38.94s-0.38-.58,1.13-2c0,0-1.57.38-1.85,1a2.55,2.55,0,0,1,1-3.07,2.36,2.36,0,0,0-2.5,1.72,3.09,3.09,0,0,0-.9-2.17,1.69,1.69,0,0,1,0,1.8,4.43,4.43,0,0,0-5.48,2.44,1.89,1.89,0,0,1,1.24-.54s-1,.1-1.24,2.29l0.7-.6,3.32-1.15,2.25,0.6,1.2,0Z" transform="translate(-410.08 -4043.65)"/><path class="cls-1" d="M456.33,4064.25a2,2,0,0,1,0,1.95,1.74,1.74,0,0,0,.86,1l0.15-1.69Z" transform="translate(-410.08 -4043.65)"/><path class="cls-1" d="M449.93,4064.17a2,2,0,0,0,0,1.95,1.8,1.8,0,0,1-.86,1l-0.11-1.84Z" transform="translate(-410.08 -4043.65)"/><polygon class="cls-1" points="41.49 32.03 42.95 34.71 44.45 31.86 43.1 30.92 41.49 32.03"/><polygon class="cls-1" points="40.41 29.68 42.95 34.71 42.95 35.67 39.93 29.74 40.41 29.68"/><polygon class="cls-1" points="45.48 29.68 42.95 34.71 42.95 35.67 45.96 29.74 45.48 29.68"/><polygon class="cls-1" points="40.06 29.55 41.81 29.21 43.1 30.92 40.62 32.64 40.06 29.55"/><polygon class="cls-1" points="46.16 29.55 44.25 29.21 43.1 30.92 45.6 32.64 46.16 29.55"/><path class="cls-1" d="M451.45,4065.75c-0.69,0-1.38,0-1.32,1a1.22,1.22,0,0,0,1.16,1.16,1.41,1.41,0,0,0,1.44-1C452.86,4066.39,453.15,4065.75,451.45,4065.75Zm1.11,1.15a1.23,1.23,0,0,1-1.24.86,1.05,1.05,0,0,1-1-1c-0.05-.88.55-0.86,1.14-0.86C452.92,4065.89,452.66,4066.45,452.56,4066.9Z" transform="translate(-410.08 -4043.65)"/><path class="cls-1" d="M453.49,4067a1.42,1.42,0,0,0,1.48.93,1.22,1.22,0,0,0,1.11-1.21c0-1-.68-1-1.36-0.94C453,4065.82,453.35,4066.45,453.49,4067Zm1.24-1.07c0.59,0,1.19-.06,1.17.81a1.06,1.06,0,0,1-1,1,1.23,1.23,0,0,1-1.27-.81C453.54,4066.5,453.26,4066,454.73,4065.9Z" transform="translate(-410.08 -4043.65)"/><path class="cls-1" d="M452.8,4066.43a0.67,0.67,0,0,1,.71,0,0.39,0.39,0,0,1,.06-0.38,1.22,1.22,0,0,0-.86,0A0.93,0.93,0,0,1,452.8,4066.43Z" transform="translate(-410.08 -4043.65)"/><path class="cls-1" d="M450.48,4065.89l-0.7.08-0.06.65,0.51,0.31A1.37,1.37,0,0,1,450.48,4065.89Z" transform="translate(-410.08 -4043.65)"/><path class="cls-1" d="M455.79,4065.9l0.7,0.09,0.06,0.65L456,4067A1.39,1.39,0,0,0,455.79,4065.9Z" transform="translate(-410.08 -4043.65)"/><path class="cls-1" d="M452.54,4083.32l0.27,1.3c-2-.19-4-0.33-5.93-0.53-0.87-.09-1.75-0.22-2.62-0.3s-2.33-.24-2-1.41c0.29-1,2.09-1.13,2.89-1.08C445.15,4081.3,451.16,4081.95,452.54,4083.32Z" transform="translate(-410.08 -4043.65)"/><path class="cls-1" d="M444,4079.31l9.29,3.69-0.24,1.81-10.13-1s-1.33-.45-0.34-2.18Z" transform="translate(-410.08 -4043.65)"/><path class="cls-1" d="M454,4083.63l-0.27,1.3c2-.19,4-0.34,5.93-0.54,0.87-.08,1.75-0.22,2.62-0.29s2.33-.24,2-1.41c-0.29-1-2.1-1.12-2.89-1.08C461.38,4081.61,455.38,4082.26,454,4083.63Z" transform="translate(-410.08 -4043.65)"/><path class="cls-1" d="M462.6,4079.6l-9.28,3.7,0.24,1.81,10.13-1s1.32-.45.33-2.18Z" transform="translate(-410.08 -4043.65)"/><path class="cls-1" d="M458.6,4084.38a0.77,0.77,0,0,1-.78.76H448a0.77,0.77,0,0,1-.78-0.76l-0.65-5.84a0.77,0.77,0,0,1,.78-0.76h11.1a0.77,0.77,0,0,1,.78.76Z" transform="translate(-410.08 -4043.65)"/><path class="cls-1" d="M458.19,4084.44a0.72,0.72,0,0,1-.73.7h-9.08a0.72,0.72,0,0,1-.73-0.7l-0.65-5.37a0.72,0.72,0,0,1,.73-0.71H458.1a0.72,0.72,0,0,1,.73.71Z" transform="translate(-410.08 -4043.65)"/><polygon class="cls-1" points="117.5 44.15 12.61 44.15 11.83 42.43 118.31 42.43 117.5 44.15"/><polygon class="cls-1" points="118.31 42.43 11.83 42.43 12.12 43.06 118.01 43.06 118.31 42.43"/><rect class="cls-1" x="109.93" y="44.15" width="1.45" height="23.49"/><rect class="cls-1" x="22.41" y="44.15" width="1.45" height="23.49"/><path class="cls-1" d="M431.41,4080.88a3.44,3.44,0,0,0,.91-0.08s0.24,0,.09.19a2.63,2.63,0,0,1-.58.15Z" transform="translate(-410.08 -4043.65)"/><path class="cls-1" d="M421.13,4080l8.19,0.89,0.23,0.83-8.55.6S419,4080.19,421.13,4080Z" transform="translate(-410.08 -4043.65)"/><path class="cls-1" d="M417.19,4074.26c1-.66,1.78.62,1.78,0.62l3.22,5.44c1.63,2.67-1.29,1.93-1.29,1.93l-3.65-5.48C416,4074.91,417.19,4074.26,417.19,4074.26Z" transform="translate(-410.08 -4043.65)"/><path class="cls-1" d="M429.31,4081.75l-0.09-.86s2.68-.48,3.81.78c0.08,0.19-.13.14-0.13,0.14a3,3,0,0,0-1.3-.52,3.8,3.8,0,0,1,1.25.64,0.15,0.15,0,0,1-.16.18,5.52,5.52,0,0,0-1.21-.56c0.27,0.13,1,.54,1,0.54,0.18,0.2-.07.23-0.07,0.23a4.71,4.71,0,0,1-1.18-.55s-0.24,0,.52.55c0,0,0,.39-1-0.24a3,3,0,0,1-1.07-.22A0.85,0.85,0,0,0,429.31,4081.75Z" transform="translate(-410.08 -4043.65)"/><path class="cls-1" d="M416.73,4069.32s0.46,3.82-1.14,6c0,0-1,.9-1.45,3.67a10.75,10.75,0,0,1-1.08-9.88Z" transform="translate(-410.08 -4043.65)"/><path class="cls-1" d="M427.13,4088.87l-7.56-1.9s-5.27-1.94-5.33,2.63c0,0-.15,2.77,8.68,2.22l3.81,0.07S429.47,4090.76,427.13,4088.87Z" transform="translate(-410.08 -4043.65)"/><path class="cls-1" d="M422.93,4091.83c-8.83.55-8.68-2.22-8.68-2.22,0.06-4.57,5.33-2.63,5.33-2.63l4.14,1s2.34,0.21,1.8.76a0.93,0.93,0,0,1-1.42.26" transform="translate(-410.08 -4043.65)"/><polygon class="cls-1" points="8.2 64 14.7 65.69 14.77 65.48 8.22 62.7 8.2 64"/><ellipse class="cls-1" cx="14.57" cy="66.7" rx="0.89" ry="0.86"/><path class="cls-1" d="M424,4110.36a0.69,0.69,0,1,0,.69-0.67A0.68,0.68,0,0,0,424,4110.36Z" transform="translate(-410.08 -4043.65)"/><ellipse class="cls-1" cx="14.57" cy="66.71" rx="0.44" ry="0.43"/><path class="cls-1" d="M424.65,4109.33a1.13,1.13,0,0,0-1.13,1,1.24,1.24,0,0,1,0-.13,1.14,1.14,0,0,1,2.28,0,1.34,1.34,0,0,1,0,.13A1.14,1.14,0,0,0,424.65,4109.33Z" transform="translate(-410.08 -4043.65)"/><polygon class="cls-1" points="7.51 64 1 65.69 0.94 65.48 7.51 62.87 7.51 64"/><ellipse class="cls-1" cx="1.13" cy="66.7" rx="0.89" ry="0.86"/><path class="cls-1" d="M411.91,4110.36a0.7,0.7,0,1,1-.69-0.67A0.68,0.68,0,0,1,411.91,4110.36Z" transform="translate(-410.08 -4043.65)"/><ellipse class="cls-1" cx="1.14" cy="66.71" rx="0.44" ry="0.43"/><path class="cls-1" d="M411.22,4109.33a1.12,1.12,0,0,1,1.13,1,0.65,0.65,0,0,0,0-.13,1.14,1.14,0,0,0-2.28,0,1.34,1.34,0,0,0,0,.13A1.13,1.13,0,0,1,411.22,4109.33Z" transform="translate(-410.08 -4043.65)"/><rect class="cls-1" x="3.37" y="49.03" width="8.99" height="1.61"/><rect class="cls-1" x="7.61" y="50.63" width="0.62" height="12.68"/><rect class="cls-1" x="7.51" y="58.46" width="0.82" height="4.42"/><rect class="cls-1" x="7.27" y="59.71" width="1.31" height="4.4"/><path class="cls-1" d="M425.12,4091a3.57,3.57,0,0,1,0,1c0,0.9-3.18,1.63-7.11,1.63s-7.11-.72-7.11-1.63a4.4,4.4,0,0,1,0-1.08Z" transform="translate(-410.08 -4043.65)"/><ellipse class="cls-1" cx="7.93" cy="47.4" rx="7.11" ry="1.63"/><path class="cls-1" d="M414,4087.8c1-1.48.76-4.11,0.76-4.11-1.44-5.73.32-8.7,0.32-8.7h4.56s3.37,2.32.79,4.19c0,0-.29,7.51.08,9.43" transform="translate(-410.08 -4043.65)"/><path class="cls-1" d="M421.5,4068.71a1.51,1.51,0,0,1-.72-0.94,5.05,5.05,0,0,0-1.05-4.17,4.47,4.47,0,0,0-3.49-1.22,3.72,3.72,0,0,0-2.36,1.25s-2,2.14,0,6a4.66,4.66,0,0,0,2.5,2,7.36,7.36,0,0,0,3.49.4c0.6,0,.57-0.79.57-0.79a6.12,6.12,0,0,1,.11-1.51l1.09-.68S421.78,4068.9,421.5,4068.71Z" transform="translate(-410.08 -4043.65)"/><path class="cls-1" d="M421,4063.75s0.5,1.29-2.95,2.07a2.52,2.52,0,0,0-1.33,1.59s-1-.45-0.78.62a2.9,2.9,0,0,1,0,2.21,1.43,1.43,0,0,0,.26,1.32s-3.43-.79-4.14-5.39c0,0,.1-5.46,6.63-4.35A3.72,3.72,0,0,1,421,4063.75Z" transform="translate(-410.08 -4043.65)"/><rect class="cls-1" x="5.93" y="27.9" width="2.12" height="1.93"/><path class="cls-1" d="M418.13,4072a11.74,11.74,0,0,1-1.84-.41l1.84,1.46V4072Z" transform="translate(-410.08 -4043.65)"/><polygon class="cls-1" points="8.05 29.75 9.64 31.42 5 31.35 5.93 29.75 8.05 29.75"/><path class="cls-1" d="M414,4087.8c1-1.48.76-4.11,0.76-4.11-1.84-6.94,1-9.8,1-9.8l3.91,1.11s3.37,2.32.79,4.19c0,0-.1,6,0,8l-2.76.19h0" transform="translate(-410.08 -4043.65)"/><path class="cls-1" d="M417.51,4087.35l2.91-.22,0.1,1S418,4087.55,417.51,4087.35Z" transform="translate(-410.08 -4043.65)"/><path class="cls-1" d="M415.72,4067.92a0.7,0.7,0,0,0,.65.64,0.64,0.64,0,0,0,.32-0.83,0.7,0.7,0,0,0-.66-0.64A0.64,0.64,0,0,0,415.72,4067.92Z" transform="translate(-410.08 -4043.65)"/><path class="cls-1" d="M418.78,4065.62a5.64,5.64,0,0,1-1.57,4s-1.88,2.63,1.81,6.49c0,0-4.88-1.8-3-7.79a6,6,0,0,0,.28-1.83S416.77,4065.31,418.78,4065.62Z" transform="translate(-410.08 -4043.65)"/><path class="cls-1" d="M417,4064.49a8.07,8.07,0,0,1-.92,6.09s-2.09,3.38,1.57,7.67c0,0-4.38-.11-3.68-9.12a8.61,8.61,0,0,0-.2-2.67S414.07,4064.67,417,4064.49Z" transform="translate(-410.08 -4043.65)"/><path class="cls-1" d="M414.68,4065a8.09,8.09,0,0,1-.91,6.09s-2.1,3.37,1.56,7.66c0,0-4.37-.1-3.67-9.12a23.66,23.66,0,0,1,.5-4.45A6.87,6.87,0,0,1,414.68,4065Z" transform="translate(-410.08 -4043.65)"/><path class="cls-1" d="M427,4108c-0.58-.49-0.6-1.9-0.79-2.5s0.35-.8.33-1.29a3.68,3.68,0,0,0-.18-1s-0.06-.27-0.07-0.26h1.56a16.67,16.67,0,0,0-.13,2.7s0,2,.76,2.71A2,2,0,0,1,427,4108Z" transform="translate(-410.08 -4043.65)"/><path class="cls-1" d="M426.73,4088.78c2,0.22,1.5,3.55,1.5,3.55,0.22,3.18-.23,3.39-0.2,6.2,0,1.4-.13,3.08-0.2,4.48l-1.56,0c-0.42-1.84-.93-3.72-1.24-5.57-0.22-1.29-.21-3.65-0.41-4.94C424.62,4092.52,424.16,4088.48,426.73,4088.78Z" transform="translate(-410.08 -4043.65)"/><path class="cls-1" d="M426.35,4104.72a1.32,1.32,0,0,0-.65,1.25l-0.24,1.48,0.15,0.1,0.43-1,0.2,1a2.33,2.33,0,0,0,.91,1.16c1.89,1.43,1.77.69,1.77,0.69l-0.73-1.52a1.16,1.16,0,0,1-1.41-.94A3.92,3.92,0,0,1,426.35,4104.72Z" transform="translate(-410.08 -4043.65)"/><path class="cls-1" d="M426,4089.49l-7.57-1.9s-5.27-1.94-5.32,2.64c0,0-.15,2.77,8.68,2.21l3.81,0.07S428.28,4091.38,426,4089.49Z" transform="translate(-410.08 -4043.65)"/><path class="cls-1" d="M424.16,4089l-5.78-1.45s-5.27-1.94-5.32,2.64c0,0-.15,2.77,8.68,2.21,0,0,.82.08,0.46-1.5A1.78,1.78,0,0,1,424.16,4089Z" transform="translate(-410.08 -4043.65)"/><path class="cls-1" d="M419.43,4107.71c-0.35-.67.19-2,0.25-2.6s0.64-.61.82-1.08a4,4,0,0,0,.22-1s0-.27,0-0.27l1.44,0.59a16.84,16.84,0,0,0-1.19,2.46s-0.79,1.88-.37,2.78A2,2,0,0,1,419.43,4107.71Z" transform="translate(-410.08 -4043.65)"/><path class="cls-1" d="M426.8,4089.81c1.72,0.93,0,3.84,0,3.84-1.05,3-1.55,3.05-2.63,5.66-0.54,1.29-1.34,2.8-2,4.07l-1.45-.55c0.34-1.85.61-3.78,1.05-5.61,0.31-1.27,1.24-3.45,1.57-4.72C423.38,4092.49,424.55,4088.59,426.8,4089.81Z" transform="translate(-410.08 -4043.65)"/><path class="cls-1" d="M420.17,4104.41a1.37,1.37,0,0,0-1.1.92l-0.81,1.27,0.1,0.16,0.81-.8-0.21,1a2.3,2.3,0,0,0,.38,1.4c1.19,2,1.36,1.28,1.36,1.28l-0.08-1.68a1.13,1.13,0,0,1-.93-1.38A3.88,3.88,0,0,1,420.17,4104.41Z" transform="translate(-410.08 -4043.65)"/><path class="cls-1" d="M430.27,4082.69a3.63,3.63,0,0,0,.92-0.07s0.24,0,.08.19a2.49,2.49,0,0,1-.58.14Z" transform="translate(-410.08 -4043.65)"/><path class="cls-1" d="M420,4081.65l8.18,1,0.22,0.83-8.55.46S417.87,4081.78,420,4081.65Z" transform="translate(-410.08 -4043.65)"/><path class="cls-1" d="M416.18,4075.83c1.06-.64,1.77.65,1.77,0.65l3.12,5.49c1.58,2.68-1.32,1.91-1.32,1.91l-3.55-5.54C415,4076.46,416.18,4075.83,416.18,4075.83Z" transform="translate(-410.08 -4043.65)"/><path class="cls-1" d="M428.16,4083.52l-0.07-.86s2.69-.44,3.79.84c0.07,0.19-.13.14-0.13,0.14a3,3,0,0,0-1.3-.54,3.77,3.77,0,0,1,1.25.66,0.16,0.16,0,0,1-.17.18,5.57,5.57,0,0,0-1.2-.58c0.28,0.13,1,.55,1,0.55,0.18,0.2-.08.23-0.08,0.23a4.75,4.75,0,0,1-1.17-.57s-0.24,0,.51.56c0,0,0,.39-1-0.25a3.34,3.34,0,0,1-1.07-.24A0.83,0.83,0,0,0,428.16,4083.52Z" transform="translate(-410.08 -4043.65)"/><polygon class="cls-1" points="20.28 38.22 22.57 23.56 19.9 23.18 17.61 37.84 20.28 38.22"/><path class="cls-1" d="M432.59,4067.66s1,0.7.68,4.65a12.26,12.26,0,0,0,0,3.73,4.34,4.34,0,0,1-1.27,3.46,10.32,10.32,0,0,0-1.68,2.38Z" transform="translate(-410.08 -4043.65)"/><polygon class="cls-1" points="22.74 34.41 21.94 34.81 21.69 41.39 23.8 41.39 22.74 34.41"/><rect class="cls-1" x="19.64" y="41.39" width="4.85" height="1.07"/><path class="cls-1" d="M512.23,4084.08c2.18,1.3,2.78-.19,2.78-0.19l-3.15-5.06-3.25,1.38A8.51,8.51,0,0,0,512.23,4084.08Z" transform="translate(-410.08 -4043.65)"/><path class="cls-1" d="M503.07,4072.55h2.34a2.76,2.76,0,0,0,.21,2.21h-2.77S503.65,4074.13,503.07,4072.55Z" transform="translate(-410.08 -4043.65)"/><path class="cls-1" d="M503.07,4072.55h2.34a2.84,2.84,0,0,0-.1,1.4,5,5,0,0,1-2.06-.7A3.46,3.46,0,0,0,503.07,4072.55Z" transform="translate(-410.08 -4043.65)"/><path class="cls-1" d="M508.7,4068.58a0.73,0.73,0,0,1-.57.71,0.7,0.7,0,0,1-.22-0.86,0.74,0.74,0,0,1,.57-0.71A0.71,0.71,0,0,1,508.7,4068.58Z" transform="translate(-410.08 -4043.65)"/><path class="cls-1" d="M508.48,4068.58a0.61,0.61,0,0,1-.53.57,0.58,0.58,0,0,1-.26-0.73,0.61,0.61,0,0,1,.54-0.58A0.58,0.58,0,0,1,508.48,4068.58Z" transform="translate(-410.08 -4043.65)"/><path class="cls-1" d="M500,4068.72a0.73,0.73,0,0,0,.57.71,0.71,0.71,0,0,0,.23-0.86,0.75,0.75,0,0,0-.57-0.72A0.72,0.72,0,0,0,500,4068.72Z" transform="translate(-410.08 -4043.65)"/><path class="cls-1" d="M500.2,4068.72a0.59,0.59,0,0,0,.53.57,0.57,0.57,0,0,0,.25-0.73,0.59,0.59,0,0,0-.53-0.57A0.57,0.57,0,0,0,500.2,4068.72Z" transform="translate(-410.08 -4043.65)"/><path class="cls-1" d="M508.21,4068.07a7.43,7.43,0,0,1-.74,2.69,5.84,5.84,0,0,1-2.66,2.29,1.22,1.22,0,0,1-.45.09h0a1.18,1.18,0,0,1-.45-0.09,5.87,5.87,0,0,1-2.67-2.29,8.39,8.39,0,0,1-.73-2.69s-1.23-5.75,4-5.51C504.49,4062.56,508.85,4062.33,508.21,4068.07Z" transform="translate(-410.08 -4043.65)"/><path class="cls-1" d="M510.62,4077a3,3,0,0,0-2.5-2c-1.28-.13-2.56-0.35-3.83-0.51-1.27.16-2.55,0.39-3.83,0.51a3,3,0,0,0-2.5,2,3.84,3.84,0,0,0-.17,1.16h13A3.88,3.88,0,0,0,510.62,4077Z" transform="translate(-410.08 -4043.65)"/><path class="cls-1" d="M496.67,4083.3c-2.17,1.3-2.67,0-2.67,0l3.15-5.07,3.15,1.17A8.51,8.51,0,0,1,496.67,4083.3Z" transform="translate(-410.08 -4043.65)"/><path class="cls-1" d="M506.42,4074.79c0.57,0.07,1.14.15,1.71,0.21a3,3,0,0,1,2.5,2,3.88,3.88,0,0,1,.18,1.16h-13A3.84,3.84,0,0,1,498,4077a3,3,0,0,1,2.5-2c0.53-.05,1.06-0.12,1.59-0.2l2.27,1.28Z" transform="translate(-410.08 -4043.65)"/><path class="cls-1" d="M498.39,4076.2a12.46,12.46,0,0,0-1.94,3l3.19,1.27,1.13-1.62S501.32,4076.5,498.39,4076.2Z" transform="translate(-410.08 -4043.65)"/><path class="cls-1" d="M510.21,4076.2a13.13,13.13,0,0,1,1.81,3l-3.34,1.53-0.81-2.17S507.28,4076.5,510.21,4076.2Z" transform="translate(-410.08 -4043.65)"/><path class="cls-1" d="M501.29,4063.26s-1.09.36-1.59,2.38a2.76,2.76,0,0,1,.75-0.9,3.6,3.6,0,0,0,0,3.25s0-2.44,1.7-3.47a17.44,17.44,0,0,0,4.9,1.3,2.32,2.32,0,0,1,1.13,1.89s1.11-4.56-2.6-5.68c0,0-2.31-.52-3.44.44,0,0-1.59-.57-2.55,1.83A2.54,2.54,0,0,1,501.29,4063.26Z" transform="translate(-410.08 -4043.65)"/><path class="cls-1" d="M502.61,4063.9s0.75,1,4.8,1.68c0,0-4.29-.91-4.8-2.35v0.67Z" transform="translate(-410.08 -4043.65)"/><path class="cls-1" d="M504.15,4062.26s3.06-.47,3.91,3.08a3.8,3.8,0,0,0-3.91-2.67v-0.41Z" transform="translate(-410.08 -4043.65)"/><path class="cls-1" d="M503.72,4084.41l0.27,1.25c-1.89-.19-3.79-0.33-5.68-0.52-0.83-.09-1.66-0.21-2.5-0.28s-2.23-.23-1.9-1.35c0.27-.93,2-1.08,2.76-1C496.66,4082.48,502.4,4083.09,503.72,4084.41Z" transform="translate(-410.08 -4043.65)"/><path class="cls-1" d="M505.12,4084.7l-0.26,1.25c1.89-.18,3.78-0.31,5.68-0.51,0.83-.09,1.66-0.21,2.5-0.29s2.23-.23,1.9-1.35c-0.27-.93-2-1.08-2.75-1C512.18,4082.77,506.44,4083.4,505.12,4084.7Z" transform="translate(-410.08 -4043.65)"/><path class="cls-1" d="M508.94,4085.42a0.63,0.63,0,0,1-.65.62h-8.12a0.63,0.63,0,0,1-.65-0.62l-0.54-4.84a0.64,0.64,0,0,1,.65-0.63h9.2a0.65,0.65,0,0,1,.65.63Z" transform="translate(-410.08 -4043.65)"/><path class="cls-1" d="M508.6,4085.46a0.59,0.59,0,0,1-.6.58h-7.53a0.59,0.59,0,0,1-.6-0.58l-0.54-4.46a0.59,0.59,0,0,1,.6-0.58h8.59a0.6,0.6,0,0,1,.61.58Z" transform="translate(-410.08 -4043.65)"/><path class="cls-1" d="M522.86,4084h-5a0.84,0.84,0,0,0-.84.84V4085a0.85,0.85,0,0,0,.84.85h5V4084Z" transform="translate(-410.08 -4043.65)"/><rect class="cls-1" x="107.11" y="40.48" width="5.66" height="0.03"/><rect class="cls-1" x="107.11" y="40.56" width="5.66" height="0.03"/><rect class="cls-1" x="107.11" y="40.64" width="5.66" height="0.03"/><rect class="cls-1" x="107.11" y="40.71" width="5.66" height="0.03"/><rect class="cls-1" x="107.11" y="40.79" width="5.66" height="0.03"/><rect class="cls-1" x="107.11" y="40.87" width="5.66" height="0.03"/><rect class="cls-1" x="107.11" y="40.95" width="5.66" height="0.03"/><rect class="cls-1" x="107.11" y="41.03" width="5.66" height="0.03"/><rect class="cls-1" x="107.11" y="41.11" width="5.66" height="0.03"/><rect class="cls-1" x="107.11" y="41.18" width="5.66" height="0.04"/><rect class="cls-1" x="107.11" y="41.26" width="5.66" height="0.04"/><rect class="cls-1" x="107.11" y="41.34" width="5.66" height="0.03"/><rect class="cls-1" x="107.11" y="41.41" width="5.66" height="0.04"/><rect class="cls-1" x="107.11" y="41.49" width="5.66" height="0.04"/><rect class="cls-1" x="107.11" y="41.57" width="5.66" height="0.03"/><rect class="cls-1" x="107.11" y="41.64" width="5.66" height="0.04"/><rect class="cls-1" x="107.11" y="41.72" width="5.66" height="0.04"/><rect class="cls-1" x="107.11" y="41.8" width="5.66" height="0.03"/><rect class="cls-1" x="107.11" y="41.87" width="5.66" height="0.04"/><rect class="cls-1" x="107.11" y="41.95" width="5.66" height="0.04"/><rect class="cls-1" x="107.11" y="42.03" width="5.66" height="0.03"/><rect class="cls-1" x="107.11" y="42.1" width="5.66" height="0.04"/><path class="cls-1" d="M523,4085.82h-5.1a0.71,0.71,0,0,1-.74-0.67v-0.4a0.7,0.7,0,0,1,.74-0.67H523v-0.19h-5.38a0.83,0.83,0,0,0-.84.81v0.5a0.82,0.82,0,0,0,.84.81H523v-0.19Z" transform="translate(-410.08 -4043.65)"/><path class="cls-1" d="M517.73,4081.92h5a0.84,0.84,0,0,1,.84.84v0.17a0.84,0.84,0,0,1-.84.84h-5v-1.85Z" transform="translate(-410.08 -4043.65)"/><rect class="cls-1" x="107.64" y="38.37" width="5.66" height="0.03"/><rect class="cls-1" x="107.64" y="38.44" width="5.66" height="0.03"/><rect class="cls-1" x="107.64" y="38.52" width="5.66" height="0.03"/><rect class="cls-1" x="107.64" y="38.6" width="5.66" height="0.03"/><rect class="cls-1" x="107.64" y="38.67" width="5.66" height="0.03"/><rect class="cls-1" x="107.64" y="38.75" width="5.66" height="0.03"/><rect class="cls-1" x="107.64" y="38.83" width="5.66" height="0.03"/><rect class="cls-1" x="107.64" y="38.9" width="5.66" height="0.03"/><rect class="cls-1" x="107.64" y="38.98" width="5.66" height="0.03"/><rect class="cls-1" x="107.64" y="39.06" width="5.66" height="0.03"/><rect class="cls-1" x="107.64" y="39.13" width="5.66" height="0.04"/><rect class="cls-1" x="107.64" y="39.22" width="5.66" height="0.03"/><rect class="cls-1" x="107.64" y="39.29" width="5.66" height="0.03"/><rect class="cls-1" x="107.64" y="39.37" width="5.66" height="0.04"/><rect class="cls-1" x="107.64" y="39.45" width="5.66" height="0.04"/><rect class="cls-1" x="107.64" y="39.53" width="5.66" height="0.03"/><rect class="cls-1" x="107.64" y="39.6" width="5.66" height="0.04"/><rect class="cls-1" x="107.64" y="39.68" width="5.66" height="0.04"/><rect class="cls-1" x="107.64" y="39.76" width="5.66" height="0.03"/><rect class="cls-1" x="107.64" y="39.83" width="5.66" height="0.04"/><rect class="cls-1" x="107.64" y="39.91" width="5.66" height="0.04"/><rect class="cls-1" x="107.64" y="39.99" width="5.66" height="0.03"/><path class="cls-1" d="M517.57,4083.7h5.1a0.7,0.7,0,0,0,.74-0.66v-0.4a0.71,0.71,0,0,0-.74-0.66h-5.1v-0.19H523a0.82,0.82,0,0,1,.84.8v0.5a0.82,0.82,0,0,1-.84.81h-5.38v-0.2Z" transform="translate(-410.08 -4043.65)"/><path class="cls-1" d="M438.6,4084.93a1.54,1.54,0,0,0,1.76,1.26,1.5,1.5,0,0,0,1.13-1.82,1.55,1.55,0,0,0-1.76-1.26A1.5,1.5,0,0,0,438.6,4084.93Z" transform="translate(-410.08 -4043.65)"/><path class="cls-1" d="M438.48,4085a1.55,1.55,0,0,0,1.76,1.26,1.51,1.51,0,0,0,1.12-1.83,1.54,1.54,0,0,0-1.76-1.25A1.5,1.5,0,0,0,438.48,4085Z" transform="translate(-410.08 -4043.65)"/><path class="cls-1" d="M438.28,4085a1.44,1.44,0,0,0,1.65,1.18,1.4,1.4,0,0,0,1.05-1.71,1.45,1.45,0,0,0-1.65-1.18A1.41,1.41,0,0,0,438.28,4085Z" transform="translate(-410.08 -4043.65)"/><polygon class="cls-1" points="29.46 40.51 29.31 40.1 29.37 40.52 29.26 40.62 29.03 40.47 29.14 40.67 29.06 40.86 28.5 40.67 29 40.95 29 41.01 28.63 41.02 29.01 41.09 29.03 41.2 28.75 41.35 29.04 41.3 29.06 41.36 28.78 41.76 29.1 41.43 29.18 41.53 29.05 41.78 29.25 41.57 29.3 41.63 29.26 42.17 29.36 41.63 29.45 41.65 29.49 42.13 29.52 41.65 29.6 41.65 29.75 42.27 29.66 41.63 29.73 41.61 30 42.09 29.8 41.59 29.86 41.55 30.12 41.8 29.91 41.51 29.97 41.44 30.37 41.6 30 41.37 30.04 41.31 30.71 41.49 30.08 41.23 30.09 41.14 30.73 41.02 30.08 41.05 30.07 40.96 30.42 40.77 30.03 40.87 29.96 40.77 30.31 40.25 29.89 40.69 29.85 40.63 29.97 40.15 29.78 40.59 29.67 40.54 29.75 39.82 29.59 40.53 29.46 40.51"/><path class="cls-1" d="M439.06,4084.84a0.6,0.6,0,0,0,.69.5,0.6,0.6,0,0,0,.44-0.72,0.62,0.62,0,0,0-.69-0.49A0.59,0.59,0,0,0,439.06,4084.84Z" transform="translate(-410.08 -4043.65)"/><polygon class="cls-1" points="26.6 41.73 27.07 41.63 26.92 40.93 26.45 41.02 26.6 41.73"/><path class="cls-1" d="M437.16,4084.91a1.54,1.54,0,0,0,1.76,1.26,1.5,1.5,0,0,0,1.12-1.82,1.55,1.55,0,0,0-1.76-1.26A1.5,1.5,0,0,0,437.16,4084.91Z" transform="translate(-410.08 -4043.65)"/><polygon class="cls-1" points="25.71 41.9 26.18 41.81 26.04 41.11 25.56 41.19 25.71 41.9"/><polygon class="cls-1" points="26.06 42.03 26.63 41.92 26.41 40.83 25.84 40.94 26.06 42.03"/><polygon class="cls-1" points="22.64 42.7 25.94 42.05 25.71 40.96 22.41 41.6 22.64 42.7"/><path class="cls-1" d="M436.77,4085a1.55,1.55,0,0,0,1.76,1.26,1.5,1.5,0,0,0,1.12-1.82,1.54,1.54,0,0,0-1.76-1.26A1.5,1.5,0,0,0,436.77,4085Z" transform="translate(-410.08 -4043.65)"/><path class="cls-1" d="M436.89,4085a1.43,1.43,0,0,0,1.62,1.15,1.38,1.38,0,0,0,1-1.67,1.42,1.42,0,0,0-1.61-1.15A1.37,1.37,0,0,0,436.89,4085Z" transform="translate(-410.08 -4043.65)"/><path class="cls-1" d="M437,4085a1.36,1.36,0,0,0,1.55,1.1,1.31,1.31,0,0,0,1-1.59,1.34,1.34,0,0,0-1.54-1.1A1.31,1.31,0,0,0,437,4085Z" transform="translate(-410.08 -4043.65)"/><path class="cls-1" d="M437.1,4084.93a1.2,1.2,0,0,0,1.37,1,1.16,1.16,0,0,0,.87-1.41,1.21,1.21,0,0,0-1.37-1A1.16,1.16,0,0,0,437.1,4084.93Z" transform="translate(-410.08 -4043.65)"/><path class="cls-1" d="M437.76,4084.79a0.49,0.49,0,0,0,.56.4,0.5,0.5,0,0,0-.21-1A0.48,0.48,0,0,0,437.76,4084.79Z" transform="translate(-410.08 -4043.65)"/><path class="cls-2" d="M437.71,4083.24a1.68,1.68,0,0,0-.12,1,1.55,1.55,0,0,0,1.76,1.25l0.19,0a1.41,1.41,0,0,1-1,.79,1.55,1.55,0,0,1-1.76-1.26A1.52,1.52,0,0,1,437.71,4083.24Z" transform="translate(-410.08 -4043.65)"/><polygon class="cls-2" points="22.64 42.7 25.94 42.05 22.41 41.6 22.64 42.7"/><polygon class="cls-1" points="82.58 42.33 80.1 42.33 79.87 38.06 82.83 38.06 82.58 42.33"/><polygon class="cls-1" points="82.99 37.39 79.71 37.39 79.64 38.06 83.08 38.06 82.99 37.39"/><rect class="cls-1" x="79.87" y="36.94" width="2.96" height="0.44"/><polygon class="cls-1" points="79.87 39.33 79.95 40.96 82.74 40.96 82.84 39.33 79.87 39.33"/><path class="cls-1" d="M491.55,4083.88a0.74,0.74,0,0,0-.42-0.38,0,0,0,0,0-.07,0,0.53,0.53,0,0,0,.18.59,0.64,0.64,0,0,0,.61.18s0,0,0-.05A1.31,1.31,0,0,1,491.55,4083.88Z" transform="translate(-410.08 -4043.65)"/><path class="cls-1" d="M491.81,4083.56a0.6,0.6,0,0,0-.62-0.16s-0.05,0,0,.05a0.73,0.73,0,0,1,.43.4,1.16,1.16,0,0,0,.28.35,0,0,0,0,0,0,0l0,0A0.52,0.52,0,0,0,491.81,4083.56Z" transform="translate(-410.08 -4043.65)"/><path class="cls-2" d="M493.16,4081.7l-0.09-.67h-0.15v-0.44h-0.46c0,0.13,0,.28,0,0.44h-0.38a6.2,6.2,0,0,1-.08.67h0.39A6.2,6.2,0,0,1,492,4083h-0.39a4.94,4.94,0,0,1-1,1.63H491a4.92,4.92,0,0,1-.84.71l0,0.66h2.48l0.09-1.37h0.07l0.09-1.63h-0.07l0.07-1.27h0.24Z" transform="translate(-410.08 -4043.65)"/></g><rect class="cls-1" x="198.31" y="40.32" width="0.82" height="27.88"/><rect class="cls-1" x="192.25" y="39.36" width="0.82" height="27.88"/><polygon class="cls-1" points="200.62 41.88 190.13 39.34 190.13 3.43 200.62 0 200.62 41.88"/><rect class="cls-1" x="200.62" width="0.86" height="41.88"/><polygon class="cls-1" points="193.5 12.72 189.94 10.84 190.09 10.55 193.65 12.43 193.5 12.72"/><path class="cls-1" d="M603.77,4056.36a0.24,0.24,0,0,0,.15,0s-0.08-.12-0.08-0.12Z" transform="translate(-410.08 -4043.65)"/><path class="cls-1" d="M603.58,4056.36a0.21,0.21,0,0,0,.25,0,0.22,0.22,0,0,0-.1-0.24Z" transform="translate(-410.08 -4043.65)"/><path class="cls-1" d="M592.26,4107.34a1.78,1.78,0,0,0,.85,1.79c1,0.65.87,0.9,0.69,1.11a1.22,1.22,0,0,1-1.4.44c-0.74-.28-0.74-1.09-1-1.39s-1.21-.43-0.86-1.1a1.34,1.34,0,0,0,.16-1.18S592.07,4106.62,592.26,4107.34Z" transform="translate(-410.08 -4043.65)"/><path class="cls-1" d="M592.43,4108.72a2,2,0,0,1-1.76-.17,1.61,1.61,0,0,0,.22,2.24,14.26,14.26,0,0,0,2.62.24c1.5,0,2.62-1.79-.7-1.81A1.07,1.07,0,0,1,592.43,4108.72Z" transform="translate(-410.08 -4043.65)"/><path class="cls-1" d="M582.91,4078.37s-1.12,16.14,1.7,29.76c0,0,1.59,1.59,2.82,0,0.33-.41-1.51-23.23.81-23.22s1.64,23.23,1.64,23.23a1.66,1.66,0,0,0,2.69.24c1.68-1.42,1.75-28-.39-31Z" transform="translate(-410.08 -4043.65)"/><path class="cls-1" d="M569.58,4073.33a3.24,3.24,0,0,1-.52-1.57s-0.19-.86-0.52-0.45a1.11,1.11,0,0,0,0,.69s-0.94-1.73-2-1.18,0.16,2.32,1.33,2.51a3.67,3.67,0,0,1,.89.57Z" transform="translate(-410.08 -4043.65)"/><path class="cls-1" d="M601.71,4058.34a3.52,3.52,0,0,0,0-1.81s-0.63-1.72.58-1.76,1.12,1.65.68,2.22a3.79,3.79,0,0,0-.29,1.79Z" transform="translate(-410.08 -4043.65)"/><path class="cls-1" d="M585.26,4060.7s1.09,1.4.16,2-5.6,2.4-4,7,3.08,9.65,6.68,9.56,5.49-4.57,5.49-11.46c0,0-.21-6.13-5.22-5.52a1.49,1.49,0,0,1-1-2Z" transform="translate(-410.08 -4043.65)"/><path class="cls-1" d="M581.44,4056.46s0.74,5.43,4.81,4.69c0,0,3.7-.75,3.13-5.09-0.45-3.5-4.1-3.73-6.19-2.91S581.44,4056.46,581.44,4056.46Z" transform="translate(-410.08 -4043.65)"/><path class="cls-1" d="M581.42,4053.91a1.54,1.54,0,0,0-.29,1.88,1.52,1.52,0,0,1,.58-0.91,1.33,1.33,0,0,0,1.72.5c1.53-.38,4-0.49,4.8.87,0,0-.06-0.56.38-0.49,0.82,0.13.19,1.42,0.19,1.42l0.61,0.24s0.76-2.86-.74-4.36S583,4051.9,581.42,4053.91Z" transform="translate(-410.08 -4043.65)"/><path class="cls-1" d="M588.8,4062.09a3,3,0,0,1-3.94.93,9.46,9.46,0,0,0-3.94,2.66c-1.31,1.76.5,15,1.87,15,3,0.06,3.73.15,5.43,0.24a36.91,36.91,0,0,0,4.86-.17c0.77-.13,1,1,0.94-9C594,4060.23,588.8,4062.09,588.8,4062.09Z" transform="translate(-410.08 -4043.65)"/><path class="cls-1" d="M589.62,4062s1.41,0,5.36,2,4.59,0.13,5.08-1a38.33,38.33,0,0,0,1.17-5,1.86,1.86,0,0,1,1.76.24s-0.34,9.24-4.73,9-6.1-1.61-6.1-1.61Z" transform="translate(-410.08 -4043.65)"/><path class="cls-1" d="M580.78,4065.9s-3,9.35-4.84,10.12-6.45-3.22-6.45-3.22-1.42.71-1,1.35c0,0,4.32,5.09,8.57,3.74s4.83-8.64,4.83-8.64Z" transform="translate(-410.08 -4043.65)"/><path class="cls-1" d="M587.84,4109.87a1.15,1.15,0,0,1-1.15,1.15h-1.43a1.15,1.15,0,0,1-1.15-1.15h0a1.15,1.15,0,0,1,1.15-1.15h1.43a1.15,1.15,0,0,1,1.15,1.15h0Z" transform="translate(-410.08 -4043.65)"/></svg>