<svg id="top" xmlns="http://www.w3.org/2000/svg" viewBox="0 0 20 20"><defs><style>.cls-1{fill:#fdf6e2;}</style></defs><title>effective</title><path class="cls-1" d="M216.58,346c-0.3-.3-3.17-3.61-3.17-3.61S213,342,213,342.5v1.85h-4.48v-4.46h1.85c0.51,0,.12-0.38.12-0.38s-3.3-2.87-3.61-3.17a0.28,0.28,0,0,0-.42,0l-3.69,3.07s-0.38.36,0,.36h2v4.55h-4.49s0-1.34,0-1.85-0.39-.12-0.39-0.12-2.87,3.3-3.17,3.61a0.28,0.28,0,0,0,0,.43l3.07,3.68s0.36,0.39.36,0,0-2,0-2h4.58v4.6h-2c-0.42,0,0,.36,0,0.36l3.69,3.07a0.28,0.28,0,0,0,.42,0c0.3-.3,3.6-3.17,3.6-3.17s0.38-.38-0.12-0.38h-1.85v-4.51h4.57v2c0,0.42.36,0,.36,0l3.07-3.68A0.28,0.28,0,0,0,216.58,346Z" transform="translate(-196.67 -336.24)"/></svg>